<svg width="254" height="166" viewBox="0 0 254 166" fill="none" xmlns="http://www.w3.org/2000/svg">
<path d="M71.5876 108.185L55.934 107.223L56.3453 96.6886L67.3888 97.5963C66.7525 100.122 66.9847 104.812 71.5876 108.185Z" fill="#FFB8B8"/>
<path d="M125.686 28.9626C129.908 28.9626 133.331 25.5398 133.331 21.3175C133.331 17.0952 129.908 13.6724 125.686 13.6724C121.464 13.6724 118.041 17.0952 118.041 21.3175C118.041 25.5398 121.464 28.9626 125.686 28.9626Z" fill="#FFB83D"/>
<path d="M142.796 17.6972C142.581 16.9902 142.163 16.3617 141.595 15.8891C141.027 15.4165 140.332 15.1204 139.598 15.0372C139.581 15.0358 139.564 15.0358 139.547 15.0372C139.526 15.0308 139.505 15.026 139.484 15.0229C136.924 14.6908 134.078 15.4982 132.162 17.2562C131.451 17.8986 130.882 18.6827 130.493 19.5583C130.138 19.0733 129.67 18.6821 129.13 18.4187C128.589 18.1553 127.993 18.0275 127.392 18.0465C126.617 18.0977 125.877 18.3867 125.272 18.874C124.668 19.3613 124.228 20.0231 124.013 20.7694C123.99 20.8606 123.996 20.957 124.032 21.0441C124.068 21.1313 124.13 21.2047 124.211 21.2533C124.441 21.4502 124.715 21.5896 125.01 21.6599C125.643 21.7944 126.281 21.9176 126.92 22.0292C128.168 22.2468 129.423 22.4234 130.685 22.5589C131.518 22.6477 132.353 22.7183 133.19 22.7708C134.92 22.8796 136.658 22.9054 138.39 22.851C139.249 22.8223 140.073 22.7937 140.858 22.4158C141.43 22.1346 141.918 21.7093 142.275 21.1817C142.611 20.6743 142.832 20.0993 142.922 19.4972C143.012 18.8952 142.969 18.2808 142.796 17.6972Z" fill="#F2F2F2"/>
<path d="M127.067 28.8351C127.053 28.5148 126.999 28.1975 126.907 27.8903C126.69 27.1834 126.272 26.5551 125.703 26.0826C125.135 25.6101 124.44 25.3139 123.706 25.2303C123.689 25.2289 123.673 25.2289 123.657 25.2303C123.635 25.2242 123.613 25.2194 123.591 25.216C122.174 25.0425 120.737 25.1903 119.385 25.6484C117.306 26.3441 115.482 27.7471 114.603 29.7514C114.248 29.2661 113.78 28.8747 113.239 28.6113C112.698 28.3479 112.101 28.2203 111.5 28.2396C110.725 28.2908 109.985 28.5798 109.38 29.0671C108.775 29.5544 108.336 30.2163 108.121 30.9625C108.099 31.0537 108.106 31.1496 108.141 31.2365C108.177 31.3234 108.239 31.3969 108.319 31.4464C108.549 31.6428 108.823 31.7821 109.118 31.853C109.753 31.9876 110.389 32.1107 111.03 32.2224C112.279 32.44 113.533 32.6165 114.792 32.752C117.352 33.0268 119.927 33.1244 122.5 33.0441C123.356 33.0155 124.184 32.9868 124.968 32.6089C125.539 32.3276 126.027 31.9023 126.383 31.3748C126.885 30.6269 127.125 29.734 127.067 28.8351Z" fill="#F2F2F2"/>
<path d="M211.581 137.541H181.982C181.82 135.17 181.835 132.791 182.025 130.423C183.207 115.794 191.167 101.857 203.175 93.4185C201.64 98.8844 202.43 104.318 204.027 109.774C203.804 109.848 203.58 109.912 203.377 109.997C201.756 110.598 200.269 111.51 198.998 112.683C198.647 113.013 198.274 113.492 198.454 113.95C198.614 114.334 199.094 114.462 199.509 114.547C200.511 114.739 201.513 114.931 202.503 115.112C203.302 115.271 204.101 115.421 204.9 115.58C205.273 115.644 205.645 115.719 206.019 115.793C206.072 115.921 206.105 116.039 206.158 116.156C208.033 121.323 210.079 126.533 211.038 131.829C211.275 133.158 211.439 134.499 211.528 135.846C211.561 136.411 211.581 136.976 211.581 137.541Z" fill="#F2F2F2"/>
<path d="M76.6116 118.148C71.5823 121.206 68.3858 125.936 65.7754 131.233C63.5037 131.751 61.4065 132.853 59.6913 134.43C59.3291 134.76 58.956 135.24 59.1473 135.698C59.307 136.081 59.7866 136.209 60.2021 136.294C61.1931 136.486 62.2064 136.678 63.1962 136.859C63.1003 137.083 63.0043 137.317 62.9099 137.541H29.666C31.1751 135.506 32.8463 133.596 34.6632 131.829C35.0575 131.435 35.4623 131.062 35.8778 130.679C40.1155 126.849 44.9815 123.778 50.2621 121.601C58.5809 118.123 67.6779 116.931 76.6118 118.148H76.6116Z" fill="#F2F2F2"/>
<path d="M145.401 125.114L171.849 127.462L172.132 127.487V14.6359L171.849 14.4383C166.337 10.5829 160.374 7.41559 154.094 5.00684L152.742 23.6465L152.619 25.353L151.282 43.838L150.87 49.5244L145.45 124.455L145.401 125.114Z" fill="#F2F2F2"/>
<path d="M79.9956 12.5342C79.8067 12.6545 79.6177 12.7747 79.4287 12.9007V127.487L79.9956 127.436L106.157 125.114L106.108 124.455L100.688 49.5243L100.276 43.8379L98.9388 25.3529L98.8156 23.6464L97.3983 4.09912C91.2864 6.21773 85.4452 9.04893 79.9956 12.5342Z" fill="#F2F2F2"/>
<path d="M79.4287 12.9007C79.0479 13.1469 78.6671 13.3989 78.292 13.6537V129.051C78.292 131.934 80.0013 134.35 82.2862 134.966C82.6596 135.067 83.0447 135.118 83.4315 135.118H168.412C168.798 135.118 169.182 135.067 169.555 134.966C170.404 134.73 171.174 134.269 171.782 133.632C172.943 132.391 173.577 130.749 173.552 129.051V15.6608C173.082 15.3144 172.61 14.9708 172.132 14.6358L171.848 14.4382V129.051C171.849 129.422 171.804 129.792 171.716 130.153C171.313 131.856 169.981 133.105 168.412 133.105H83.4315C81.536 133.105 79.9956 131.287 79.9956 129.051V12.5342C79.8066 12.6544 79.6177 12.7747 79.4287 12.9007Z" fill="#F2F2F2"/>
<path d="M172.7 23.6475H79.1431V25.3537H172.7V23.6475Z" fill="#F2F2F2"/>
<path d="M144.046 1.88292C143.479 1.74262 142.912 1.61091 142.34 1.48779V47.8177H144.046V1.88292Z" fill="#F2F2F2"/>
<path d="M109.504 0.912109C108.935 1.01805 108.365 1.12685 107.798 1.24425V47.8176H109.504V0.912109Z" fill="#F2F2F2"/>
<path d="M60.8008 132.131C60.8004 133.11 60.988 134.08 61.3534 134.988C61.4937 135.341 61.6613 135.681 61.8545 136.008C62.104 136.433 62.3935 136.834 62.7192 137.205C63.4384 138.024 64.3244 138.681 65.3179 139.131C66.3114 139.581 67.3894 139.813 68.48 139.813H180.521C182.558 139.813 184.511 139.004 185.951 137.564C187.391 136.124 188.2 134.17 188.2 132.134C188.2 130.097 187.391 128.144 185.951 126.704C184.511 125.264 182.558 124.455 180.521 124.455H68.48C66.4444 124.457 64.4928 125.266 63.0532 126.705C61.6135 128.144 60.8035 130.095 60.8008 132.131Z" fill="#F2F2F2"/>
<path d="M79.1428 49.5249L172.131 49.5249V43.8377L79.1428 43.8377V49.5249Z" fill="#F2F2F2"/>
<path d="M129.619 45.2593H121.656C121.656 44.4297 121.986 43.634 122.572 43.0474C123.159 42.4608 123.954 42.1312 124.784 42.1312H126.49C126.901 42.1312 127.308 42.212 127.687 42.3692C128.067 42.5264 128.412 42.7568 128.702 43.0473C128.993 43.3378 129.223 43.6826 129.381 44.0622C129.538 44.4417 129.619 44.8485 129.619 45.2593Z" fill="#F2F2F2"/>
<path d="M0.712891 136.518C3.26013 139.469 6.01068 142.239 8.9444 144.807H245.055C247.989 142.239 250.74 139.469 253.287 136.518H0.712891Z" fill="#F2F2F2"/>
<path d="M114.558 108.799V138.164H135.13V108.799C135.13 108.588 135.063 108.382 134.938 108.212C134.812 108.042 134.636 107.916 134.434 107.854C134.339 107.823 134.239 107.807 134.139 107.808H115.551C115.421 107.808 115.292 107.833 115.171 107.883C115.051 107.933 114.941 108.006 114.849 108.098C114.757 108.19 114.684 108.299 114.634 108.419C114.584 108.54 114.558 108.669 114.558 108.799ZM122.586 118.889C122.586 118.306 122.817 117.748 123.229 117.336C123.641 116.924 124.2 116.693 124.782 116.693C125.365 116.693 125.923 116.924 126.335 117.336C126.747 117.748 126.978 118.306 126.978 118.889V122.296C126.978 122.879 126.747 123.437 126.335 123.849C125.923 124.261 125.365 124.492 124.782 124.492C124.2 124.492 123.641 124.261 123.229 123.849C122.817 123.437 122.586 122.879 122.586 122.296V118.889Z" fill="#E6E6E6"/>
<path d="M114.495 137.225V140.056C114.496 140.203 114.554 140.344 114.657 140.448C114.761 140.552 114.901 140.611 115.048 140.612H134.641C134.788 140.611 134.928 140.552 135.032 140.448C135.135 140.344 135.193 140.203 135.193 140.056V137.225H114.495Z" fill="#3F3D56"/>
<path d="M82.1948 64.556V118.172C82.1954 118.855 82.467 119.51 82.9502 119.993C83.4333 120.476 84.0885 120.748 84.7717 120.749H164.226C164.91 120.748 165.565 120.476 166.048 119.993C166.531 119.51 166.803 118.855 166.803 118.172V64.556C166.802 63.8733 166.53 63.2191 166.047 62.7367C165.564 62.2542 164.909 61.9828 164.226 61.9819H84.7717C84.089 61.9828 83.4345 62.2541 82.9515 62.7366C82.4685 63.2191 82.1964 63.8733 82.1948 64.556Z" fill="#3F3D56"/>
<path d="M84.0586 65.2233V117.512C84.0592 117.877 84.2045 118.227 84.4626 118.485C84.7208 118.743 85.0707 118.888 85.4358 118.889H163.565C163.93 118.888 164.28 118.743 164.538 118.485C164.796 118.227 164.941 117.877 164.942 117.512V65.2233C164.942 64.8578 164.797 64.5072 164.539 64.2485C164.281 63.9898 163.93 63.844 163.565 63.8433H85.4358C85.0703 63.8441 84.7201 63.9899 84.4619 64.2486C84.2037 64.5073 84.0587 64.8578 84.0586 65.2233Z" fill="#F2F2F2"/>
<path d="M99.9897 141.278C100.069 141.378 100.17 141.458 100.285 141.513C100.4 141.568 100.526 141.596 100.654 141.596H147.136C147.263 141.595 147.388 141.567 147.503 141.512C147.618 141.457 147.719 141.378 147.799 141.279C147.879 141.18 147.936 141.065 147.966 140.942C147.996 140.818 147.998 140.689 147.972 140.565L147.25 137.138C147.22 136.998 147.156 136.868 147.063 136.759C146.97 136.651 146.851 136.567 146.718 136.516C146.621 136.478 146.518 136.459 146.414 136.459H101.373C101.269 136.459 101.166 136.478 101.069 136.516C100.936 136.567 100.817 136.651 100.724 136.759C100.631 136.868 100.566 136.998 100.537 137.138L99.815 140.565C99.7893 140.689 99.7917 140.818 99.8219 140.941C99.8521 141.064 99.9094 141.179 99.9897 141.278Z" fill="#2F2E41"/>
<path d="M144.792 137.937H145.944C146.021 137.937 146.084 137.874 146.084 137.797V137.217C146.084 137.14 146.021 137.078 145.944 137.078H144.792C144.715 137.078 144.652 137.14 144.652 137.217V137.797C144.652 137.874 144.715 137.937 144.792 137.937Z" fill="#3F3D56"/>
<path d="M141.929 137.937H143.081C143.158 137.937 143.221 137.874 143.221 137.797V137.217C143.221 137.14 143.158 137.078 143.081 137.078H141.929C141.852 137.078 141.789 137.14 141.789 137.217V137.797C141.789 137.874 141.852 137.937 141.929 137.937Z" fill="#3F3D56"/>
<path d="M139.066 137.937H140.218C140.295 137.937 140.357 137.874 140.357 137.797V137.217C140.357 137.14 140.295 137.078 140.218 137.078H139.066C138.988 137.078 138.926 137.14 138.926 137.217V137.797C138.926 137.874 138.988 137.937 139.066 137.937Z" fill="#3F3D56"/>
<path d="M136.202 137.937H137.354C137.432 137.937 137.494 137.874 137.494 137.797V137.217C137.494 137.14 137.432 137.078 137.354 137.078H136.202C136.125 137.078 136.063 137.14 136.063 137.217V137.797C136.063 137.874 136.125 137.937 136.202 137.937Z" fill="#3F3D56"/>
<path d="M133.339 137.937H134.491C134.568 137.937 134.631 137.874 134.631 137.797V137.217C134.631 137.14 134.568 137.078 134.491 137.078H133.339C133.262 137.078 133.199 137.14 133.199 137.217V137.797C133.199 137.874 133.262 137.937 133.339 137.937Z" fill="#3F3D56"/>
<path d="M130.476 137.937H131.628C131.705 137.937 131.768 137.874 131.768 137.797V137.217C131.768 137.14 131.705 137.078 131.628 137.078H130.476C130.399 137.078 130.336 137.14 130.336 137.217V137.797C130.336 137.874 130.399 137.937 130.476 137.937Z" fill="#3F3D56"/>
<path d="M127.613 137.937H128.765C128.842 137.937 128.905 137.874 128.905 137.797V137.217C128.905 137.14 128.842 137.078 128.765 137.078H127.613C127.536 137.078 127.473 137.14 127.473 137.217V137.797C127.473 137.874 127.536 137.937 127.613 137.937Z" fill="#3F3D56"/>
<path d="M124.75 137.937H125.902C125.979 137.937 126.042 137.874 126.042 137.797V137.217C126.042 137.14 125.979 137.078 125.902 137.078H124.75C124.672 137.078 124.61 137.14 124.61 137.217V137.797C124.61 137.874 124.672 137.937 124.75 137.937Z" fill="#3F3D56"/>
<path d="M121.886 137.937H123.038C123.116 137.937 123.178 137.874 123.178 137.797V137.217C123.178 137.14 123.116 137.078 123.038 137.078H121.886C121.809 137.078 121.747 137.14 121.747 137.217V137.797C121.747 137.874 121.809 137.937 121.886 137.937Z" fill="#3F3D56"/>
<path d="M119.023 137.937H120.175C120.252 137.937 120.315 137.874 120.315 137.797V137.217C120.315 137.14 120.252 137.078 120.175 137.078H119.023C118.946 137.078 118.883 137.14 118.883 137.217V137.797C118.883 137.874 118.946 137.937 119.023 137.937Z" fill="#3F3D56"/>
<path d="M116.16 137.937H117.312C117.389 137.937 117.452 137.874 117.452 137.797V137.217C117.452 137.14 117.389 137.078 117.312 137.078H116.16C116.083 137.078 116.02 137.14 116.02 137.217V137.797C116.02 137.874 116.083 137.937 116.16 137.937Z" fill="#3F3D56"/>
<path d="M113.296 137.937H114.449C114.526 137.937 114.588 137.874 114.588 137.797V137.217C114.588 137.14 114.526 137.078 114.449 137.078H113.296C113.219 137.078 113.157 137.14 113.157 137.217V137.797C113.157 137.874 113.219 137.937 113.296 137.937Z" fill="#3F3D56"/>
<path d="M110.433 137.937H111.585C111.663 137.937 111.725 137.874 111.725 137.797V137.217C111.725 137.14 111.663 137.078 111.585 137.078H110.433C110.356 137.078 110.293 137.14 110.293 137.217V137.797C110.293 137.874 110.356 137.937 110.433 137.937Z" fill="#3F3D56"/>
<path d="M107.57 137.937H108.722C108.799 137.937 108.862 137.874 108.862 137.797V137.217C108.862 137.14 108.799 137.078 108.722 137.078H107.57C107.493 137.078 107.43 137.14 107.43 137.217V137.797C107.43 137.874 107.493 137.937 107.57 137.937Z" fill="#3F3D56"/>
<path d="M104.707 137.937H105.859C105.936 137.937 105.999 137.874 105.999 137.797V137.217C105.999 137.14 105.936 137.078 105.859 137.078H104.707C104.629 137.078 104.567 137.14 104.567 137.217V137.797C104.567 137.874 104.629 137.937 104.707 137.937Z" fill="#3F3D56"/>
<path d="M101.843 137.937H102.996C103.073 137.937 103.135 137.874 103.135 137.797V137.217C103.135 137.14 103.073 137.078 102.996 137.078H101.843C101.766 137.078 101.704 137.14 101.704 137.217V137.797C101.704 137.874 101.766 137.937 101.843 137.937Z" fill="#3F3D56"/>
<path d="M144.826 139.368H145.978C146.056 139.368 146.118 139.306 146.118 139.228V138.649C146.118 138.572 146.056 138.509 145.978 138.509H144.826C144.749 138.509 144.687 138.572 144.687 138.649V139.228C144.687 139.306 144.749 139.368 144.826 139.368Z" fill="#3F3D56"/>
<path d="M141.963 139.368H143.115C143.192 139.368 143.255 139.306 143.255 139.228V138.649C143.255 138.572 143.192 138.509 143.115 138.509H141.963C141.886 138.509 141.823 138.572 141.823 138.649V139.228C141.823 139.306 141.886 139.368 141.963 139.368Z" fill="#3F3D56"/>
<path d="M139.1 139.368H140.252C140.329 139.368 140.392 139.306 140.392 139.228V138.649C140.392 138.572 140.329 138.509 140.252 138.509H139.1C139.023 138.509 138.96 138.572 138.96 138.649V139.228C138.96 139.306 139.023 139.368 139.1 139.368Z" fill="#3F3D56"/>
<path d="M136.236 139.368H137.389C137.466 139.368 137.528 139.306 137.528 139.228V138.649C137.528 138.572 137.466 138.509 137.389 138.509H136.236C136.159 138.509 136.097 138.572 136.097 138.649V139.228C136.097 139.306 136.159 139.368 136.236 139.368Z" fill="#3F3D56"/>
<path d="M133.373 139.368H134.525C134.602 139.368 134.665 139.306 134.665 139.228V138.649C134.665 138.572 134.602 138.509 134.525 138.509H133.373C133.296 138.509 133.233 138.572 133.233 138.649V139.228C133.233 139.306 133.296 139.368 133.373 139.368Z" fill="#3F3D56"/>
<path d="M130.51 139.368H131.662C131.739 139.368 131.802 139.306 131.802 139.228V138.649C131.802 138.572 131.739 138.509 131.662 138.509H130.51C130.433 138.509 130.37 138.572 130.37 138.649V139.228C130.37 139.306 130.433 139.368 130.51 139.368Z" fill="#3F3D56"/>
<path d="M127.647 139.368H128.799C128.876 139.368 128.938 139.306 128.938 139.228V138.649C128.938 138.572 128.876 138.509 128.799 138.509H127.647C127.569 138.509 127.507 138.572 127.507 138.649V139.228C127.507 139.306 127.569 139.368 127.647 139.368Z" fill="#3F3D56"/>
<path d="M124.783 139.368H125.935C126.013 139.368 126.075 139.306 126.075 139.228V138.649C126.075 138.572 126.013 138.509 125.935 138.509H124.783C124.706 138.509 124.644 138.572 124.644 138.649V139.228C124.644 139.306 124.706 139.368 124.783 139.368Z" fill="#3F3D56"/>
<path d="M121.92 139.368H123.072C123.149 139.368 123.212 139.306 123.212 139.228V138.649C123.212 138.572 123.149 138.509 123.072 138.509H121.92C121.843 138.509 121.78 138.572 121.78 138.649V139.228C121.78 139.306 121.843 139.368 121.92 139.368Z" fill="#3F3D56"/>
<path d="M119.057 139.368H120.209C120.286 139.368 120.349 139.306 120.349 139.228V138.649C120.349 138.572 120.286 138.509 120.209 138.509H119.057C118.98 138.509 118.917 138.572 118.917 138.649V139.228C118.917 139.306 118.98 139.368 119.057 139.368Z" fill="#3F3D56"/>
<path d="M116.193 139.368H117.346C117.423 139.368 117.485 139.306 117.485 139.228V138.649C117.485 138.572 117.423 138.509 117.346 138.509H116.193C116.116 138.509 116.054 138.572 116.054 138.649V139.228C116.054 139.306 116.116 139.368 116.193 139.368Z" fill="#3F3D56"/>
<path d="M113.33 139.368H114.482C114.56 139.368 114.622 139.306 114.622 139.228V138.649C114.622 138.572 114.56 138.509 114.482 138.509H113.33C113.253 138.509 113.19 138.572 113.19 138.649V139.228C113.19 139.306 113.253 139.368 113.33 139.368Z" fill="#3F3D56"/>
<path d="M110.467 139.368H111.619C111.696 139.368 111.759 139.306 111.759 139.228V138.649C111.759 138.572 111.696 138.509 111.619 138.509H110.467C110.39 138.509 110.327 138.572 110.327 138.649V139.228C110.327 139.306 110.39 139.368 110.467 139.368Z" fill="#3F3D56"/>
<path d="M107.604 139.368H108.756C108.833 139.368 108.896 139.306 108.896 139.228V138.649C108.896 138.572 108.833 138.509 108.756 138.509H107.604C107.526 138.509 107.464 138.572 107.464 138.649V139.228C107.464 139.306 107.526 139.368 107.604 139.368Z" fill="#3F3D56"/>
<path d="M104.74 139.368H105.893C105.97 139.368 106.032 139.306 106.032 139.228V138.649C106.032 138.572 105.97 138.509 105.893 138.509H104.74C104.663 138.509 104.601 138.572 104.601 138.649V139.228C104.601 139.306 104.663 139.368 104.74 139.368Z" fill="#3F3D56"/>
<path d="M101.878 139.368H103.03C103.107 139.368 103.169 139.306 103.169 139.228V138.649C103.169 138.572 103.107 138.509 103.03 138.509H101.878C101.8 138.509 101.738 138.572 101.738 138.649V139.228C101.738 139.306 101.8 139.368 101.878 139.368Z" fill="#3F3D56"/>
<path d="M121.061 141.086H132.235C132.312 141.086 132.375 141.024 132.375 140.947V140.367C132.375 140.29 132.312 140.227 132.235 140.227H121.061C120.984 140.227 120.922 140.29 120.922 140.367V140.947C120.922 141.024 120.984 141.086 121.061 141.086Z" fill="#3F3D56"/>
<path d="M89.3621 71.0464H162.467C162.544 71.0464 162.618 71.0157 162.673 70.9612C162.727 70.9067 162.758 70.8327 162.758 70.7556C162.758 70.6785 162.727 70.6045 162.673 70.55C162.618 70.4955 162.544 70.4648 162.467 70.4648H89.3621C89.2849 70.4648 89.211 70.4955 89.1564 70.55C89.1019 70.6045 89.0713 70.6785 89.0713 70.7556C89.0713 70.8327 89.1019 70.9067 89.1564 70.9612C89.211 71.0157 89.2849 71.0464 89.3621 71.0464Z" fill="#3F3D56"/>
<path d="M157.49 68.9805C158.431 68.9805 159.194 68.2007 159.194 67.2388C159.194 66.2769 158.431 65.4971 157.49 65.4971C156.549 65.4971 155.787 66.2769 155.787 67.2388C155.787 68.2007 156.549 68.9805 157.49 68.9805Z" fill="#3F3D56"/>
<path d="M151.605 68.9805C152.546 68.9805 153.309 68.2007 153.309 67.2388C153.309 66.2769 152.546 65.4971 151.605 65.4971C150.664 65.4971 149.901 66.2769 149.901 67.2388C149.901 68.2007 150.664 68.9805 151.605 68.9805Z" fill="#3F3D56"/>
<path d="M145.719 68.9805C146.66 68.9805 147.423 68.2007 147.423 67.2388C147.423 66.2769 146.66 65.4971 145.719 65.4971C144.778 65.4971 144.016 66.2769 144.016 67.2388C144.016 68.2007 144.778 68.9805 145.719 68.9805Z" fill="#3F3D56"/>
<path d="M92.5938 66.2456C92.5938 66.3286 92.6265 66.4083 92.685 66.4673C92.7434 66.5262 92.8228 66.5598 92.9059 66.5605H97.0862C97.1701 66.5605 97.2506 66.5272 97.3099 66.4678C97.3692 66.4085 97.4026 66.328 97.4026 66.2441C97.4026 66.1602 97.3692 66.0797 97.3099 66.0204C97.2506 65.9611 97.1701 65.9277 97.0862 65.9277H92.9059C92.8645 65.9281 92.8236 65.9366 92.7855 65.9528C92.7475 65.969 92.713 65.9925 92.684 66.022C92.655 66.0515 92.6321 66.0865 92.6166 66.1248C92.6012 66.1632 92.5934 66.2042 92.5938 66.2456Z" fill="#3F3D56"/>
<path d="M92.5938 67.4335C92.5938 67.5166 92.6265 67.5963 92.685 67.6552C92.7434 67.7142 92.8228 67.7477 92.9059 67.7485H97.0862C97.1701 67.7485 97.2506 67.7152 97.3099 67.6558C97.3692 67.5965 97.4026 67.516 97.4026 67.4321C97.4026 67.3482 97.3692 67.2677 97.3099 67.2084C97.2506 67.1491 97.1701 67.1157 97.0862 67.1157H92.9059C92.8645 67.1161 92.8236 67.1246 92.7855 67.1408C92.7475 67.157 92.713 67.1805 92.684 67.21C92.655 67.2395 92.6321 67.2744 92.6166 67.3128C92.6012 67.3511 92.5934 67.3922 92.5938 67.4335Z" fill="#3F3D56"/>
<path d="M92.5938 68.6192C92.5934 68.6605 92.6012 68.7015 92.6166 68.7399C92.6321 68.7783 92.655 68.8132 92.684 68.8427C92.713 68.8722 92.7475 68.8957 92.7855 68.9119C92.8236 68.9281 92.8645 68.9366 92.9059 68.937H97.0862C97.1701 68.937 97.2506 68.9036 97.3099 68.8443C97.3692 68.785 97.4026 68.7045 97.4026 68.6206C97.4026 68.5367 97.3692 68.4562 97.3099 68.3969C97.2506 68.3375 97.1701 68.3042 97.0862 68.3042H92.9059C92.8228 68.305 92.7434 68.3385 92.685 68.3974C92.6265 68.4564 92.5938 68.5361 92.5938 68.6192Z" fill="#3F3D56"/>
<path d="M93.8862 77.8022H92.3842C91.9288 77.8022 91.5596 78.1714 91.5596 78.6269C91.5596 79.0823 91.9288 79.4515 92.3842 79.4515H93.8862C94.3417 79.4515 94.7108 79.0823 94.7108 78.6269C94.7108 78.1714 94.3417 77.8022 93.8862 77.8022Z" fill="#FFBE47"/>
<path d="M111.065 77.8022H109.563C109.107 77.8022 108.738 78.1714 108.738 78.6269C108.738 79.0823 109.107 79.4515 109.563 79.4515H111.065C111.52 79.4515 111.89 79.0823 111.89 78.6269C111.89 78.1714 111.52 77.8022 111.065 77.8022Z" fill="#FFBE47"/>
<path d="M115.933 77.8022H114.431C113.975 77.8022 113.606 78.1714 113.606 78.6269C113.606 79.0823 113.975 79.4515 114.431 79.4515H115.933C116.388 79.4515 116.757 79.0823 116.757 78.6269C116.757 78.1714 116.388 77.8022 115.933 77.8022Z" fill="#FFBE47"/>
<path d="M106.392 77.665H97.0565C96.6011 77.665 96.2319 78.0342 96.2319 78.4896C96.2319 78.9451 96.6011 79.3143 97.0565 79.3143H106.392C106.848 79.3143 107.217 78.9451 107.217 78.4896C107.217 78.0342 106.848 77.665 106.392 77.665Z" fill="#FFBE47"/>
<path d="M129.298 77.665H119.962C119.507 77.665 119.138 78.0342 119.138 78.4896C119.138 78.9451 119.507 79.3143 119.962 79.3143H129.298C129.754 79.3143 130.123 78.9451 130.123 78.4896C130.123 78.0342 129.754 77.665 129.298 77.665Z" fill="#FFBE47"/>
<path d="M98.4668 81.5244H96.9647C96.5093 81.5244 96.1401 81.8936 96.1401 82.349C96.1401 82.8044 96.5093 83.1736 96.9647 83.1736H98.4668C98.9222 83.1736 99.2914 82.8044 99.2914 82.349C99.2914 81.8936 98.9222 81.5244 98.4668 81.5244Z" fill="#FFBE47"/>
<path d="M115.646 81.5244H114.144C113.689 81.5244 113.32 81.8936 113.32 82.349C113.32 82.8044 113.689 83.1736 114.144 83.1736H115.646C116.102 83.1736 116.471 82.8044 116.471 82.349C116.471 81.8936 116.102 81.5244 115.646 81.5244Z" fill="#FFBE47"/>
<path d="M120.514 81.5244H119.012C118.557 81.5244 118.188 81.8936 118.188 82.349C118.188 82.8044 118.557 83.1736 119.012 83.1736H120.514C120.97 83.1736 121.339 82.8044 121.339 82.349C121.339 81.8936 120.97 81.5244 120.514 81.5244Z" fill="#FFBE47"/>
<path d="M110.973 81.3872H101.638C101.182 81.3872 100.813 81.7564 100.813 82.2118C100.813 82.6672 101.182 83.0364 101.638 83.0364H110.973C111.429 83.0364 111.798 82.6672 111.798 82.2118C111.798 81.7564 111.429 81.3872 110.973 81.3872Z" fill="#FFBE47"/>
<path d="M133.88 81.3872H124.544C124.088 81.3872 123.719 81.7564 123.719 82.2118C123.719 82.6672 124.088 83.0364 124.544 83.0364H133.88C134.335 83.0364 134.704 82.6672 134.704 82.2118C134.704 81.7564 134.335 81.3872 133.88 81.3872Z" fill="#FFBE47"/>
<path d="M103.048 85.2466H101.546C101.091 85.2466 100.722 85.6158 100.722 86.0712C100.722 86.5266 101.091 86.8958 101.546 86.8958H103.048C103.504 86.8958 103.873 86.5266 103.873 86.0712C103.873 85.6158 103.504 85.2466 103.048 85.2466Z" fill="#FFBE47"/>
<path d="M120.228 85.2466H118.725C118.27 85.2466 117.901 85.6158 117.901 86.0712C117.901 86.5266 118.27 86.8958 118.725 86.8958H120.228C120.683 86.8958 121.052 86.5266 121.052 86.0712C121.052 85.6158 120.683 85.2466 120.228 85.2466Z" fill="#FFBE47"/>
<path d="M125.095 85.2466H123.593C123.138 85.2466 122.769 85.6158 122.769 86.0712C122.769 86.5266 123.138 86.8958 123.593 86.8958H125.095C125.551 86.8958 125.92 86.5266 125.92 86.0712C125.92 85.6158 125.551 85.2466 125.095 85.2466Z" fill="#FFBE47"/>
<path d="M115.555 85.1094H106.219C105.764 85.1094 105.395 85.4786 105.395 85.934C105.395 86.3894 105.764 86.7586 106.219 86.7586H115.555C116.01 86.7586 116.38 86.3894 116.38 85.934C116.38 85.4786 116.01 85.1094 115.555 85.1094Z" fill="#FFBE47"/>
<path d="M138.461 85.1094H129.125C128.669 85.1094 128.3 85.4786 128.3 85.934C128.3 86.3894 128.669 86.7586 129.125 86.7586H138.461C138.916 86.7586 139.285 86.3894 139.285 85.934C139.285 85.4786 138.916 85.1094 138.461 85.1094Z" fill="#FFBE47"/>
<path d="M107.629 88.9688H106.127C105.672 88.9688 105.303 89.3379 105.303 89.7934C105.303 90.2488 105.672 90.618 106.127 90.618H107.629C108.085 90.618 108.454 90.2488 108.454 89.7934C108.454 89.3379 108.085 88.9688 107.629 88.9688Z" fill="#FFBE47"/>
<path d="M124.809 88.9688H123.307C122.851 88.9688 122.482 89.3379 122.482 89.7934C122.482 90.2488 122.851 90.618 123.307 90.618H124.809C125.264 90.618 125.633 90.2488 125.633 89.7934C125.633 89.3379 125.264 88.9688 124.809 88.9688Z" fill="#FFBE47"/>
<path d="M129.676 88.9688H128.174C127.719 88.9688 127.35 89.3379 127.35 89.7934C127.35 90.2488 127.719 90.618 128.174 90.618H129.676C130.132 90.618 130.501 90.2488 130.501 89.7934C130.501 89.3379 130.132 88.9688 129.676 88.9688Z" fill="#FFBE47"/>
<path d="M120.136 88.8315H110.8C110.345 88.8315 109.976 89.2007 109.976 89.6562C109.976 90.1116 110.345 90.4808 110.8 90.4808H120.136C120.591 90.4808 120.961 90.1116 120.961 89.6562C120.961 89.2007 120.591 88.8315 120.136 88.8315Z" fill="#FFBE47"/>
<path d="M111.065 103.77H109.563C109.107 103.77 108.738 104.139 108.738 104.595C108.738 105.05 109.107 105.419 109.563 105.419H111.065C111.52 105.419 111.89 105.05 111.89 104.595C111.89 104.139 111.52 103.77 111.065 103.77Z" fill="#FFBE47"/>
<path d="M115.933 103.77H114.431C113.975 103.77 113.606 104.139 113.606 104.595C113.606 105.05 113.975 105.419 114.431 105.419H115.933C116.388 105.419 116.757 105.05 116.757 104.595C116.757 104.139 116.388 103.77 115.933 103.77Z" fill="#FFBE47"/>
<path d="M129.298 103.908H119.962C119.507 103.908 119.138 104.277 119.138 104.732C119.138 105.188 119.507 105.557 119.962 105.557H129.298C129.754 105.557 130.123 105.188 130.123 104.732C130.123 104.277 129.754 103.908 129.298 103.908Z" fill="#FFBE47"/>
<path d="M93.8862 103.77H92.3842C91.9288 103.77 91.5596 104.139 91.5596 104.595C91.5596 105.05 91.9288 105.419 92.3842 105.419H93.8862C94.3417 105.419 94.7108 105.05 94.7108 104.595C94.7108 104.139 94.3417 103.77 93.8862 103.77Z" fill="#FFBE47"/>
<path d="M106.392 103.908H97.0565C96.6011 103.908 96.2319 104.277 96.2319 104.732C96.2319 105.188 96.6011 105.557 97.0565 105.557H106.392C106.848 105.557 107.217 105.188 107.217 104.732C107.217 104.277 106.848 103.908 106.392 103.908Z" fill="#FFBE47"/>
<path d="M98.4668 100.048H96.9647C96.5093 100.048 96.1401 100.417 96.1401 100.872C96.1401 101.328 96.5093 101.697 96.9647 101.697H98.4668C98.9222 101.697 99.2914 101.328 99.2914 100.872C99.2914 100.417 98.9222 100.048 98.4668 100.048Z" fill="#FFBE47"/>
<path d="M115.646 100.048H114.144C113.689 100.048 113.32 100.417 113.32 100.872C113.32 101.328 113.689 101.697 114.144 101.697H115.646C116.102 101.697 116.471 101.328 116.471 100.872C116.471 100.417 116.102 100.048 115.646 100.048Z" fill="#FFBE47"/>
<path d="M120.514 100.048H119.012C118.557 100.048 118.188 100.417 118.188 100.872C118.188 101.328 118.557 101.697 119.012 101.697H120.514C120.97 101.697 121.339 101.328 121.339 100.872C121.339 100.417 120.97 100.048 120.514 100.048Z" fill="#FFBE47"/>
<path d="M110.973 100.185H101.638C101.182 100.185 100.813 100.554 100.813 101.01C100.813 101.465 101.182 101.834 101.638 101.834H110.973C111.429 101.834 111.798 101.465 111.798 101.01C111.798 100.554 111.429 100.185 110.973 100.185Z" fill="#FFBE47"/>
<path d="M103.048 96.3257H101.546C101.091 96.3257 100.722 96.6949 100.722 97.1503C100.722 97.6057 101.091 97.9749 101.546 97.9749H103.048C103.504 97.9749 103.873 97.6057 103.873 97.1503C103.873 96.6949 103.504 96.3257 103.048 96.3257Z" fill="#FFBE47"/>
<path d="M120.228 96.3257H118.725C118.27 96.3257 117.901 96.6949 117.901 97.1503C117.901 97.6057 118.27 97.9749 118.725 97.9749H120.228C120.683 97.9749 121.052 97.6057 121.052 97.1503C121.052 96.6949 120.683 96.3257 120.228 96.3257Z" fill="#FFBE47"/>
<path d="M125.095 96.3257H123.593C123.138 96.3257 122.769 96.6949 122.769 97.1503C122.769 97.6057 123.138 97.9749 123.593 97.9749H125.095C125.551 97.9749 125.92 97.6057 125.92 97.1503C125.92 96.6949 125.551 96.3257 125.095 96.3257Z" fill="#FFBE47"/>
<path d="M115.555 96.4629H106.219C105.764 96.4629 105.395 96.8321 105.395 97.2875C105.395 97.7429 105.764 98.1121 106.219 98.1121H115.555C116.01 98.1121 116.38 97.7429 116.38 97.2875C116.38 96.8321 116.01 96.4629 115.555 96.4629Z" fill="#FFBE47"/>
<path d="M107.629 92.6035H106.127C105.672 92.6035 105.303 92.9727 105.303 93.4281C105.303 93.8835 105.672 94.2527 106.127 94.2527H107.629C108.085 94.2527 108.454 93.8835 108.454 93.4281C108.454 92.9727 108.085 92.6035 107.629 92.6035Z" fill="#FFBE47"/>
<path d="M124.809 92.6035H123.307C122.851 92.6035 122.482 92.9727 122.482 93.4281C122.482 93.8835 122.851 94.2527 123.307 94.2527H124.809C125.264 94.2527 125.633 93.8835 125.633 93.4281C125.633 92.9727 125.264 92.6035 124.809 92.6035Z" fill="#FFBE47"/>
<path d="M129.676 92.6035H128.174C127.719 92.6035 127.35 92.9727 127.35 93.4281C127.35 93.8835 127.719 94.2527 128.174 94.2527H129.676C130.132 94.2527 130.501 93.8835 130.501 93.4281C130.501 92.9727 130.132 92.6035 129.676 92.6035Z" fill="#FFBE47"/>
<path d="M120.136 92.7407H110.8C110.345 92.7407 109.976 93.1099 109.976 93.5653C109.976 94.0208 110.345 94.3899 110.8 94.3899H120.136C120.591 94.3899 120.961 94.0208 120.961 93.5653C120.961 93.1099 120.591 92.7407 120.136 92.7407Z" fill="#FFBE47"/>
<path d="M101.164 157.231C101.101 157.262 101.038 157.294 100.975 157.322C100.577 157.52 100.176 157.715 99.7727 157.906C98.5644 158.482 97.3409 159.029 96.1021 159.547C92.8424 160.91 89.4978 162.061 86.0893 162.991C85.5167 159.421 84.9612 151 84.4287 144.807C84.3284 143.642 84.2282 142.557 84.128 141.597C84.0329 140.338 83.8521 139.087 83.5869 137.852C83.5609 137.756 83.5234 137.662 83.4752 137.575C83.5296 138.07 83.5869 139.547 83.6413 141.597C83.6699 142.557 83.6957 143.642 83.7243 144.807C83.8589 150.768 83.9992 158.88 84.1395 163.498C83.7415 163.596 83.3406 163.693 82.9398 163.785C82.6878 163.845 82.433 163.902 82.1782 163.956C81.8689 164.025 81.5597 164.094 81.2505 164.157C80.926 164.225 80.6024 164.291 80.2798 164.354C74.9926 165.393 69.6168 165.915 64.2286 165.912C63.8707 165.912 63.5156 165.909 63.1577 165.906C63.0489 165.906 62.9401 165.903 62.8284 165.9C62.5135 165.895 62.1871 165.889 61.8549 165.88C55.4874 165.704 49.1615 164.793 43.0034 163.163L43.2525 144.807L43.2955 141.597L43.3127 140.38C43.1708 140.772 43.086 141.182 43.0607 141.597C42.9605 142.379 42.8574 143.487 42.7543 144.807C42.3621 149.892 41.9583 158.095 41.5403 162.762C36.5898 161.354 32.9707 160.068 28.4468 157.806C28.2721 157.72 28.0946 157.631 27.9199 157.543C27.9514 157.322 27.9858 157.102 28.0173 156.876C28.5298 153.314 27.9256 148.678 28.4926 144.807C28.9249 141.821 29.3716 138.952 29.8211 136.518C30.3651 133.589 30.9177 131.287 31.4646 130.167C32.0945 128.876 32.7244 127.605 33.3343 126.388L34.1102 124.845C34.2477 124.573 34.3851 124.303 34.5197 124.04C35.1324 122.84 35.7108 121.732 36.2405 120.75C36.6127 120.06 36.9563 119.436 37.2712 118.889C37.6406 118.245 37.967 117.712 38.2361 117.309C40.2241 114.295 43.182 112.052 46.6197 110.949L46.7056 110.926L46.7886 110.961L46.8831 111.004L52.3404 109.008L54.777 103.141L67.2922 102.371L69.3137 103.909L70.3473 104.696L71.4496 105.535L73.4768 107.078L74.0523 107.256L74.9084 107.519L80.7637 109.317L80.8238 109.292L80.9098 109.314C84.038 110.316 86.7763 112.267 88.7435 114.898C88.9382 115.15 89.1186 115.41 89.2933 115.674C89.7686 116.378 90.4099 117.492 91.1658 118.889C91.4779 119.465 91.8072 120.089 92.1537 120.75C92.3627 121.148 94.1665 126.777 95.9217 132.527C97.5623 137.91 99.16 143.398 99.369 144.807C99.4062 145.068 99.4463 145.331 99.4835 145.592C99.7212 147.221 99.956 148.861 100.182 150.462C100.517 152.836 100.844 155.126 101.156 157.173C101.159 157.193 101.161 157.211 101.164 157.231Z" fill="#FFBE47"/>
<path opacity="0.2" d="M87.901 136.505L85.4672 127.116L83.3198 135.219L87.901 136.505Z" fill="black"/>
<path d="M5.5082 136.396C5.63434 136.764 5.87363 137.081 6.1917 137.304C6.50977 137.527 6.89027 137.643 7.27855 137.636L14.8638 137.441C15.255 137.434 15.6331 137.3 15.9418 137.059C16.2505 136.819 16.4731 136.485 16.5763 136.108L17.6497 124.63C18.0306 124.802 18.4452 124.888 18.8632 124.879C19.5966 124.861 20.2927 124.552 20.7983 124.02C21.3039 123.489 21.5776 122.778 21.5592 122.044C21.5408 121.311 21.2318 120.615 20.7001 120.109C20.1685 119.604 19.4578 119.33 18.7243 119.348C18.5573 119.348 18.3906 119.365 18.2273 119.4C18.0495 119.208 17.8335 119.055 17.5931 118.952C17.3528 118.848 17.0934 118.796 16.8317 118.799L5.16376 119.1C5.06699 119.104 4.97071 119.116 4.87601 119.136C4.62013 119.184 4.37745 119.286 4.16429 119.435C3.95113 119.584 3.77245 119.778 3.64025 120.002C3.50805 120.226 3.42542 120.476 3.3979 120.735C3.37039 120.994 3.39864 121.255 3.48075 121.502L5.5082 136.396ZM17.8696 123.851L18.6335 121.115C18.7204 120.799 18.7224 120.466 18.6393 120.149C18.6762 120.149 18.7091 120.131 18.7461 120.131C19.0058 120.125 19.2643 120.17 19.5066 120.264C19.7489 120.358 19.9704 120.498 20.1584 120.678C20.3463 120.857 20.4972 121.072 20.6022 121.309C20.7072 121.547 20.7644 121.803 20.7705 122.063C20.7766 122.323 20.7315 122.581 20.6377 122.823C20.5439 123.066 20.4033 123.287 20.224 123.475C20.0446 123.663 19.8299 123.814 19.5923 123.919C19.3546 124.024 19.0986 124.081 18.8388 124.087C18.5002 124.098 18.1651 124.016 17.8696 123.851Z" fill="#090814"/>
<path d="M4.87646 119.135C5.12499 120.556 7.91979 121.555 11.2804 121.381C14.3707 121.238 16.8972 120.154 17.3602 118.868C17.1889 118.817 17.0108 118.793 16.8322 118.797L5.16422 119.099C5.06744 119.102 4.97116 119.114 4.87646 119.135Z" fill="#090814"/>
<path d="M12.8473 129.627C12.8668 129.622 12.8852 129.614 12.902 129.603L14.9867 128.238C15.0119 128.222 15.0326 128.199 15.0469 128.173C15.0612 128.146 15.0687 128.117 15.0687 128.087C15.0687 128.057 15.0612 128.027 15.0469 128.001C15.0326 127.974 15.0119 127.952 14.9867 127.935L12.8198 126.516C12.7797 126.49 12.7307 126.48 12.6837 126.49C12.6367 126.5 12.5955 126.528 12.5691 126.568C12.5428 126.608 12.5336 126.657 12.5434 126.704C12.5532 126.751 12.5812 126.793 12.6214 126.819L14.5567 128.086L12.7036 129.3C12.6679 129.323 12.6417 129.358 12.6296 129.399C12.6175 129.44 12.6202 129.484 12.6373 129.523C12.6545 129.563 12.6849 129.594 12.7232 129.613C12.7615 129.632 12.8053 129.637 12.8467 129.627H12.8473Z" fill="#F2F2F2"/>
<path d="M9.55447 129.779C9.58942 129.77 9.62093 129.751 9.64496 129.724C9.66899 129.697 9.68445 129.664 9.68937 129.628C9.69429 129.592 9.68844 129.556 9.67257 129.523C9.6567 129.491 9.63153 129.464 9.60029 129.446L7.67849 128.344L9.53586 126.965C9.5744 126.936 9.59999 126.893 9.607 126.846C9.614 126.798 9.60186 126.75 9.57323 126.711C9.5446 126.673 9.50183 126.647 9.45434 126.64C9.40685 126.633 9.35851 126.645 9.31997 126.674L7.24041 128.219C7.2162 128.236 7.19684 128.26 7.18407 128.287C7.17131 128.315 7.16554 128.345 7.1673 128.375C7.16907 128.405 7.1783 128.434 7.19416 128.46C7.21003 128.485 7.23203 128.506 7.25816 128.521L9.4199 129.76C9.46069 129.784 9.50894 129.79 9.55447 129.779Z" fill="#F2F2F2"/>
<path d="M12.6402 130.822C12.6577 130.818 12.6744 130.811 12.6897 130.801C12.7101 130.789 12.7278 130.773 12.7418 130.754C12.7559 130.734 12.766 130.713 12.7717 130.689C12.7773 130.666 12.7783 130.642 12.7747 130.619C12.771 130.595 12.7628 130.573 12.7504 130.552L9.79499 125.693C9.7826 125.673 9.76633 125.655 9.74711 125.641C9.72788 125.627 9.70608 125.617 9.68295 125.612C9.65982 125.606 9.63581 125.605 9.61229 125.609C9.58878 125.612 9.56621 125.621 9.54589 125.633C9.52556 125.645 9.50788 125.662 9.49385 125.681C9.47981 125.7 9.4697 125.722 9.46409 125.745C9.45848 125.768 9.45748 125.792 9.46115 125.816C9.46482 125.839 9.47308 125.862 9.48547 125.882L12.4409 130.741C12.4611 130.774 12.4916 130.8 12.5277 130.815C12.5638 130.829 12.6036 130.832 12.6413 130.822H12.6402Z" fill="#F2F2F2"/>
<path d="M225.783 157.541C225.608 157.63 225.431 157.719 225.256 157.805C220.732 160.067 217.113 161.352 212.163 162.761C211.744 158.094 211.341 149.891 210.948 144.806C210.845 143.486 210.742 142.378 210.642 141.596C210.617 141.18 210.532 140.77 210.39 140.379L210.407 141.596L210.45 144.806L210.699 163.162C204.541 164.791 198.215 165.703 191.848 165.879C191.516 165.888 191.189 165.893 190.874 165.899C190.763 165.902 190.654 165.905 190.545 165.905C190.187 165.908 189.832 165.91 189.474 165.91C182.764 165.915 176.078 165.105 169.563 163.497C169.704 158.878 169.844 150.767 169.979 144.806C170.007 143.64 170.033 142.555 170.062 141.596C170.116 139.546 170.173 138.068 170.228 137.573C170.179 137.661 170.142 137.754 170.116 137.851C169.851 139.085 169.67 140.337 169.575 141.596C169.475 142.555 169.374 143.64 169.274 144.806C168.742 150.999 168.186 159.42 167.613 162.99C164.205 162.059 160.86 160.909 157.601 159.546C155.883 158.83 154.195 158.058 152.539 157.229C152.854 155.168 153.183 152.857 153.521 150.46C153.784 148.602 154.056 146.692 154.334 144.806C154.763 141.891 169.354 110.415 172.793 109.313L172.879 109.29L172.939 109.316L178.794 107.518L179.651 107.254L180.226 107.077L182.253 105.533L183.356 104.695L184.389 103.907L186.411 102.37L198.926 103.14L201.362 109.007L206.82 111.002L206.914 110.959L206.997 110.925L207.083 110.948C210.521 112.05 213.479 114.294 215.467 117.307C215.736 117.711 216.062 118.243 216.432 118.888C216.747 119.434 217.09 120.059 217.462 120.749C217.992 121.731 218.57 122.839 219.183 124.039C219.318 124.302 219.455 124.571 219.593 124.843C219.847 125.347 220.106 125.861 220.369 126.386C220.978 127.603 221.608 128.875 222.238 130.166C222.785 131.285 223.338 133.587 223.882 136.517C224.331 138.95 224.778 141.819 225.21 144.806C225.777 148.677 225.173 153.312 225.686 156.874C225.717 157.101 225.751 157.322 225.783 157.541Z" fill="#FFBE47"/>
<path d="M189.077 100.265C197.116 100.265 203.633 93.7481 203.633 85.7093C203.633 77.6705 197.116 71.1538 189.077 71.1538C181.039 71.1538 174.522 77.6705 174.522 85.7093C174.522 93.7481 181.039 100.265 189.077 100.265Z" fill="#FFB9B9"/>
<path opacity="0.2" d="M165.801 136.505L168.235 127.116L170.382 135.219L165.801 136.505Z" fill="black"/>
<path d="M230.541 130.388C229.671 142.379 230.573 147.659 225.768 157.545C221.397 159.685 216.843 161.431 212.162 162.762C211.675 162.9 211.188 163.033 210.699 163.163C204.541 164.792 198.215 165.704 191.847 165.88C191.515 165.889 191.189 165.895 190.874 165.9C190.762 165.903 190.653 165.906 190.545 165.906C190.187 165.909 189.832 165.912 189.474 165.912C182.764 165.917 176.078 165.106 169.563 163.498C168.91 163.338 168.26 163.169 167.613 162.991C164.205 162.061 160.86 160.91 157.6 159.547C155.882 158.831 154.195 158.059 152.538 157.23C152.163 157.041 151.788 156.852 151.419 156.658C149.52 153.319 148.441 149.259 148.418 144.38C149.732 135.974 227.638 123.138 230.541 130.388Z" fill="#E6E6E6"/>
<path opacity="0.2" d="M230.539 132.441C230.583 131.699 230.633 130.932 230.691 130.133C227.788 122.883 149.882 135.719 148.568 144.126C148.572 144.897 148.605 145.643 148.66 146.375C151.843 138.077 225.854 125.878 230.539 132.441Z" fill="black"/>
<path d="M149.366 139.097L155.761 135.9L150.432 121.512L149.029 114.256C148.847 113.313 148.42 112.435 147.792 111.709C147.164 110.983 146.356 110.434 145.449 110.118C144.543 109.802 143.569 109.729 142.626 109.907C141.682 110.085 140.802 110.508 140.073 111.133C138.992 112.059 138.314 113.368 138.181 114.785C138.048 116.202 138.47 117.614 139.359 118.726L144.572 125.242L149.366 139.097Z" fill="#FFB9B9"/>
<path d="M152.875 125.091L144.349 129.354L150.82 149.629C151.285 151.085 152.118 152.396 153.238 153.435C154.359 154.474 155.729 155.206 157.215 155.56C159.049 155.996 160.973 155.838 162.71 155.107C164.447 154.376 165.906 153.11 166.875 151.494L184.032 122.086C185.248 120.059 185.623 117.637 185.078 115.338C184.532 113.038 183.109 111.043 181.112 109.779C180.038 109.099 178.833 108.652 177.575 108.469C176.317 108.285 175.035 108.368 173.811 108.713C172.588 109.058 171.45 109.656 170.474 110.47C169.497 111.283 168.702 112.293 168.141 113.434L157.671 135.749L152.875 125.091Z" fill="#FFBE47"/>
<path d="M60.9632 99.2605C69.8083 99.2605 76.9787 92.0901 76.9787 83.245C76.9787 74.3999 69.8083 67.2295 60.9632 67.2295C52.1181 67.2295 44.9478 74.3999 44.9478 83.245C44.9478 92.0901 52.1181 99.2605 60.9632 99.2605Z" fill="#FFB9B9"/>
<path d="M45.1399 72.2086C46.4421 70.4535 48.3138 69.2057 49.7454 67.5544C50.5308 66.6485 51.183 65.6218 52.0664 64.8109C53.707 63.304 56.0016 62.6864 58.228 62.6096C60.6681 62.5468 63.0886 63.0594 65.2938 64.1059C67.4989 65.1524 69.4267 66.7034 70.921 68.6333L74.4124 66.5864L75.7917 70.217C76.169 69.889 76.6503 69.7053 77.1501 69.6983C77.65 69.6913 78.1362 69.8615 78.5226 70.1787C78.909 70.4959 79.1706 70.9397 79.2611 71.4314C79.3515 71.9231 79.265 72.4309 79.0168 72.8649C79.2937 72.0091 80.5629 71.8275 81.2621 72.3927C81.9613 72.9579 82.1498 73.9641 82.0352 74.8551C81.8919 75.834 81.4592 76.7476 80.7926 77.4785C80.1259 78.2095 79.256 78.7244 78.2944 78.957C76.7769 79.2954 75.0083 78.9398 73.7925 79.911C72.819 80.6898 72.5238 82.1077 71.5306 82.8601C70.3051 83.7878 68.5732 83.3589 67.0496 83.5639C64.3845 83.9227 62.2743 86.6485 62.5944 89.319C62.3534 88.4766 62.1 87.6097 61.5525 86.9253C61.0051 86.241 60.0834 85.778 59.2442 86.0297C57.8567 86.4457 57.6296 88.3369 57.966 89.7456C58.8579 93.4821 62.2377 99.5218 62.2377 99.5218C57.8489 101.253 52.6204 99.616 49.2343 96.3311C45.8483 93.0461 44.0845 88.3945 43.3163 83.7397C42.6638 79.7936 42.7563 75.4215 45.1399 72.2086Z" fill="#090814"/>
<path d="M207.319 93.7332C210.366 86.7469 208.639 80.3189 204.925 76.9088V76.906C203.465 73.6333 201.523 71.1079 199.301 70.5152C198.228 69.8252 197.186 69.0149 196.029 68.6026C195.49 68.4009 194.916 68.3103 194.341 68.3364C193.766 68.3625 193.203 68.5047 192.685 68.7543L192.095 68.5969C190.792 68.4105 192.063 68.7059 190.354 68.133C187.84 66.962 185.575 66.438 183.559 66.438C176.985 66.438 173.097 72.0041 172.066 78.7327L177.561 80.1958L179.471 77.1522L178.589 80.4707L181.621 81.2753C186.237 87.2852 180.713 101.149 173.713 108.862C175.379 108.402 177.039 108.012 178.692 107.694L184.699 98.887L180.977 106.904C182.909 106.621 185.375 106.893 188.069 107.439C188.977 106.254 189.455 104.674 188.985 103.265C189.753 104.751 190.282 106.348 190.554 107.998C196.241 109.386 203.997 110.099 208.177 110.626C211.555 109.525 211.564 97.0717 207.319 93.7332Z" fill="#090814"/>
<path d="M209.301 69.9703C211.532 74.9675 207.029 77.1169 202.904 77.0562C199.176 77.0013 196.008 74.3825 195.818 70.6595C195.727 68.8716 196.349 67.1206 197.549 65.7918C198.748 64.4629 200.427 63.665 202.215 63.5736C205.938 63.3832 207.782 66.5665 209.301 69.9703Z" fill="#090814"/>
<path d="M105.546 152.779L101.697 146.143L114.495 136.107L119.816 130.3C120.494 129.55 121.362 128.997 122.328 128.698C123.293 128.4 124.322 128.367 125.305 128.604C126.295 128.854 127.202 129.36 127.935 130.071C128.669 130.782 129.202 131.673 129.482 132.656C130.383 135.719 128.773 138.968 125.842 140.002L117.574 142.92L105.546 152.779Z" fill="#FFB9B9"/>
<path d="M108.423 151.118L102.699 155.888L101.156 157.174L100.975 157.323C100.577 157.52 100.176 157.715 99.7727 157.907C98.5644 158.482 97.3409 159.029 96.102 159.547C92.8424 160.911 89.4978 162.061 86.0893 162.992C85.4422 163.169 84.7923 163.338 84.1395 163.499C83.7415 163.596 83.3406 163.693 82.9398 163.785C82.6878 163.845 82.433 163.902 82.1781 163.957C81.8689 164.025 81.5597 164.094 81.2505 164.157C80.926 164.226 80.6024 164.292 80.2798 164.355C79.4092 163.526 78.7161 162.53 78.2426 161.425C77.7691 160.321 77.5251 159.131 77.5254 157.93C77.5254 157.852 77.5254 157.772 77.5283 157.692L78.4474 134.119L78.8539 123.671C78.9166 121.308 79.9008 119.064 81.5962 117.417C83.2917 115.77 85.5639 114.852 87.9275 114.858C88.2024 114.858 88.4744 114.872 88.7435 114.898C88.9382 115.15 89.1186 115.411 89.2933 115.674C89.7686 116.378 90.4099 117.492 91.1658 118.889C91.4779 119.465 91.8072 120.089 92.1536 120.75C92.3627 121.148 94.1665 126.778 95.9217 132.527L95.1486 138.531L93.7513 149.354L99.4835 145.592L103.521 142.941L103.999 143.739L105.244 145.818L107.649 149.827L108.423 151.118Z" fill="#FFBE47"/>
<path d="M105.284 144.381C105.281 144.868 105.27 145.346 105.244 145.818C105.185 147.121 105.033 148.419 104.792 149.701C104.397 151.853 103.692 153.938 102.699 155.888C102.567 156.149 102.427 156.406 102.284 156.658C101.914 156.853 101.539 157.042 101.164 157.231C101.101 157.262 101.038 157.294 100.975 157.323C99.3804 158.116 97.756 158.857 96.102 159.547C92.8423 160.911 89.4977 162.061 86.0892 162.992C85.4422 163.169 84.7922 163.338 84.1394 163.499C82.8652 163.814 81.5787 164.099 80.2797 164.355C74.9925 165.393 69.6167 165.915 64.2285 165.912C63.8706 165.912 63.5155 165.909 63.1576 165.907C63.0488 165.907 62.94 165.904 62.8283 165.901C62.5134 165.895 62.187 165.889 61.8548 165.881C55.4873 165.705 49.1614 164.793 43.0033 163.164C42.5137 163.035 42.026 162.901 41.5402 162.763C36.8589 161.431 32.3056 159.686 27.9341 157.546C23.1296 147.659 24.0316 142.379 23.1611 130.388C24.9478 125.924 55.1749 129.077 78.4473 134.119C84.7636 135.488 90.5645 136.997 95.1485 138.531C99.8843 140.115 103.317 141.724 104.663 143.235C104.977 143.548 105.193 143.947 105.284 144.381Z" fill="#E6E6E6"/>
<path opacity="0.2" d="M23.1628 132.441C23.1184 131.699 23.0686 130.932 23.0107 130.133C25.9141 122.883 103.82 135.719 105.134 144.126C105.13 144.897 105.097 145.643 105.042 146.375C101.859 138.077 27.8476 125.878 23.1628 132.441Z" fill="black"/>
</svg>
