<svg width="569" height="390" viewBox="0 0 569 390" fill="none" xmlns="http://www.w3.org/2000/svg">
<ellipse cx="274.887" cy="195.331" rx="217.313" ry="194.5" fill="#292929"/>
<path d="M159.668 252.304L124.403 250.058L125.33 225.478L150.208 227.596C148.775 233.49 149.298 244.432 159.668 252.304Z" fill="#FFB8B8"/>
<path d="M281.54 67.4511C291.052 67.4511 298.763 59.4645 298.763 49.6125C298.763 39.7605 291.052 31.7739 281.54 31.7739C272.028 31.7739 264.317 39.7605 264.317 49.6125C264.317 59.4645 272.028 67.4511 281.54 67.4511Z" fill="#FD6584"/>
<path d="M320.086 41.1656C319.601 39.5161 318.66 38.0496 317.38 36.9469C316.099 35.8441 314.536 35.1531 312.881 34.9591C312.843 34.9557 312.804 34.9557 312.765 34.9591C312.719 34.9441 312.671 34.9329 312.623 34.9257C306.857 34.1507 300.445 36.0347 296.13 40.1368C294.528 41.6355 293.247 43.4653 292.369 45.5082C291.569 44.3765 290.515 43.4638 289.298 42.8491C288.081 42.2345 286.737 41.9364 285.384 41.9807C283.638 42.1003 281.97 42.7745 280.608 43.9115C279.246 45.0485 278.256 46.5929 277.772 48.3342C277.719 48.5469 277.734 48.7718 277.814 48.9753C277.894 49.1787 278.035 49.3499 278.217 49.4633C278.736 49.9228 279.353 50.248 280.017 50.4119C281.442 50.7259 282.881 51.0132 284.319 51.2738C287.132 51.7815 289.959 52.1935 292.801 52.5097C294.678 52.7168 296.56 52.8816 298.445 53.0041C302.341 53.258 306.257 53.3181 310.159 53.1912C312.094 53.1244 313.952 53.0576 315.719 52.1757C317.007 51.5196 318.108 50.5272 318.912 49.2962C319.67 48.1122 320.167 46.7705 320.37 45.3658C320.573 43.9611 320.476 42.5274 320.086 41.1656Z" fill="#F2F2F2"/>
<path d="M284.653 67.1546C284.62 66.4071 284.499 65.6667 284.292 64.9499C283.804 63.3005 282.861 61.8345 281.58 60.7319C280.299 59.6294 278.735 58.9383 277.08 58.7434C277.044 58.74 277.007 58.74 276.971 58.7434C276.922 58.729 276.872 58.7179 276.822 58.71C273.631 58.305 270.392 58.6498 267.347 59.7188C262.664 61.3422 258.555 64.6158 256.575 69.2925C255.774 68.16 254.718 67.2469 253.5 66.6322C252.282 66.0176 250.937 65.7199 249.582 65.765C247.837 65.8845 246.169 66.5588 244.807 67.6958C243.445 68.8328 242.455 70.3772 241.971 72.1185C241.921 72.3312 241.937 72.555 242.017 72.7578C242.097 72.9605 242.236 73.1319 242.416 73.2475C242.936 73.7058 243.552 74.0308 244.216 74.1962C245.648 74.5102 247.08 74.7975 248.525 75.0581C251.337 75.5658 254.162 75.9778 257 76.294C262.766 76.9351 268.568 77.1628 274.365 76.9755C276.293 76.9086 278.157 76.8418 279.925 75.96C281.211 75.3037 282.309 74.3112 283.111 73.0805C284.242 71.3353 284.784 69.2519 284.653 67.1546Z" fill="#F2F2F2"/>
<path d="M475.047 320.8H408.365C408.001 315.269 408.033 309.718 408.461 304.192C411.126 270.057 429.057 237.539 456.109 217.848C452.652 230.602 454.431 243.282 458.029 256.011C457.525 256.184 457.021 256.334 456.565 256.532C452.913 257.934 449.561 260.062 446.7 262.798C445.907 263.569 445.068 264.687 445.474 265.756C445.834 266.651 446.914 266.949 447.85 267.148C450.108 267.596 452.365 268.044 454.595 268.466C456.396 268.839 458.196 269.187 459.996 269.559C460.835 269.708 461.673 269.883 462.516 270.057C462.636 270.355 462.71 270.628 462.829 270.902C467.053 282.959 471.662 295.116 473.822 307.473C474.357 310.573 474.726 313.702 474.927 316.845C475.002 318.163 475.047 319.482 475.047 320.8Z" fill="#F2F2F2"/>
<path d="M170.985 275.551C159.655 282.687 152.454 293.723 146.573 306.083C141.456 307.291 136.731 309.862 132.867 313.541C132.051 314.312 131.211 315.431 131.641 316.5C132.001 317.395 133.082 317.693 134.018 317.892C136.25 318.34 138.533 318.787 140.763 319.21C140.547 319.732 140.331 320.278 140.118 320.801H65.2256C68.6253 316.052 72.3901 311.595 76.4833 307.474C77.3716 306.554 78.2836 305.684 79.2196 304.789C88.7664 295.853 99.7285 288.687 111.625 283.606C130.366 275.492 150.859 272.711 170.986 275.551H170.985Z" fill="#F2F2F2"/>
<path d="M325.954 291.804L385.536 297.282L386.174 297.342V34.022L385.536 33.561C373.118 24.565 359.686 17.1746 345.537 11.5542L342.493 55.0467L342.215 59.0285L339.203 102.16L338.274 115.428L326.064 290.267L325.954 291.804Z" fill="#F2F2F2"/>
<path d="M178.61 29.1184C178.184 29.399 177.758 29.6796 177.333 29.9735V297.342L178.61 297.222L237.546 291.803L237.437 290.267L225.226 115.429L224.297 102.16L221.285 59.0286L221.008 55.0468L217.815 9.43652C204.046 14.3799 190.887 20.9861 178.61 29.1184Z" fill="#F2F2F2"/>
<path d="M177.332 29.9733C176.474 30.5479 175.616 31.1358 174.771 31.7304V300.99C174.771 307.717 178.622 313.356 183.77 314.792C184.611 315.028 185.478 315.147 186.35 315.146H377.796C378.665 315.148 379.53 315.029 380.369 314.792C382.283 314.242 384.017 313.167 385.388 311.679C388.002 308.785 389.431 304.953 389.374 300.99V36.4137C388.316 35.6053 387.252 34.8036 386.175 34.0219L385.536 33.561V300.99C385.537 301.856 385.438 302.72 385.239 303.562C384.33 307.537 381.33 310.45 377.796 310.45H186.35C182.08 310.45 178.609 306.207 178.609 300.99V29.1182C178.184 29.3988 177.758 29.6794 177.332 29.9733Z" fill="#F2F2F2"/>
<path d="M387.454 55.0493H176.688V59.0304H387.454V55.0493Z" fill="#F2F2F2"/>
<path d="M322.903 4.26523C321.626 3.93786 320.349 3.63054 319.059 3.34326V111.446H322.903V4.26523Z" fill="#F2F2F2"/>
<path d="M245.087 2.00049C243.803 2.24768 242.519 2.50156 241.242 2.77547V111.447H245.087V2.00049Z" fill="#F2F2F2"/>
<path d="M135.366 308.178C135.365 310.463 135.788 312.726 136.611 314.846C136.927 315.667 137.305 316.463 137.74 317.224C138.302 318.217 138.954 319.152 139.688 320.017C141.308 321.929 143.304 323.462 145.542 324.511C147.781 325.561 150.209 326.103 152.666 326.103H405.074C409.662 326.103 414.062 324.215 417.306 320.855C420.551 317.494 422.373 312.937 422.373 308.185C422.373 303.433 420.551 298.875 417.306 295.515C414.062 292.154 409.662 290.267 405.074 290.267H152.666C148.08 290.271 143.684 292.16 140.44 295.517C137.197 298.875 135.372 303.428 135.366 308.178Z" fill="#F2F2F2"/>
<path d="M176.689 115.43L386.173 115.43V102.159L176.689 102.159V115.43Z" fill="#F2F2F2"/>
<path d="M290.401 105.477H272.463C272.463 103.541 273.205 101.684 274.527 100.316C275.848 98.9467 277.641 98.1777 279.51 98.1777H283.353C284.279 98.1776 285.195 98.3664 286.05 98.7331C286.905 99.0999 287.682 99.6375 288.337 100.315C288.991 100.993 289.51 101.798 289.864 102.683C290.219 103.569 290.401 104.518 290.401 105.477Z" fill="#F2F2F2"/>
<path d="M0 318.413C5.73845 325.3 11.9349 331.763 18.544 337.754H550.458C557.067 331.763 563.263 325.3 569.002 318.413H0Z" fill="#F2F2F2"/>
<path d="M256.472 253.736V322.255H302.817V253.736C302.818 253.243 302.666 252.763 302.384 252.366C302.102 251.97 301.704 251.677 301.25 251.531C301.036 251.458 300.811 251.422 300.585 251.424H258.71C258.416 251.424 258.126 251.483 257.854 251.599C257.583 251.715 257.336 251.885 257.128 252.1C256.92 252.314 256.755 252.569 256.643 252.85C256.53 253.131 256.472 253.432 256.472 253.736ZM274.558 277.279C274.558 275.92 275.08 274.617 276.007 273.656C276.935 272.695 278.194 272.155 279.506 272.155C280.818 272.155 282.076 272.695 283.004 273.656C283.932 274.617 284.453 275.92 284.453 277.279V285.23C284.453 286.589 283.932 287.892 283.004 288.853C282.076 289.814 280.818 290.354 279.506 290.354C278.194 290.354 276.935 289.814 276.007 288.853C275.08 287.892 274.558 286.589 274.558 285.23V277.279Z" fill="#E6E6E6"/>
<path d="M256.33 320.063V326.671C256.331 327.013 256.462 327.341 256.695 327.584C256.928 327.827 257.244 327.964 257.574 327.967H301.714C302.045 327.965 302.362 327.828 302.595 327.585C302.828 327.342 302.959 327.013 302.959 326.671V320.063H256.33Z" fill="#3F3D56"/>
<path d="M183.563 150.503V275.607C183.565 277.201 184.177 278.729 185.265 279.857C186.354 280.984 187.829 281.618 189.369 281.619H368.365C369.905 281.618 371.381 280.984 372.469 279.857C373.557 278.729 374.169 277.201 374.171 275.607V150.503C374.167 148.91 373.554 147.384 372.466 146.258C371.378 145.132 369.903 144.499 368.365 144.497H189.369C187.831 144.499 186.356 145.132 185.268 146.258C184.18 147.384 183.567 148.91 183.563 150.503Z" fill="#3F3D56"/>
<path d="M187.762 152.06V274.066C187.764 274.918 188.091 275.734 188.672 276.336C189.254 276.939 190.042 277.278 190.865 277.279H366.875C367.697 277.278 368.485 276.939 369.067 276.336C369.648 275.734 369.976 274.918 369.977 274.066V152.06C369.977 151.207 369.65 150.389 369.069 149.785C368.487 149.181 367.698 148.841 366.875 148.839H190.865C190.041 148.841 189.252 149.181 188.671 149.785C188.089 150.389 187.762 151.207 187.762 152.06Z" fill="#F2F2F2"/>
<path d="M223.652 329.521C223.831 329.754 224.059 329.942 224.318 330.07C224.577 330.198 224.861 330.264 225.148 330.263H329.863C330.149 330.262 330.432 330.196 330.691 330.068C330.949 329.941 331.177 329.755 331.357 329.524C331.538 329.294 331.666 329.025 331.733 328.737C331.801 328.448 331.805 328.148 331.746 327.858L330.121 319.861C330.054 319.535 329.909 319.231 329.699 318.978C329.489 318.725 329.222 318.53 328.921 318.411C328.703 318.322 328.471 318.277 328.237 318.277H226.767C226.534 318.277 226.302 318.322 226.084 318.411C225.783 318.53 225.516 318.725 225.306 318.978C225.096 319.231 224.951 319.535 224.884 319.861L223.259 327.858C223.201 328.148 223.206 328.448 223.274 328.735C223.342 329.023 223.471 329.292 223.652 329.521Z" fill="#2F2E41"/>
<path d="M324.584 321.724H327.179C327.353 321.724 327.494 321.578 327.494 321.398V320.046C327.494 319.866 327.353 319.72 327.179 319.72H324.584C324.41 319.72 324.269 319.866 324.269 320.046V321.398C324.269 321.578 324.41 321.724 324.584 321.724Z" fill="#3F3D56"/>
<path d="M318.134 321.724H320.729C320.903 321.724 321.044 321.578 321.044 321.398V320.046C321.044 319.866 320.903 319.72 320.729 319.72H318.134C317.96 319.72 317.819 319.866 317.819 320.046V321.398C317.819 321.578 317.96 321.724 318.134 321.724Z" fill="#3F3D56"/>
<path d="M311.683 321.724H314.278C314.452 321.724 314.593 321.578 314.593 321.398V320.046C314.593 319.866 314.452 319.72 314.278 319.72H311.683C311.509 319.72 311.368 319.866 311.368 320.046V321.398C311.368 321.578 311.509 321.724 311.683 321.724Z" fill="#3F3D56"/>
<path d="M305.233 321.724H307.828C308.002 321.724 308.143 321.578 308.143 321.398V320.046C308.143 319.866 308.002 319.72 307.828 319.72H305.233C305.059 319.72 304.918 319.866 304.918 320.046V321.398C304.918 321.578 305.059 321.724 305.233 321.724Z" fill="#3F3D56"/>
<path d="M298.782 321.724H301.378C301.551 321.724 301.692 321.578 301.692 321.398V320.046C301.692 319.866 301.551 319.72 301.378 319.72H298.782C298.608 319.72 298.467 319.866 298.467 320.046V321.398C298.467 321.578 298.608 321.724 298.782 321.724Z" fill="#3F3D56"/>
<path d="M292.332 321.724H294.927C295.101 321.724 295.242 321.578 295.242 321.398V320.046C295.242 319.866 295.101 319.72 294.927 319.72H292.332C292.158 319.72 292.017 319.866 292.017 320.046V321.398C292.017 321.578 292.158 321.724 292.332 321.724Z" fill="#3F3D56"/>
<path d="M285.882 321.724H288.477C288.651 321.724 288.792 321.578 288.792 321.398V320.046C288.792 319.866 288.651 319.72 288.477 319.72H285.882C285.708 319.72 285.567 319.866 285.567 320.046V321.398C285.567 321.578 285.708 321.724 285.882 321.724Z" fill="#3F3D56"/>
<path d="M279.431 321.724H282.027C282.201 321.724 282.342 321.578 282.342 321.398V320.046C282.342 319.866 282.201 319.72 282.027 319.72H279.431C279.258 319.72 279.117 319.866 279.117 320.046V321.398C279.117 321.578 279.258 321.724 279.431 321.724Z" fill="#3F3D56"/>
<path d="M272.981 321.724H275.576C275.75 321.724 275.891 321.578 275.891 321.398V320.046C275.891 319.866 275.75 319.72 275.576 319.72H272.981C272.807 319.72 272.666 319.866 272.666 320.046V321.398C272.666 321.578 272.807 321.724 272.981 321.724Z" fill="#3F3D56"/>
<path d="M266.531 321.724H269.127C269.3 321.724 269.441 321.578 269.441 321.398V320.046C269.441 319.866 269.3 319.72 269.127 319.72H266.531C266.357 319.72 266.216 319.866 266.216 320.046V321.398C266.216 321.578 266.357 321.724 266.531 321.724Z" fill="#3F3D56"/>
<path d="M260.08 321.724H262.676C262.85 321.724 262.991 321.578 262.991 321.398V320.046C262.991 319.866 262.85 319.72 262.676 319.72H260.08C259.906 319.72 259.766 319.866 259.766 320.046V321.398C259.766 321.578 259.906 321.724 260.08 321.724Z" fill="#3F3D56"/>
<path d="M253.63 321.724H256.226C256.4 321.724 256.541 321.578 256.541 321.398V320.046C256.541 319.866 256.4 319.72 256.226 319.72H253.63C253.456 319.72 253.315 319.866 253.315 320.046V321.398C253.315 321.578 253.456 321.724 253.63 321.724Z" fill="#3F3D56"/>
<path d="M247.18 321.724H249.776C249.949 321.724 250.09 321.578 250.09 321.398V320.046C250.09 319.866 249.949 319.72 249.776 319.72H247.18C247.006 319.72 246.865 319.866 246.865 320.046V321.398C246.865 321.578 247.006 321.724 247.18 321.724Z" fill="#3F3D56"/>
<path d="M240.729 321.724H243.325C243.499 321.724 243.64 321.578 243.64 321.398V320.046C243.64 319.866 243.499 319.72 243.325 319.72H240.729C240.555 319.72 240.414 319.866 240.414 320.046V321.398C240.414 321.578 240.555 321.724 240.729 321.724Z" fill="#3F3D56"/>
<path d="M234.279 321.724H236.875C237.049 321.724 237.189 321.578 237.189 321.398V320.046C237.189 319.866 237.049 319.72 236.875 319.72H234.279C234.105 319.72 233.964 319.866 233.964 320.046V321.398C233.964 321.578 234.105 321.724 234.279 321.724Z" fill="#3F3D56"/>
<path d="M227.829 321.724H230.424C230.598 321.724 230.739 321.578 230.739 321.398V320.046C230.739 319.866 230.598 319.72 230.424 319.72H227.829C227.655 319.72 227.514 319.866 227.514 320.046V321.398C227.514 321.578 227.655 321.724 227.829 321.724Z" fill="#3F3D56"/>
<path d="M324.659 325.065H327.255C327.429 325.065 327.57 324.919 327.57 324.739V323.387C327.57 323.207 327.429 323.061 327.255 323.061H324.659C324.486 323.061 324.345 323.207 324.345 323.387V324.739C324.345 324.919 324.486 325.065 324.659 325.065Z" fill="#3F3D56"/>
<path d="M318.209 325.065H320.805C320.979 325.065 321.12 324.919 321.12 324.739V323.387C321.12 323.207 320.979 323.061 320.805 323.061H318.209C318.035 323.061 317.894 323.207 317.894 323.387V324.739C317.894 324.919 318.035 325.065 318.209 325.065Z" fill="#3F3D56"/>
<path d="M311.759 325.065H314.355C314.529 325.065 314.669 324.919 314.669 324.739V323.387C314.669 323.207 314.529 323.061 314.355 323.061H311.759C311.585 323.061 311.444 323.207 311.444 323.387V324.739C311.444 324.919 311.585 325.065 311.759 325.065Z" fill="#3F3D56"/>
<path d="M305.309 325.065H307.904C308.078 325.065 308.219 324.919 308.219 324.739V323.387C308.219 323.207 308.078 323.061 307.904 323.061H305.309C305.135 323.061 304.994 323.207 304.994 323.387V324.739C304.994 324.919 305.135 325.065 305.309 325.065Z" fill="#3F3D56"/>
<path d="M298.859 325.065H301.454C301.628 325.065 301.769 324.919 301.769 324.739V323.387C301.769 323.207 301.628 323.061 301.454 323.061H298.859C298.685 323.061 298.544 323.207 298.544 323.387V324.739C298.544 324.919 298.685 325.065 298.859 325.065Z" fill="#3F3D56"/>
<path d="M292.408 325.065H295.004C295.177 325.065 295.318 324.919 295.318 324.739V323.387C295.318 323.207 295.177 323.061 295.004 323.061H292.408C292.234 323.061 292.093 323.207 292.093 323.387V324.739C292.093 324.919 292.234 325.065 292.408 325.065Z" fill="#3F3D56"/>
<path d="M285.958 325.065H288.553C288.727 325.065 288.868 324.919 288.868 324.739V323.387C288.868 323.207 288.727 323.061 288.553 323.061H285.958C285.784 323.061 285.643 323.207 285.643 323.387V324.739C285.643 324.919 285.784 325.065 285.958 325.065Z" fill="#3F3D56"/>
<path d="M279.508 325.065H282.103C282.277 325.065 282.418 324.919 282.418 324.739V323.387C282.418 323.207 282.277 323.061 282.103 323.061H279.508C279.334 323.061 279.193 323.207 279.193 323.387V324.739C279.193 324.919 279.334 325.065 279.508 325.065Z" fill="#3F3D56"/>
<path d="M273.057 325.065H275.653C275.826 325.065 275.967 324.919 275.967 324.739V323.387C275.967 323.207 275.826 323.061 275.653 323.061H273.057C272.883 323.061 272.742 323.207 272.742 323.387V324.739C272.742 324.919 272.883 325.065 273.057 325.065Z" fill="#3F3D56"/>
<path d="M266.607 325.065H269.202C269.376 325.065 269.517 324.919 269.517 324.739V323.387C269.517 323.207 269.376 323.061 269.202 323.061H266.607C266.433 323.061 266.292 323.207 266.292 323.387V324.739C266.292 324.919 266.433 325.065 266.607 325.065Z" fill="#3F3D56"/>
<path d="M260.157 325.065H262.752C262.926 325.065 263.067 324.919 263.067 324.739V323.387C263.067 323.207 262.926 323.061 262.752 323.061H260.157C259.983 323.061 259.842 323.207 259.842 323.387V324.739C259.842 324.919 259.983 325.065 260.157 325.065Z" fill="#3F3D56"/>
<path d="M253.706 325.065H256.301C256.475 325.065 256.616 324.919 256.616 324.739V323.387C256.616 323.207 256.475 323.061 256.301 323.061H253.706C253.532 323.061 253.391 323.207 253.391 323.387V324.739C253.391 324.919 253.532 325.065 253.706 325.065Z" fill="#3F3D56"/>
<path d="M247.256 325.065H249.852C250.026 325.065 250.167 324.919 250.167 324.739V323.387C250.167 323.207 250.026 323.061 249.852 323.061H247.256C247.082 323.061 246.941 323.207 246.941 323.387V324.739C246.941 324.919 247.082 325.065 247.256 325.065Z" fill="#3F3D56"/>
<path d="M240.805 325.065H243.401C243.575 325.065 243.716 324.919 243.716 324.739V323.387C243.716 323.207 243.575 323.061 243.401 323.061H240.805C240.632 323.061 240.491 323.207 240.491 323.387V324.739C240.491 324.919 240.632 325.065 240.805 325.065Z" fill="#3F3D56"/>
<path d="M234.355 325.065H236.951C237.125 325.065 237.266 324.919 237.266 324.739V323.387C237.266 323.207 237.125 323.061 236.951 323.061H234.355C234.181 323.061 234.04 323.207 234.04 323.387V324.739C234.04 324.919 234.181 325.065 234.355 325.065Z" fill="#3F3D56"/>
<path d="M227.905 325.065H230.501C230.674 325.065 230.815 324.919 230.815 324.739V323.387C230.815 323.207 230.674 323.061 230.501 323.061H227.905C227.731 323.061 227.59 323.207 227.59 323.387V324.739C227.59 324.919 227.731 325.065 227.905 325.065Z" fill="#3F3D56"/>
<path d="M271.122 329.073H296.294C296.467 329.073 296.608 328.927 296.608 328.747V327.395C296.608 327.215 296.467 327.069 296.294 327.069H271.122C270.948 327.069 270.807 327.215 270.807 327.395V328.747C270.807 328.927 270.948 329.073 271.122 329.073Z" fill="#3F3D56"/>
<path d="M199.71 165.646H364.402C364.576 165.646 364.742 165.575 364.865 165.448C364.988 165.321 365.057 165.148 365.057 164.968C365.057 164.788 364.988 164.615 364.865 164.488C364.742 164.361 364.576 164.29 364.402 164.29H199.71C199.536 164.29 199.37 164.361 199.247 164.488C199.124 164.615 199.055 164.788 199.055 164.968C199.055 165.148 199.124 165.321 199.247 165.448C199.37 165.575 199.536 165.646 199.71 165.646Z" fill="#3F3D56"/>
<path d="M353.19 160.826C355.31 160.826 357.028 159.007 357.028 156.762C357.028 154.518 355.31 152.698 353.19 152.698C351.071 152.698 349.353 154.518 349.353 156.762C349.353 159.007 351.071 160.826 353.19 160.826Z" fill="#3F3D56"/>
<path d="M339.932 160.826C342.051 160.826 343.77 159.007 343.77 156.762C343.77 154.518 342.051 152.698 339.932 152.698C337.812 152.698 336.094 154.518 336.094 156.762C336.094 159.007 337.812 160.826 339.932 160.826Z" fill="#3F3D56"/>
<path d="M326.672 160.826C328.792 160.826 330.51 159.007 330.51 156.762C330.51 154.518 328.792 152.698 326.672 152.698C324.553 152.698 322.834 154.518 322.834 156.762C322.834 159.007 324.553 160.826 326.672 160.826Z" fill="#3F3D56"/>
<path d="M206.991 154.445C206.991 154.638 207.065 154.824 207.197 154.962C207.328 155.1 207.507 155.178 207.694 155.18H217.112C217.301 155.18 217.482 155.102 217.616 154.963C217.749 154.825 217.825 154.637 217.825 154.441C217.825 154.246 217.749 154.058 217.616 153.919C217.482 153.781 217.301 153.703 217.112 153.703H207.694C207.601 153.704 207.509 153.724 207.423 153.762C207.338 153.799 207.26 153.854 207.194 153.923C207.129 153.992 207.078 154.073 207.043 154.163C207.008 154.252 206.99 154.348 206.991 154.445Z" fill="#3F3D56"/>
<path d="M206.991 157.217C206.991 157.411 207.065 157.597 207.197 157.734C207.328 157.872 207.507 157.95 207.694 157.952H217.112C217.301 157.952 217.482 157.874 217.616 157.736C217.749 157.597 217.825 157.41 217.825 157.214C217.825 157.018 217.749 156.83 217.616 156.692C217.482 156.553 217.301 156.476 217.112 156.476H207.694C207.601 156.476 207.509 156.496 207.423 156.534C207.338 156.572 207.26 156.627 207.194 156.696C207.129 156.764 207.078 156.846 207.043 156.935C207.008 157.025 206.99 157.121 206.991 157.217Z" fill="#3F3D56"/>
<path d="M206.991 159.983C206.99 160.079 207.008 160.175 207.043 160.265C207.078 160.354 207.129 160.436 207.194 160.505C207.26 160.573 207.338 160.628 207.423 160.666C207.509 160.704 207.601 160.724 207.694 160.725H217.112C217.301 160.725 217.482 160.647 217.616 160.508C217.749 160.37 217.825 160.182 217.825 159.986C217.825 159.79 217.749 159.603 217.616 159.464C217.482 159.326 217.301 159.248 217.112 159.248H207.694C207.507 159.25 207.328 159.328 207.197 159.466C207.065 159.603 206.991 159.789 206.991 159.983Z" fill="#3F3D56"/>
<path d="M209.902 181.411H206.518C205.492 181.411 204.66 182.272 204.66 183.335C204.66 184.397 205.492 185.259 206.518 185.259H209.902C210.928 185.259 211.759 184.397 211.759 183.335C211.759 182.272 210.928 181.411 209.902 181.411Z" fill="#FFB83D"/>
<path d="M248.603 181.411H245.22C244.194 181.411 243.362 182.272 243.362 183.335C243.362 184.397 244.194 185.259 245.22 185.259H248.603C249.629 185.259 250.461 184.397 250.461 183.335C250.461 182.272 249.629 181.411 248.603 181.411Z" fill="#FFB83D"/>
<path d="M259.569 181.411H256.185C255.159 181.411 254.327 182.272 254.327 183.335C254.327 184.397 255.159 185.259 256.185 185.259H259.569C260.595 185.259 261.426 184.397 261.426 183.335C261.426 182.272 260.595 181.411 259.569 181.411Z" fill="#FFB83D"/>
<path d="M238.076 181.09H217.044C216.018 181.09 215.187 181.951 215.187 183.014C215.187 184.077 216.018 184.938 217.044 184.938H238.076C239.102 184.938 239.934 184.077 239.934 183.014C239.934 181.951 239.102 181.09 238.076 181.09Z" fill="#FFB83D"/>
<path d="M289.679 181.09H268.647C267.621 181.09 266.789 181.951 266.789 183.014C266.789 184.077 267.621 184.938 268.647 184.938H289.679C290.705 184.938 291.536 184.077 291.536 183.014C291.536 181.951 290.705 181.09 289.679 181.09Z" fill="#FFB83D"/>
<path d="M220.222 190.096H216.838C215.812 190.096 214.98 190.957 214.98 192.02C214.98 193.082 215.812 193.944 216.838 193.944H220.222C221.248 193.944 222.08 193.082 222.08 192.02C222.08 190.957 221.248 190.096 220.222 190.096Z" fill="#FFB83D"/>
<path d="M258.924 190.096H255.54C254.514 190.096 253.683 190.957 253.683 192.02C253.683 193.082 254.514 193.944 255.54 193.944H258.924C259.95 193.944 260.782 193.082 260.782 192.02C260.782 190.957 259.95 190.096 258.924 190.096Z" fill="#FFB83D"/>
<path d="M269.889 190.096H266.506C265.48 190.096 264.648 190.957 264.648 192.02C264.648 193.082 265.48 193.944 266.506 193.944H269.889C270.915 193.944 271.747 193.082 271.747 192.02C271.747 190.957 270.915 190.096 269.889 190.096Z" fill="#FFB83D"/>
<path d="M248.397 189.775H227.365C226.339 189.775 225.507 190.637 225.507 191.699C225.507 192.762 226.339 193.624 227.365 193.624H248.397C249.423 193.624 250.255 192.762 250.255 191.699C250.255 190.637 249.423 189.775 248.397 189.775Z" fill="#FFB83D"/>
<path d="M300 189.775H278.968C277.942 189.775 277.11 190.637 277.11 191.699C277.11 192.762 277.942 193.624 278.968 193.624H300C301.025 193.624 301.857 192.762 301.857 191.699C301.857 190.637 301.025 189.775 300 189.775Z" fill="#FFB83D"/>
<path d="M230.542 198.781H227.158C226.132 198.781 225.301 199.642 225.301 200.705C225.301 201.767 226.132 202.629 227.158 202.629H230.542C231.568 202.629 232.4 201.767 232.4 200.705C232.4 199.642 231.568 198.781 230.542 198.781Z" fill="#FFB83D"/>
<path d="M269.244 198.781H265.861C264.835 198.781 264.003 199.642 264.003 200.705C264.003 201.767 264.835 202.629 265.861 202.629H269.244C270.27 202.629 271.102 201.767 271.102 200.705C271.102 199.642 270.27 198.781 269.244 198.781Z" fill="#FFB83D"/>
<path d="M280.21 198.781H276.826C275.8 198.781 274.968 199.642 274.968 200.705C274.968 201.767 275.8 202.629 276.826 202.629H280.21C281.236 202.629 282.067 201.767 282.067 200.705C282.067 199.642 281.236 198.781 280.21 198.781Z" fill="#FFB83D"/>
<path d="M258.717 198.46H237.685C236.659 198.46 235.828 199.321 235.828 200.384C235.828 201.447 236.659 202.308 237.685 202.308H258.717C259.743 202.308 260.575 201.447 260.575 200.384C260.575 199.321 259.743 198.46 258.717 198.46Z" fill="#FFB83D"/>
<path d="M310.32 198.46H289.288C288.262 198.46 287.431 199.321 287.431 200.384C287.431 201.447 288.262 202.308 289.288 202.308H310.32C311.346 202.308 312.178 201.447 312.178 200.384C312.178 199.321 311.346 198.46 310.32 198.46Z" fill="#FFB83D"/>
<path d="M240.863 207.466H237.479C236.453 207.466 235.621 208.327 235.621 209.39C235.621 210.453 236.453 211.314 237.479 211.314H240.863C241.889 211.314 242.72 210.453 242.72 209.39C242.72 208.327 241.889 207.466 240.863 207.466Z" fill="#FFB83D"/>
<path d="M279.565 207.466H276.181C275.155 207.466 274.324 208.327 274.324 209.39C274.324 210.453 275.155 211.314 276.181 211.314H279.565C280.591 211.314 281.423 210.453 281.423 209.39C281.423 208.327 280.591 207.466 279.565 207.466Z" fill="#FFB83D"/>
<path d="M290.531 207.466H287.147C286.121 207.466 285.289 208.327 285.289 209.39C285.289 210.453 286.121 211.314 287.147 211.314H290.531C291.557 211.314 292.388 210.453 292.388 209.39C292.388 208.327 291.557 207.466 290.531 207.466Z" fill="#FFB83D"/>
<path d="M269.038 207.146H248.006C246.98 207.146 246.148 208.007 246.148 209.07C246.148 210.132 246.98 210.994 248.006 210.994H269.038C270.064 210.994 270.896 210.132 270.896 209.07C270.896 208.007 270.064 207.146 269.038 207.146Z" fill="#FFB83D"/>
<path d="M248.603 242.002H245.22C244.194 242.002 243.362 242.864 243.362 243.927C243.362 244.989 244.194 245.851 245.22 245.851H248.603C249.629 245.851 250.461 244.989 250.461 243.927C250.461 242.864 249.629 242.002 248.603 242.002Z" fill="#FFB83D"/>
<path d="M259.569 242.002H256.185C255.159 242.002 254.327 242.864 254.327 243.927C254.327 244.989 255.159 245.851 256.185 245.851H259.569C260.595 245.851 261.426 244.989 261.426 243.927C261.426 242.864 260.595 242.002 259.569 242.002Z" fill="#FFB83D"/>
<path d="M289.679 242.323H268.647C267.621 242.323 266.789 243.184 266.789 244.247C266.789 245.309 267.621 246.171 268.647 246.171H289.679C290.705 246.171 291.536 245.309 291.536 244.247C291.536 243.184 290.705 242.323 289.679 242.323Z" fill="#FFB83D"/>
<path d="M209.902 242.002H206.518C205.492 242.002 204.66 242.864 204.66 243.927C204.66 244.989 205.492 245.851 206.518 245.851H209.902C210.928 245.851 211.759 244.989 211.759 243.927C211.759 242.864 210.928 242.002 209.902 242.002Z" fill="#FFB83D"/>
<path d="M238.076 242.323H217.044C216.018 242.323 215.187 243.184 215.187 244.247C215.187 245.309 216.018 246.171 217.044 246.171H238.076C239.102 246.171 239.934 245.309 239.934 244.247C239.934 243.184 239.102 242.323 238.076 242.323Z" fill="#FFB83D"/>
<path d="M220.222 233.317H216.838C215.812 233.317 214.98 234.178 214.98 235.241C214.98 236.304 215.812 237.165 216.838 237.165H220.222C221.248 237.165 222.08 236.304 222.08 235.241C222.08 234.178 221.248 233.317 220.222 233.317Z" fill="#FFB83D"/>
<path d="M258.924 233.317H255.54C254.514 233.317 253.683 234.178 253.683 235.241C253.683 236.304 254.514 237.165 255.54 237.165H258.924C259.95 237.165 260.782 236.304 260.782 235.241C260.782 234.178 259.95 233.317 258.924 233.317Z" fill="#FFB83D"/>
<path d="M269.889 233.317H266.506C265.48 233.317 264.648 234.178 264.648 235.241C264.648 236.304 265.48 237.165 266.506 237.165H269.889C270.915 237.165 271.747 236.304 271.747 235.241C271.747 234.178 270.915 233.317 269.889 233.317Z" fill="#FFB83D"/>
<path d="M248.397 233.638H227.365C226.339 233.638 225.507 234.499 225.507 235.562C225.507 236.624 226.339 237.486 227.365 237.486H248.397C249.423 237.486 250.255 236.624 250.255 235.562C250.255 234.499 249.423 233.638 248.397 233.638Z" fill="#FFB83D"/>
<path d="M230.542 224.632H227.158C226.132 224.632 225.301 225.493 225.301 226.556C225.301 227.619 226.132 228.48 227.158 228.48H230.542C231.568 228.48 232.4 227.619 232.4 226.556C232.4 225.493 231.568 224.632 230.542 224.632Z" fill="#FFB83D"/>
<path d="M269.244 224.632H265.861C264.835 224.632 264.003 225.493 264.003 226.556C264.003 227.619 264.835 228.48 265.861 228.48H269.244C270.27 228.48 271.102 227.619 271.102 226.556C271.102 225.493 270.27 224.632 269.244 224.632Z" fill="#FFB83D"/>
<path d="M280.21 224.632H276.826C275.8 224.632 274.968 225.493 274.968 226.556C274.968 227.619 275.8 228.48 276.826 228.48H280.21C281.236 228.48 282.067 227.619 282.067 226.556C282.067 225.493 281.236 224.632 280.21 224.632Z" fill="#FFB83D"/>
<path d="M258.717 224.953H237.685C236.659 224.953 235.828 225.814 235.828 226.877C235.828 227.939 236.659 228.801 237.685 228.801H258.717C259.743 228.801 260.575 227.939 260.575 226.877C260.575 225.814 259.743 224.953 258.717 224.953Z" fill="#FFB83D"/>
<path d="M240.863 215.947H237.479C236.453 215.947 235.621 216.808 235.621 217.871C235.621 218.934 236.453 219.795 237.479 219.795H240.863C241.889 219.795 242.72 218.934 242.72 217.871C242.72 216.808 241.889 215.947 240.863 215.947Z" fill="#FFB83D"/>
<path d="M279.565 215.947H276.181C275.155 215.947 274.324 216.808 274.324 217.871C274.324 218.934 275.155 219.795 276.181 219.795H279.565C280.591 219.795 281.423 218.934 281.423 217.871C281.423 216.808 280.591 215.947 279.565 215.947Z" fill="#FFB83D"/>
<path d="M290.531 215.947H287.147C286.121 215.947 285.289 216.808 285.289 217.871C285.289 218.934 286.121 219.795 287.147 219.795H290.531C291.557 219.795 292.388 218.934 292.388 217.871C292.388 216.808 291.557 215.947 290.531 215.947Z" fill="#FFB83D"/>
<path d="M269.038 216.268H248.006C246.98 216.268 246.148 217.129 246.148 218.192C246.148 219.254 246.98 220.116 248.006 220.116H269.038C270.064 220.116 270.896 219.254 270.896 218.192C270.896 217.129 270.064 216.268 269.038 216.268Z" fill="#FFB83D"/>
<path d="M226.298 366.744C226.156 366.818 226.015 366.891 225.873 366.958C224.976 367.419 224.073 367.873 223.163 368.321C220.441 369.664 217.685 370.94 214.894 372.149C207.551 375.33 200.016 378.015 192.337 380.186C191.047 371.855 189.796 352.207 188.596 337.756C188.37 335.037 188.145 332.505 187.919 330.267C187.705 327.329 187.297 324.409 186.7 321.528C186.641 321.302 186.557 321.085 186.448 320.88C186.571 322.036 186.7 325.483 186.822 330.267C186.887 332.505 186.945 335.037 187.009 337.756C187.313 351.666 187.629 370.593 187.945 381.369C187.048 381.596 186.145 381.823 185.242 382.037C184.674 382.177 184.1 382.311 183.526 382.438C182.83 382.598 182.133 382.758 181.436 382.905C180.705 383.066 179.976 383.219 179.25 383.366C167.339 385.79 155.228 387.007 143.089 387.001C142.283 387.001 141.483 386.994 140.677 386.987C140.432 386.987 140.186 386.981 139.935 386.974C139.225 386.961 138.49 386.947 137.742 386.927C123.397 386.516 109.146 384.389 95.2728 380.587L95.834 337.756L95.9307 330.267L95.9695 327.427C95.6499 328.341 95.4588 329.297 95.4018 330.267C95.1761 332.091 94.9439 334.676 94.7116 337.756C93.8279 349.621 92.9185 368.762 91.9767 379.652C80.8241 376.365 72.6709 373.365 62.4793 368.087C62.0859 367.887 61.686 367.68 61.2925 367.473C61.3634 366.958 61.4408 366.444 61.5118 365.916C62.6664 357.605 61.3054 346.789 62.5825 337.756C63.5565 330.788 64.5628 324.094 65.5755 318.415C66.8011 311.58 68.046 306.209 69.278 303.597C70.6971 300.584 72.1161 297.617 73.4901 294.778L75.2381 291.177C75.5477 290.542 75.8573 289.914 76.1605 289.3C77.5409 286.5 78.8438 283.915 80.0371 281.623C80.8757 280.013 81.6497 278.557 82.3593 277.281C83.1914 275.778 83.9267 274.535 84.533 273.593C89.0115 266.562 95.6751 261.326 103.42 258.755L103.613 258.701L103.8 258.781L104.013 258.882L116.307 254.225L121.797 240.536L149.991 238.739L154.545 242.326L156.873 244.164L159.357 246.121L163.924 249.722L165.22 250.136L167.149 250.751L180.34 254.947L180.475 254.886L180.669 254.94C187.716 257.276 193.885 261.83 198.317 267.968C198.755 268.556 199.162 269.163 199.555 269.778C200.626 271.422 202.071 274.02 203.774 277.281C204.477 278.624 205.219 280.08 205.999 281.623C206.47 282.552 210.534 295.687 214.488 309.102C218.184 321.662 221.783 334.469 222.254 337.756C222.338 338.364 222.428 338.979 222.512 339.587C223.047 343.388 223.576 347.216 224.086 350.951C224.841 356.489 225.576 361.834 226.279 366.611C226.285 366.658 226.292 366.698 226.298 366.744Z" fill="#FFB83D"/>
<path opacity="0.2" d="M196.419 318.384L190.936 296.476L186.098 315.383L196.419 318.384Z" fill="black"/>
<path d="M10.8035 318.13C11.0876 318.987 11.6267 319.729 12.3433 320.249C13.0598 320.769 13.917 321.04 14.7917 321.024L31.8799 320.568C32.7611 320.55 33.6131 320.238 34.3084 319.677C35.0038 319.116 35.5053 318.337 35.7379 317.457L38.1561 290.675C39.0141 291.078 39.948 291.276 40.8897 291.257C42.542 291.214 44.1102 290.493 45.2492 289.253C46.3883 288.012 47.0048 286.354 46.9634 284.642C46.9219 282.931 46.2257 281.307 45.028 280.127C43.8303 278.947 42.2292 278.309 40.5769 278.352C40.2005 278.35 39.8251 278.391 39.4571 278.473C39.0567 278.024 38.57 277.668 38.0286 277.426C37.4871 277.185 36.9028 277.063 36.3132 277.07L10.0275 277.772C9.8095 277.781 9.5926 277.809 9.37925 277.856C8.80282 277.967 8.2561 278.205 7.77589 278.554C7.29569 278.902 6.89314 279.353 6.59532 279.876C6.29751 280.4 6.11134 280.983 6.04937 281.587C5.98739 282.191 6.05103 282.801 6.23601 283.378L10.8035 318.13ZM38.6515 288.857L40.3724 282.474C40.5681 281.737 40.5726 280.959 40.3853 280.22C40.4685 280.22 40.5427 280.178 40.6259 280.178C41.2111 280.164 41.7933 280.269 42.3392 280.488C42.8851 280.707 43.384 281.035 43.8075 281.453C44.231 281.872 44.5708 282.373 44.8074 282.927C45.044 283.482 45.1729 284.079 45.1866 284.685C45.2003 285.292 45.0987 285.895 44.8874 286.46C44.6761 287.025 44.3594 287.542 43.9553 287.981C43.5512 288.419 43.0677 288.771 42.5323 289.016C41.9969 289.261 41.4201 289.395 40.8349 289.409C40.0721 289.434 39.3172 289.243 38.6515 288.857Z" fill="#090814"/>
<path d="M9.37939 277.853C9.93928 281.169 16.2354 283.501 23.8062 283.095C30.768 282.761 36.4598 280.231 37.5028 277.23C37.1169 277.112 36.7157 277.057 36.3134 277.066L10.0277 277.769C9.80963 277.777 9.59273 277.806 9.37939 277.853Z" fill="#090814"/>
<path d="M27.3364 302.335C27.3802 302.323 27.4219 302.304 27.4596 302.279L32.1561 299.094C32.2128 299.056 32.2593 299.004 32.2916 298.942C32.3238 298.88 32.3407 298.811 32.3407 298.741C32.3407 298.671 32.3238 298.602 32.2916 298.54C32.2593 298.478 32.2128 298.426 32.1561 298.388L27.2745 295.076C27.184 295.014 27.0736 294.993 26.9677 295.016C26.8618 295.039 26.769 295.104 26.7097 295.198C26.6505 295.292 26.6296 295.406 26.6517 295.516C26.6737 295.625 26.737 295.721 26.8275 295.783L31.1872 298.74L27.0126 301.571C26.9322 301.626 26.8732 301.708 26.8459 301.804C26.8186 301.9 26.8248 302.002 26.8634 302.094C26.9019 302.185 26.9704 302.259 27.0567 302.303C27.1431 302.347 27.2417 302.358 27.3351 302.335H27.3364Z" fill="#F2F2F2"/>
<path d="M19.9191 302.688C19.9978 302.668 20.0688 302.623 20.1229 302.56C20.1771 302.498 20.2119 302.42 20.223 302.336C20.2341 302.253 20.2209 302.168 20.1851 302.092C20.1494 302.017 20.0927 301.954 20.0223 301.912L15.6928 299.341L19.8772 296.122C19.964 296.055 20.0216 295.955 20.0374 295.844C20.0532 295.734 20.0258 295.621 19.9613 295.531C19.8968 295.441 19.8005 295.381 19.6935 295.365C19.5865 295.349 19.4776 295.377 19.3908 295.444L14.7059 299.048C14.6514 299.09 14.6078 299.145 14.579 299.209C14.5502 299.272 14.5373 299.342 14.5412 299.412C14.5452 299.482 14.566 299.55 14.6017 299.61C14.6375 299.67 14.687 299.719 14.7459 299.754L19.6159 302.646C19.7078 302.7 19.8165 302.715 19.9191 302.688Z" fill="#F2F2F2"/>
<path d="M26.8693 305.124C26.9087 305.114 26.9463 305.098 26.9809 305.076C27.0267 305.047 27.0666 305.009 27.0983 304.964C27.13 304.919 27.1528 304.868 27.1655 304.814C27.1782 304.76 27.1805 304.704 27.1723 304.649C27.1641 304.594 27.1455 304.542 27.1176 304.494L20.4596 293.157C20.4317 293.109 20.395 293.068 20.3517 293.035C20.3084 293.003 20.2593 292.979 20.2072 292.966C20.1551 292.953 20.101 292.951 20.048 292.959C19.995 292.968 19.9442 292.987 19.8984 293.016C19.8526 293.045 19.8128 293.083 19.7812 293.128C19.7496 293.173 19.7268 293.223 19.7141 293.277C19.7015 293.331 19.6993 293.387 19.7075 293.442C19.7158 293.497 19.7344 293.55 19.7623 293.597L26.4203 304.935C26.4659 305.012 26.5345 305.073 26.6158 305.107C26.6971 305.141 26.7869 305.147 26.8719 305.124H26.8693Z" fill="#F2F2F2"/>
<path d="M507.04 367.468C506.647 367.675 506.247 367.882 505.853 368.083C495.662 373.361 487.508 376.36 476.356 379.647C475.414 368.758 474.505 349.617 473.621 337.752C473.389 334.672 473.157 332.086 472.931 330.262C472.874 329.293 472.683 328.336 472.363 327.423L472.402 330.262L472.499 337.752L473.06 380.583C459.187 384.385 444.936 386.512 430.591 386.923C429.843 386.943 429.107 386.956 428.398 386.97C428.146 386.976 427.901 386.983 427.656 386.983C426.85 386.99 426.05 386.996 425.243 386.996C410.127 387.008 395.064 385.117 380.388 381.364C380.704 370.588 381.02 351.661 381.323 337.752C381.388 335.033 381.446 332.5 381.51 330.262C381.633 325.479 381.762 322.032 381.884 320.876C381.776 321.081 381.691 321.298 381.633 321.524C381.035 324.405 380.628 327.324 380.414 330.262C380.188 332.5 379.962 335.033 379.736 337.752C378.537 352.202 377.285 371.851 375.995 380.182C368.316 378.011 360.782 375.326 353.438 372.145C349.568 370.475 345.767 368.673 342.034 366.74C342.744 361.93 343.486 356.538 344.247 350.946C344.84 346.61 345.453 342.154 346.079 337.752C347.046 330.95 379.917 257.508 387.664 254.936L387.857 254.882L387.993 254.942L401.184 250.747L403.112 250.132L404.409 249.718L408.976 246.117L411.459 244.159L413.788 242.322L418.342 238.734L446.536 240.532L452.025 254.221L464.32 258.877L464.532 258.777L464.719 258.697L464.913 258.75C472.657 261.322 479.321 266.557 483.8 273.588C484.406 274.531 485.141 275.773 485.973 277.276C486.683 278.552 487.457 280.009 488.295 281.619C489.489 283.91 490.792 286.496 492.172 289.295C492.475 289.91 492.785 290.538 493.094 291.173C493.669 292.348 494.251 293.549 494.843 294.774C496.216 297.613 497.636 300.579 499.055 303.592C500.287 306.205 501.532 311.576 502.757 318.41C503.77 324.089 504.776 330.783 505.75 337.752C507.027 346.784 505.666 357.601 506.821 365.912C506.892 366.442 506.969 366.956 507.04 367.468Z" fill="#FFB83D"/>
<path d="M424.35 233.823C442.46 233.823 457.141 218.617 457.141 199.86C457.141 181.103 442.46 165.897 424.35 165.897C406.241 165.897 391.56 181.103 391.56 199.86C391.56 218.617 406.241 233.823 424.35 233.823Z" fill="#FFB9B9"/>
<path opacity="0.2" d="M371.912 318.384L377.395 296.476L382.233 315.383L371.912 318.384Z" fill="black"/>
<path d="M517.761 304.109C515.8 332.089 517.832 344.408 507.008 367.477C497.16 372.47 486.902 376.543 476.356 379.65C475.259 379.971 474.161 380.282 473.06 380.585C459.187 384.387 444.936 386.515 430.591 386.925C429.843 386.945 429.107 386.959 428.398 386.972C428.146 386.979 427.901 386.986 427.656 386.986C426.85 386.992 426.05 386.999 425.244 386.999C410.127 387.01 395.064 385.119 380.388 381.367C378.917 380.993 377.453 380.599 375.995 380.184C368.317 378.013 360.782 375.328 353.439 372.147C349.568 370.477 345.767 368.675 342.034 366.742C341.189 366.302 340.344 365.861 339.512 365.406C335.236 357.616 332.804 348.143 332.752 336.759C335.713 317.144 511.22 287.193 517.761 304.109Z" fill="#E6E6E6"/>
<path opacity="0.2" d="M517.755 308.901C517.855 307.169 517.967 305.38 518.098 303.516C511.557 286.601 336.05 316.551 333.089 336.166C333.098 337.964 333.172 339.707 333.296 341.414C340.467 322.053 507.2 293.587 517.755 308.901Z" fill="black"/>
<path d="M334.889 324.432L349.295 316.972L337.29 283.4L334.129 266.469C333.718 264.269 332.757 262.22 331.342 260.526C329.927 258.831 328.107 257.551 326.064 256.814C324.022 256.076 321.828 255.907 319.703 256.322C317.577 256.738 315.594 257.724 313.952 259.182C311.518 261.343 309.99 264.398 309.69 267.704C309.39 271.009 310.341 274.306 312.344 276.898L324.088 292.103L334.889 324.432Z" fill="#FFB9B9"/>
<path d="M342.794 291.752L323.586 301.699L338.164 349.006C339.21 352.403 341.087 355.462 343.611 357.887C346.136 360.312 349.222 362.02 352.571 362.846C356.701 363.864 361.037 363.493 364.949 361.787C368.862 360.082 372.149 357.129 374.333 353.359L412.985 284.739C415.724 280.01 416.569 274.359 415.34 268.994C414.11 263.628 410.904 258.973 406.406 256.023C403.986 254.436 401.272 253.394 398.438 252.965C395.604 252.537 392.715 252.731 389.959 253.535C387.202 254.34 384.64 255.737 382.44 257.635C380.239 259.533 378.449 261.889 377.186 264.551L353.599 316.62L342.794 291.752Z" fill="#FFB83D"/>
<path d="M135.733 231.479C155.659 231.479 171.813 214.748 171.813 194.11C171.813 173.471 155.659 156.74 135.733 156.74C115.806 156.74 99.6528 173.471 99.6528 194.11C99.6528 214.748 115.806 231.479 135.733 231.479Z" fill="#FFB9B9"/>
<path d="M100.086 168.358C103.02 164.263 107.236 161.351 110.461 157.499C112.231 155.385 113.7 152.989 115.69 151.097C119.386 147.581 124.555 146.14 129.571 145.961C135.068 145.814 140.521 147.01 145.489 149.452C150.456 151.894 154.799 155.513 158.166 160.016L166.031 155.24L169.139 163.711C169.989 162.946 171.073 162.517 172.199 162.501C173.325 162.485 174.42 162.882 175.291 163.622C176.161 164.362 176.751 165.398 176.954 166.545C177.158 167.692 176.963 168.877 176.404 169.89C177.028 167.893 179.887 167.469 181.462 168.788C183.038 170.107 183.462 172.454 183.204 174.534C182.881 176.817 181.906 178.949 180.405 180.655C178.903 182.36 176.943 183.562 174.777 184.105C171.358 184.894 167.374 184.064 164.635 186.331C162.442 188.148 161.777 191.456 159.539 193.212C156.778 195.376 152.877 194.376 149.444 194.854C143.44 195.691 138.687 202.051 139.408 208.283C138.865 206.317 138.294 204.294 137.06 202.697C135.827 201.101 133.751 200.02 131.86 200.608C128.734 201.578 128.223 205.991 128.981 209.278C130.99 217.997 138.604 232.089 138.604 232.089C128.717 236.128 116.938 232.309 109.31 224.644C101.682 216.979 97.7083 206.125 95.9777 195.264C94.5077 186.057 94.716 175.855 100.086 168.358Z" fill="#090814"/>
<path d="M465.444 218.582C472.308 202.281 468.419 187.282 460.051 179.326V179.319C456.762 171.683 452.388 165.79 447.383 164.407C444.964 162.797 442.616 160.906 440.01 159.944C438.796 159.474 437.503 159.262 436.208 159.323C434.913 159.384 433.644 159.716 432.476 160.298L431.147 159.931C428.212 159.496 431.076 160.185 427.226 158.849C421.562 156.116 416.46 154.894 411.919 154.894C397.109 154.894 388.349 167.881 386.027 183.581L398.406 186.995L402.708 179.893L400.721 187.637L407.552 189.514C417.95 203.537 405.507 235.886 389.736 253.884C393.49 252.808 397.229 251.9 400.953 251.158L414.486 230.608L406.101 249.314C410.455 248.653 416.008 249.288 422.078 250.564C424.123 247.798 425.2 244.11 424.142 240.823C425.872 244.29 427.065 248.016 427.677 251.866C440.487 255.107 457.961 256.77 467.379 257.999C474.988 255.43 475.008 226.372 465.444 218.582Z" fill="#090814"/>
<path d="M469.909 163.136C474.937 174.796 464.792 179.812 455.498 179.67C447.101 179.542 439.963 173.431 439.535 164.744C439.329 160.572 440.732 156.487 443.434 153.386C446.137 150.286 449.918 148.424 453.946 148.21C462.333 147.766 466.487 155.194 469.909 163.136Z" fill="#090814"/>
<path d="M236.169 356.357L227.498 340.873L256.331 317.455L268.318 303.905C269.845 302.156 271.8 300.865 273.976 300.169C276.151 299.473 278.468 299.397 280.682 299.949C282.913 300.532 284.957 301.712 286.609 303.372C288.26 305.031 289.462 307.11 290.093 309.402C292.122 316.551 288.495 324.13 281.894 326.543L263.266 333.353L236.169 356.357Z" fill="#FFB9B9"/>
<path d="M242.649 352.481L229.755 363.611L226.278 366.611L225.872 366.958C224.976 367.419 224.072 367.873 223.163 368.321C220.441 369.664 217.685 370.94 214.894 372.149C207.55 375.33 200.016 378.015 192.337 380.186C190.879 380.6 189.415 380.995 187.944 381.369C187.048 381.596 186.145 381.823 185.242 382.037C184.674 382.177 184.1 382.311 183.526 382.438C182.829 382.598 182.132 382.758 181.436 382.905C180.705 383.066 179.976 383.219 179.249 383.366C177.288 381.434 175.726 379.108 174.66 376.531C173.593 373.953 173.043 371.179 173.044 368.374C173.044 368.194 173.044 368.007 173.05 367.82L175.121 312.816L176.037 288.438C176.178 282.925 178.395 277.687 182.215 273.845C186.034 270.003 191.153 267.86 196.478 267.874C197.097 267.874 197.71 267.908 198.316 267.968C198.755 268.556 199.161 269.164 199.555 269.778C200.626 271.422 202.07 274.021 203.773 277.281C204.476 278.624 205.218 280.08 205.999 281.623C206.47 282.552 210.533 295.687 214.487 309.102L212.746 323.112L209.598 348.365L222.512 339.587L231.606 333.4L232.684 335.264L235.49 340.114L240.908 349.468L242.649 352.481Z" fill="#FFB83D"/>
<path d="M235.58 336.76C235.574 337.896 235.548 339.012 235.49 340.114C235.355 343.155 235.015 346.182 234.471 349.173C233.58 354.196 231.992 359.059 229.755 363.611C229.459 364.219 229.143 364.82 228.82 365.408C227.988 365.862 227.143 366.303 226.298 366.744C226.156 366.817 226.014 366.891 225.872 366.958C222.279 368.808 218.62 370.539 214.894 372.149C207.551 375.33 200.016 378.015 192.337 380.186C190.879 380.6 189.415 380.994 187.944 381.368C185.074 382.103 182.176 382.769 179.249 383.366C167.338 385.79 155.228 387.007 143.089 387C142.283 387 141.483 386.994 140.676 386.987C140.431 386.987 140.186 386.98 139.935 386.974C139.225 386.96 138.49 386.947 137.741 386.927C123.397 386.516 109.146 384.389 95.2725 380.587C94.1695 380.286 93.0708 379.974 91.9764 379.651C81.4303 376.545 71.1725 372.471 61.3245 367.479C50.5008 344.41 52.5327 332.09 50.5718 304.111C54.5968 293.695 122.693 301.051 175.121 312.816C189.351 316.009 202.419 319.53 212.746 323.111C223.415 326.806 231.149 330.56 234.18 334.088C234.889 334.818 235.375 335.747 235.58 336.76Z" fill="#E6E6E6"/>
<path opacity="0.2" d="M50.5759 308.901C50.4759 307.169 50.3637 305.38 50.2334 303.516C56.774 286.601 232.281 316.551 235.242 336.166C235.233 337.964 235.159 339.707 235.035 341.414C227.864 322.053 61.1299 293.587 50.5759 308.901Z" fill="black"/>
</svg>
