<svg width="46" height="47" viewBox="0 0 46 47" fill="none" xmlns="http://www.w3.org/2000/svg">
<path d="M30.8484 0.881273H2.4941C1.12105 0.881273 0 2.00244 0 3.37537V20.6318C0 22.0118 1.12117 23.1329 2.4941 23.1329H3.8523V28.933C3.8523 29.8458 4.9521 30.306 5.5987 29.6589L7.00743 28.2502C6.98608 27.9556 6.9717 27.6606 6.9717 27.3661C6.9717 23.7726 8.7181 20.5813 11.4062 18.5904H5.05966C4.30497 18.5904 3.68662 17.9721 3.68662 17.2248C3.68662 16.4701 4.30493 15.8518 5.05966 15.8518H15.4667V13.3938H5.06011C4.30542 13.3938 3.68707 12.7755 3.68707 12.0208C3.68707 11.2731 4.30538 10.6552 5.06011 10.6552H16.5306C17.1846 10.0012 18.0831 9.59854 19.0822 9.59854H33.3492V3.37451C33.3492 2.00191 32.228 0.880859 30.8481 0.880859L30.8484 0.881273ZM28.2897 8.19066H5.05992C4.30523 8.19066 3.68688 7.57976 3.68688 6.8251C3.68688 6.07041 4.30519 5.45206 5.05992 5.45206H28.2897C29.0444 5.45206 29.6553 6.07036 29.6553 6.8251C29.6553 7.57979 29.0444 8.19066 28.2897 8.19066Z" fill="#85DCF9"/>
<path d="M43.8216 11.0364H19.0825C17.8751 11.0364 16.9048 12.0137 16.9048 13.2141V16.5061C17.2281 16.4704 17.5519 16.456 17.8821 16.456C18.0473 16.456 18.2129 16.463 18.378 16.4704C19.0107 16.4991 19.6286 16.578 20.2251 16.7148C20.1532 16.5641 20.1175 16.3985 20.1175 16.219C20.1175 15.5649 20.6565 15.026 21.318 15.026H41.5862C42.2402 15.026 42.7792 15.565 42.7792 16.219C42.7792 16.8804 42.2402 17.412 41.5862 17.412L22.3319 17.4111C23.5106 17.9357 24.5743 18.669 25.4871 19.5602H41.5868C42.2408 19.5602 42.7798 20.0992 42.7798 20.7607C42.7798 21.4147 42.2408 21.9537 41.5868 21.9537H27.3488C27.737 22.629 28.0529 23.348 28.2904 24.1027H41.5869C42.241 24.1027 42.7799 24.6348 42.7799 25.2957C42.7799 25.9498 42.2409 26.4887 41.5869 26.4887H28.7578C28.7722 26.697 28.7792 26.9057 28.7866 27.1214C28.8079 28.2643 28.6646 29.3855 28.3408 30.4491H35.4132L41.1126 36.1415C41.6734 36.7093 42.6363 36.3067 42.6363 35.5088V30.4491H43.8224C45.0229 30.4491 46.0002 29.4718 46.0002 28.2714L45.9997 13.2135C46.0002 12.0135 45.0224 11.0361 43.8223 11.0361L43.8216 11.0364Z" fill="#85DCF9"/>
<path d="M27.3479 27.1575C27.2403 22.2342 23.2293 18.1231 18.3134 17.9004C12.8868 17.6634 8.40918 21.9898 8.40918 27.3662C8.40918 29.8891 9.39393 32.1815 11.004 33.8779C12.6141 35.5742 13.6345 37.7302 13.8001 40.0443H13.6781C13.0528 40.0443 12.5351 40.5546 12.5351 41.1799C12.5351 41.8126 13.0528 42.3228 13.6781 42.3228C13.0528 42.3228 12.5351 42.833 12.5351 43.4657C12.5351 44.084 13.0528 44.6013 13.6781 44.6013H15.4319C14.8066 44.6013 14.2964 45.1115 14.2964 45.7442C14.2964 46.3695 14.8066 46.8798 15.4319 46.8798H20.3265C20.9518 46.8798 21.4694 46.3695 21.4694 45.7442C21.4694 45.1115 20.9518 44.6013 20.3265 44.6013H22.0873C22.7126 44.6013 23.2229 44.0836 23.2229 43.4657C23.2229 42.833 22.7126 42.3228 22.0873 42.3228C22.7126 42.3228 23.2229 41.8126 23.2229 41.1799C23.2229 40.5546 22.7126 40.0443 22.0873 40.0443H21.8572C22.0368 37.7589 23.0577 35.6242 24.6672 33.9636C26.3706 32.2172 27.4054 29.8023 27.3478 27.1574L27.3479 27.1575ZM23.5457 28.8177C23.5457 29.6513 23.0136 30.3846 22.2306 30.6434C21.6916 30.816 21.1526 30.9597 20.6136 31.0748V40.0443H19.7082L19.7077 31.2255C18.4929 31.3906 17.2711 31.3906 16.0493 31.2255V40.0443H15.1508V31.0748C14.6044 30.9598 14.0654 30.816 13.5338 30.6434C12.7434 30.3846 12.2114 29.6517 12.2114 28.8177V28.4081C12.2114 27.3515 13.0737 26.4892 14.1304 26.4892C15.187 26.4892 16.0493 27.3515 16.0493 28.4081V30.3127C17.2711 30.4922 18.4929 30.4922 19.7078 30.3127V28.4081C19.7078 27.3515 20.5701 26.4892 21.6267 26.4892C22.6834 26.4892 23.5457 27.3515 23.5457 28.4081L23.5457 28.8177Z" fill="#85DCF9"/>
<path d="M14.1303 27.3872C13.5696 27.3872 13.1099 27.8474 13.1099 28.4077V28.8173C13.1099 29.2631 13.39 29.6509 13.814 29.7877C14.2524 29.9315 14.7051 30.0535 15.1508 30.1541V28.4078C15.1508 27.8474 14.6911 27.3872 14.1303 27.3872ZM21.6267 27.3872C21.0659 27.3872 20.6132 27.8474 20.6132 28.4077V30.1541C21.0589 30.0535 21.5043 29.9315 21.95 29.7877C22.367 29.6513 22.6471 29.263 22.6471 28.8173V28.4077C22.6471 27.8473 22.1875 27.3872 21.6267 27.3872Z" fill="#85DCF9"/>
</svg>
