<svg width="13" height="13" viewBox="0 0 13 13" fill="none" xmlns="http://www.w3.org/2000/svg">
<path fill-rule="evenodd" clip-rule="evenodd" d="M10.48 10.4355C11.5681 9.33043 12.2481 7.81726 12.2481 6.15105C12.2481 4.46793 11.568 2.95483 10.48 1.84972C9.37487 0.761619 7.86169 0.081543 6.19548 0.081543C4.51236 0.081543 2.99926 0.761643 1.89415 1.84972C0.806053 2.95483 0.125977 4.468 0.125977 6.15105C0.125977 7.81716 0.806077 9.33043 1.89415 10.4355C2.99926 11.5236 4.51244 12.2037 6.19548 12.2037C7.86159 12.2037 9.37487 11.5236 10.48 10.4355ZM6.60355 9.1264C6.3825 9.34746 6.04255 9.34746 5.82148 9.1264C5.60043 8.92235 5.60043 8.5654 5.82148 8.36134L7.47058 6.69523H3.57732C2.84628 6.69523 2.84628 5.59012 3.57732 5.59012H7.47058L5.82148 3.94103C5.60043 3.71997 5.60043 3.38003 5.82148 3.15896C6.04254 2.93789 6.38248 2.9379 6.60355 3.15896L9.20476 5.76016L9.35777 6.15115L9.20476 6.54213L6.60355 9.12626V9.1264Z" fill="#FFB733"/>
</svg>
