<svg width="43" height="42" viewBox="0 0 43 42" fill="none" xmlns="http://www.w3.org/2000/svg">
<path d="M34.3669 33.523L37.7066 30.1835L41.0461 33.523C42.8905 35.3674 42.8905 38.358 41.0461 40.2024C39.2017 42.0468 36.2113 42.0468 34.3669 40.2024C32.5225 38.358 32.5225 35.3674 34.3669 33.523ZM14.8156 0.174316L36.1892 21.5479C36.9269 22.2856 36.9269 23.4819 36.1892 24.2196L20.159 40.2498C19.4212 40.9876 18.225 40.9876 17.4873 40.2498L1.45713 24.2196C0.719368 23.4819 0.719368 22.2856 1.45713 21.5479L16.1515 6.85356L12.1439 2.84601L14.8156 0.174316ZM18.8231 9.52527L5.46468 22.8838H32.1817L18.8231 9.52527Z" fill="#FFC55C"/>
</svg>
