<svg width="83" height="78" viewBox="0 0 83 78" fill="none" xmlns="http://www.w3.org/2000/svg">
<g opacity="0.16">
<path d="M33.5631 35.7208C33.5631 42.9293 27.7529 48.8005 20.6175 48.8005C13.4698 48.8005 7.67188 42.9294 7.67188 35.7208C7.67188 28.5004 13.4702 22.6167 20.6175 22.6167C27.7527 22.6173 33.5631 28.5004 33.5631 35.7208Z" fill="#805300"/>
<path d="M58.7276 14.6542C60.5994 14.6542 62.1229 13.135 62.1229 11.2683C62.1229 9.39706 60.6 7.87354 58.7276 7.87354C56.86 7.87354 55.3423 9.39643 55.3423 11.2683C55.3423 13.1358 56.8608 14.6542 58.7276 14.6542Z" fill="#805300"/>
<path d="M58.72 18.3379C55.0897 18.3379 52.0026 20.8174 51.2128 24.3669C51.1545 24.6319 51.2197 24.9056 51.3907 25.1186C51.5579 25.3279 51.8073 25.4475 52.0723 25.4475H65.3686C65.6392 25.4475 65.8923 25.3272 66.0608 25.1161C66.2319 24.9044 66.2957 24.6306 66.2375 24.365C65.4607 20.8737 62.2989 18.3379 58.72 18.3379Z" fill="#805300"/>
<path d="M78.5509 3.10596H38.1566C37.8284 3.10596 37.549 3.37345 37.549 3.71362L37.5483 31.0649C37.5483 31.3932 37.8277 31.6726 38.156 31.6726H42.216V40.1328C42.216 40.3884 42.3619 40.607 42.5931 40.7041C42.6657 40.7285 42.739 40.7404 42.8242 40.7404C42.9821 40.7404 43.1406 40.6797 43.2621 40.5581L51.7956 31.6726H78.5503C78.8905 31.6726 79.158 31.3932 79.158 31.0649V3.71368C79.158 3.37351 78.8905 3.10601 78.5503 3.10601L78.5509 3.10596ZM58.7274 6.65849C61.2701 6.65849 63.3381 8.72648 63.3381 11.2685C63.3381 13.8056 61.2701 15.8704 58.7274 15.8704C56.191 15.8704 54.1262 13.8062 54.1262 11.2685C54.1268 8.72632 56.191 6.65849 58.7274 6.65849ZM67.0091 25.8774C66.6082 26.376 66.0106 26.6623 65.3697 26.6623L52.0727 26.6617C51.4374 26.6617 50.8442 26.376 50.4439 25.8792C50.0405 25.3774 49.8883 24.7309 50.0261 24.1033C50.9413 19.9912 54.5158 17.1202 58.7206 17.1202C62.8646 17.1202 66.5242 20.0558 67.4257 24.1014C67.5635 24.7303 67.4113 25.3769 67.0091 25.8774Z" fill="#805300"/>
<path d="M34.152 56.1294H38.0197C37.687 54.5664 36.4586 53.3135 34.8549 52.9808C25.351 51.0019 15.7708 50.9982 6.36662 52.9683C4.47537 53.3567 3.10596 55.0538 3.10596 57.0052V79.0786H11.6093C11.6106 79.0786 11.6112 79.078 11.6124 79.078H19.8209C21.0343 79.078 22.0216 78.0907 22.0216 76.8779C22.0216 75.6638 21.0337 74.6771 19.8209 74.6771H13.3334C12.0492 74.6771 11.0043 73.6322 11.0043 72.348V63.812C11.0043 63.4762 11.2762 63.2043 11.612 63.2043C11.9478 63.2043 12.2196 63.4762 12.2196 63.812V72.348C12.2196 72.962 12.7195 73.4612 13.3328 73.4612H19.8203C21.704 73.4612 23.237 74.9935 23.237 76.8779C23.237 77.7205 22.9188 78.4823 22.4114 79.0787H28.3194L33.5591 56.5995C33.623 56.3239 33.8692 56.129 34.1517 56.129L34.152 56.1294Z" fill="#805300"/>
<path d="M46.9549 65.5352C45.4744 65.5352 44.2695 66.7394 44.2695 68.2199C44.2695 69.6942 45.4744 70.8928 46.9549 70.8928C48.4285 70.8928 49.6271 69.6935 49.6271 68.2199C49.6271 66.7393 48.4279 65.5352 46.9549 65.5352Z" fill="#805300"/>
<path d="M38.7333 57.3452C38.7277 57.3465 38.7177 57.3458 38.7095 57.3452H34.6332L29.5684 79.0787H59.2562L64.3217 57.3452H38.7333ZM46.953 72.1088C44.8017 72.1088 43.0521 70.3641 43.0521 68.2205C43.0521 66.0699 44.8017 64.3202 46.953 64.3202C49.0966 64.3202 50.8407 66.0699 50.8407 68.2205C50.8407 70.3648 49.0966 72.1088 46.953 72.1088Z" fill="#805300"/>
</g>
</svg>
