<svg width="12" height="16" viewBox="0 0 12 16" fill="none" xmlns="http://www.w3.org/2000/svg">
<path d="M5.67867 0.804688C2.60391 0.804688 0 3.42336 0 6.52555C0 9.77398 3.01805 13.096 5.0482 15.4309C5.05594 15.4402 5.38408 15.8047 5.78836 15.8047H5.82423C6.22853 15.8047 6.55431 15.4402 6.5625 15.4309C8.46773 13.2406 11.25 9.62938 11.25 6.52555C11.25 3.42336 9.21891 0.804688 5.67867 0.804688ZM5.86664 14.802C5.85023 14.8184 5.82631 14.8367 5.80522 14.852C5.78366 14.8372 5.76022 14.8185 5.74289 14.802L5.49772 14.5201C3.57305 12.312 0.9375 9.28837 0.9375 6.52555C0.9375 3.93266 3.10875 1.74195 5.67867 1.74195C8.87977 1.74195 10.3125 4.1443 10.3125 6.52555C10.3125 8.62297 8.81648 11.4078 5.86664 14.802ZM5.64139 3.6432C4.08819 3.6432 2.82889 4.9025 2.82889 6.4557C2.82889 8.00891 4.08819 9.2682 5.64139 9.2682C7.19459 9.2682 8.45389 8.00891 8.45389 6.4557C8.45389 4.9025 7.19459 3.6432 5.64139 3.6432ZM5.64139 8.3307C4.60756 8.3307 3.74481 7.46914 3.74481 6.43508C3.74481 5.40125 4.58599 4.56008 5.61981 4.56008C6.65435 4.56008 7.49481 5.40125 7.49481 6.43508C7.49528 7.46914 6.67592 8.3307 5.64139 8.3307Z" fill="#FFC55C"/>
</svg>
