<svg width="3066" height="900" viewBox="0 0 3066 900" fill="none" xmlns="http://www.w3.org/2000/svg">
<circle cx="2615.68" cy="449.666" r="436.682" fill="black" stroke="#1E1E1E" stroke-width="25.9674"/>
<mask id="mask0_2045_4" style="mask-type:alpha" maskUnits="userSpaceOnUse" x="2186" y="2" width="874" height="874">
<circle cx="2622.68" cy="439.279" r="436.682" fill="#FBB12A"/>
</mask>
<g mask="url(#mask0_2045_4)">
<path d="M2235.35 483.715C2237.08 504.519 2223.79 530.67 2216.93 541.144L2183.33 628.914L2216.93 700.43L2389.21 887.89L2733.79 904.143L2925.59 763.278L2933.17 749.191V740.523L2925.59 647.335C2921.97 629.998 2921.9 590.122 2950.51 569.317C2986.27 543.311 2971.1 535.726 2962.43 541.144C2953.76 546.562 2901.75 561.732 2945.09 518.389C2988.43 475.046 2949.42 483.715 2933.17 483.715C2916.92 483.715 2924.5 464.21 2957.01 443.622C2989.52 423.034 2947.26 421.951 2933.17 420.867C2919.08 419.784 2903.91 321.178 2908.25 270.25C2912.58 219.321 2844.32 283.253 2815.06 303.841C2791.66 320.311 2778.58 310.703 2774.97 303.841C2733.79 265.915 2594.01 243.16 2556.09 248.578C2518.16 253.996 2502.99 209.569 2480.23 153.223C2462.03 108.146 2415.58 201.623 2394.63 253.996C2381.63 276.029 2351.29 324.429 2333.95 341.766C2312.28 363.437 2304.7 355.852 2286.27 341.766C2267.85 327.679 2275.44 352.602 2286.27 375.357C2297.11 398.112 2284.11 399.196 2261.35 382.942C2238.6 366.688 2264.6 414.366 2261.35 432.786C2258.1 451.207 2250.52 449.04 2235.35 432.786C2220.18 416.533 2233.18 457.709 2235.35 483.715Z" fill="white" stroke="#1E1E1E" stroke-width="20.7739"/>
<path d="M2599.43 610.484C2590.76 604.705 2576.02 586.862 2586.43 561.723C2585.34 571.836 2575.16 592.713 2543.08 595.314" stroke="#1E1E1E" stroke-width="31.1101" stroke-linecap="round"/>
<circle cx="2479.15" cy="482.622" r="55.2625" fill="#1E1E1E"/>
<circle cx="2717.54" cy="543.302" r="55.2625" fill="#1E1E1E"/>
<ellipse cx="2585.95" cy="551.365" rx="24.9223" ry="14.0865" transform="rotate(14.7921 2585.95 551.365)" fill="#1E1E1E"/>
<path d="M2526.83 491.29C2530.08 490.207 2605.93 479.371 2669.86 528.132" stroke="#1E1E1E" stroke-width="12.444" stroke-linecap="round"/>
</g>
<path d="M301.587 187.412C301.587 168.971 314.836 159.751 341.333 159.751C347.42 159.751 353.328 162.078 359.058 166.733C364.787 171.388 367.651 177.834 367.651 186.069C367.651 194.305 365.055 205.226 359.863 218.833C354.671 232.44 351.449 245.33 350.195 257.505C348.942 269.679 346.167 311.932 341.87 384.263C337.573 456.593 334.798 495.444 333.545 500.815C331.038 511.558 325.757 516.929 317.7 516.929C301.766 516.929 285.653 506.455 269.36 485.508C265.601 480.674 240.983 441.017 195.508 366.538C150.212 291.88 123.625 254.551 115.747 254.551L112.256 256.699C110.824 258.848 109.57 264.219 108.496 272.812C102.767 321.868 99.9023 374.953 99.9023 432.065C99.9023 438.153 100.26 444.777 100.977 451.938L102.051 461.069C103.125 470.021 103.662 475.571 103.662 477.72C103.662 490.073 99.4548 500.01 91.04 507.529C82.8044 515.049 73.1364 518.809 62.0361 518.809H52.9053C41.626 518.809 35.9863 514.601 35.9863 506.187C35.9863 497.593 38.4033 488.014 43.2373 477.451C48.0713 466.888 51.2939 454.893 52.9053 441.465C60.6038 376.833 64.4531 307.456 64.4531 233.335C64.4531 220.623 63.5579 210.06 61.7676 201.646L59.3506 192.515L56.665 184.189C55.2327 179.176 54.5166 174.253 54.5166 169.419C54.5166 162.795 60.8724 159.482 73.584 159.482C97.9329 159.482 119.686 170.225 138.843 191.709C158.179 213.014 187.272 255.177 226.123 318.198C264.974 381.219 285.921 412.729 288.965 412.729L292.725 411.655C293.799 410.044 294.873 404.315 295.947 394.468C302.572 332.342 305.884 277.826 305.884 230.918C305.884 226.8 305.436 220.534 304.541 212.119L303.467 203.525C302.214 194.753 301.587 189.382 301.587 187.412ZM505.957 492.759H512.939C527.62 492.759 540.511 487.835 551.611 477.988C562.891 467.962 568.53 456.414 568.53 443.345L569.067 439.854V436.362L569.604 428.037V412.729C569.604 402.345 564.323 397.153 553.76 397.153H541.675L539.795 397.422L529.321 398.228C524.308 398.944 520.728 399.302 518.579 399.302C504.077 399.302 490.649 404.762 478.296 415.684C469.702 423.382 465.405 434.303 465.405 448.447V453.818C465.405 465.814 469.255 475.303 476.953 482.285C484.831 489.268 494.499 492.759 505.957 492.759ZM446.069 321.152C434.074 321.152 428.076 313.454 428.076 298.057C428.076 286.598 437.744 276.662 457.08 268.247C476.595 259.653 496.826 255.356 517.773 255.356H531.201C549.284 255.356 565.218 258.758 579.004 265.562C592.79 272.186 603.263 281.227 610.425 292.686C617.765 304.144 622.241 319.093 623.853 337.534C624.211 341.831 624.39 362.689 624.39 400.107C624.39 437.526 624.837 459.1 625.732 464.829C626.807 470.379 629.671 477.183 634.326 485.239C639.16 493.296 641.577 499.92 641.577 505.112C641.577 510.304 639.071 514.78 634.058 518.54C629.224 522.121 622.152 523.911 612.842 523.911C603.532 523.911 593.416 521.673 582.495 517.197C571.574 512.542 563.607 510.215 558.594 510.215C558.057 510.215 549.105 513.438 531.738 519.883C514.372 526.149 499.691 529.282 487.695 529.282H481.787C461.735 529.282 444.637 522.926 430.493 510.215C416.528 497.503 409.546 479.421 409.546 455.967C409.546 432.513 417.244 414.251 432.642 401.182C448.039 387.933 466.748 378.892 488.77 374.058C495.394 372.625 506.405 370.745 521.802 368.418C537.199 366.09 547.673 363.674 553.223 361.167C562.891 356.691 567.725 348.276 567.725 335.923C567.725 323.39 563.607 313.633 555.371 306.65C547.135 299.489 537.288 295.908 525.83 295.908C514.551 295.908 499.691 300.116 481.25 308.53C462.809 316.945 451.082 321.152 446.069 321.152ZM750.61 396.348V416.758C750.61 438.063 755.444 455.877 765.112 470.2C774.959 484.344 786.507 491.416 799.756 491.416H807.275C827.686 491.416 843.441 483.27 854.541 466.978C865.82 450.685 871.46 426.426 871.46 394.199C871.818 390.26 871.997 387.396 871.997 385.605L872.534 380.234L872.803 368.955V349.888C872.803 313.364 858.211 295.103 829.028 295.103H818.555C799.577 295.103 783.464 304.681 770.215 323.838C757.145 342.995 750.61 367.165 750.61 396.348ZM699.048 408.701C699.048 390.081 702.36 371.104 708.984 351.768C715.609 332.432 724.919 315.96 736.914 302.354C748.91 288.568 762.427 278.631 777.466 272.544C792.505 266.278 810.319 263.145 830.908 263.145C851.676 263.145 864.567 259.385 869.58 251.865C874.593 244.167 877.1 227.248 877.1 201.108C877.1 196.274 876.294 189.829 874.683 181.772C873.071 173.716 872.266 169.061 872.266 167.808C872.266 160.109 875.578 153.127 882.202 146.86C888.826 140.415 897.51 137.192 908.252 137.192H913.623C922.038 137.192 928.304 139.162 932.422 143.101C936.54 147.039 938.599 155.275 938.599 167.808V192.783L938.062 205.405C937.882 209.702 937.793 215.968 937.793 224.204C937.793 232.261 936.45 258.221 933.765 302.085C931.079 345.949 929.736 376.117 929.736 392.588L929.468 399.033C929.289 403.33 929.199 407.448 929.199 411.387L928.931 417.563C928.931 417.563 928.931 424.546 928.931 438.511C928.931 456.593 930.363 470.2 933.228 479.331C936.092 488.462 937.524 494.997 937.524 498.936C937.524 502.874 935.286 506.992 930.811 511.289C926.335 515.586 919.352 517.734 909.863 517.734C900.553 517.734 891.512 516.213 882.739 513.169C873.966 509.946 867.521 508.335 863.403 508.335C859.285 508.335 853.914 509.588 847.29 512.095C827.238 519.435 808.887 523.105 792.236 523.105C791.878 523.105 791.52 523.105 791.162 523.105H784.985C757.951 523.105 736.825 513.258 721.606 493.564C706.567 473.691 699.048 447.642 699.048 415.415V408.701ZM1093.02 492.759H1100C1114.68 492.759 1127.57 487.835 1138.67 477.988C1149.95 467.962 1155.59 456.414 1155.59 443.345L1156.13 439.854V436.362L1156.67 428.037V412.729C1156.67 402.345 1151.38 397.153 1140.82 397.153H1128.74L1126.86 397.422L1116.38 398.228C1111.37 398.944 1107.79 399.302 1105.64 399.302C1091.14 399.302 1077.71 404.762 1065.36 415.684C1056.76 423.382 1052.47 434.303 1052.47 448.447V453.818C1052.47 465.814 1056.32 475.303 1064.01 482.285C1071.89 489.268 1081.56 492.759 1093.02 492.759ZM1033.13 321.152C1021.13 321.152 1015.14 313.454 1015.14 298.057C1015.14 286.598 1024.8 276.662 1044.14 268.247C1063.66 259.653 1083.89 255.356 1104.83 255.356H1118.26C1136.34 255.356 1152.28 258.758 1166.06 265.562C1179.85 272.186 1190.32 281.227 1197.49 292.686C1204.83 304.144 1209.3 319.093 1210.91 337.534C1211.27 341.831 1211.45 362.689 1211.45 400.107C1211.45 437.526 1211.9 459.1 1212.79 464.829C1213.87 470.379 1216.73 477.183 1221.39 485.239C1226.22 493.296 1228.64 499.92 1228.64 505.112C1228.64 510.304 1226.13 514.78 1221.12 518.54C1216.28 522.121 1209.21 523.911 1199.9 523.911C1190.59 523.911 1180.48 521.673 1169.56 517.197C1158.63 512.542 1150.67 510.215 1145.65 510.215C1145.12 510.215 1136.17 513.438 1118.8 519.883C1101.43 526.149 1086.75 529.282 1074.76 529.282H1068.85C1048.8 529.282 1031.7 522.926 1017.55 510.215C1003.59 497.503 996.606 479.421 996.606 455.967C996.606 432.513 1004.31 414.251 1019.7 401.182C1035.1 387.933 1053.81 378.892 1075.83 374.058C1082.45 372.625 1093.47 370.745 1108.86 368.418C1124.26 366.09 1134.73 363.674 1140.28 361.167C1149.95 356.691 1154.79 348.276 1154.79 335.923C1154.79 323.39 1150.67 313.633 1142.43 306.65C1134.2 299.489 1124.35 295.908 1112.89 295.908C1101.61 295.908 1086.75 300.116 1068.31 308.53C1049.87 316.945 1038.14 321.152 1033.13 321.152ZM1537.74 494.37C1537.74 507.619 1526.2 514.243 1503.1 514.243C1490.03 514.243 1481.26 511.11 1476.78 504.844C1474.63 501.8 1473.56 494.639 1473.56 483.359L1472.75 466.172C1471.5 447.373 1470.87 428.485 1470.87 409.507C1470.87 368.507 1467.29 341.025 1460.13 327.061C1453.15 312.917 1441.33 305.845 1424.68 305.845C1413.58 305.845 1403.29 309.157 1393.8 315.781C1384.49 322.406 1377.33 331.626 1372.31 343.442C1361.93 367.612 1356.74 412.282 1356.74 477.451C1356.74 492.311 1353.87 502.785 1348.14 508.872C1342.59 514.959 1335.43 518.003 1326.66 518.003H1321.29C1301.24 518.003 1291.21 510.036 1291.21 494.102V487.656C1291.21 485.687 1292.29 481.39 1294.43 474.766L1298.73 462.412C1303.03 447.91 1305.18 416.847 1305.18 369.224L1306.52 289.463C1306.52 279.258 1312.07 274.155 1323.17 274.155C1334.27 274.155 1345.19 277.826 1355.93 285.166C1366.85 292.507 1373.75 296.177 1376.61 296.177C1379.65 296.177 1384.94 294.118 1392.46 290C1417.7 276.214 1437.93 269.321 1453.15 269.321H1460.13C1487.52 269.321 1506.77 281.675 1517.87 306.382C1523.24 318.019 1525.93 343.084 1525.93 381.577V383.457C1525.93 386.68 1525.84 389.902 1525.66 393.125C1525.66 401.898 1525.66 406.463 1525.66 406.821C1525.66 410.223 1525.66 413.535 1525.66 416.758C1525.66 419.264 1525.66 421.681 1525.66 424.009C1525.66 437.795 1526.11 447.194 1527 452.207C1528.26 459.01 1530.31 466.082 1533.18 473.423C1536.22 481.479 1537.74 488.462 1537.74 494.37ZM1739.43 497.861C1739.43 505.023 1735.04 511.468 1726.27 517.197C1717.68 522.747 1705.95 525.522 1691.09 525.522C1663.34 525.522 1643.82 515.228 1632.54 494.639C1625.56 481.748 1622.07 451.58 1622.07 404.136C1622.07 356.691 1621.26 329.119 1619.65 321.421C1618.04 313.722 1613.57 306.203 1606.23 298.862C1598.89 291.522 1595.21 285.882 1595.21 281.943C1595.21 280.511 1603.9 271.112 1621.26 253.745C1625.02 249.985 1628.78 241.66 1632.54 228.77C1636.48 215.879 1639.26 207.375 1640.87 203.257C1646.24 190.366 1653.31 183.921 1662.08 183.921H1666.38C1674.08 183.921 1679.54 186.875 1682.76 192.783C1684.02 195.111 1685.9 203.525 1688.4 218.027C1691.09 232.35 1694.13 241.571 1697.53 245.688C1700.94 249.806 1709.44 254.372 1723.05 259.385C1736.83 264.219 1743.73 269.411 1743.73 274.961V277.915C1743.73 285.076 1735.85 291.164 1720.09 296.177C1704.52 301.011 1694.49 308.799 1690.01 319.541C1681.24 341.204 1676.86 376.475 1676.86 425.352C1676.86 448.268 1680.79 463.844 1688.67 472.08C1693.51 477.093 1703.17 480.584 1717.68 482.554C1732.18 484.523 1739.43 489.626 1739.43 497.861ZM1885.79 492.759H1892.77C1907.45 492.759 1920.35 487.835 1931.45 477.988C1942.72 467.962 1948.36 456.414 1948.36 443.345L1948.9 439.854V436.362L1949.44 428.037V412.729C1949.44 402.345 1944.16 397.153 1933.59 397.153H1921.51L1919.63 397.422L1909.16 398.228C1904.14 398.944 1900.56 399.302 1898.41 399.302C1883.91 399.302 1870.48 404.762 1858.13 415.684C1849.54 423.382 1845.24 434.303 1845.24 448.447V453.818C1845.24 465.814 1849.09 475.303 1856.79 482.285C1864.66 489.268 1874.33 492.759 1885.79 492.759ZM1825.9 321.152C1813.91 321.152 1807.91 313.454 1807.91 298.057C1807.91 286.598 1817.58 276.662 1836.91 268.247C1856.43 259.653 1876.66 255.356 1897.61 255.356H1911.04C1929.12 255.356 1945.05 258.758 1958.84 265.562C1972.62 272.186 1983.1 281.227 1990.26 292.686C1997.6 304.144 2002.08 319.093 2003.69 337.534C2004.04 341.831 2004.22 362.689 2004.22 400.107C2004.22 437.526 2004.67 459.1 2005.57 464.829C2006.64 470.379 2009.51 477.183 2014.16 485.239C2018.99 493.296 2021.41 499.92 2021.41 505.112C2021.41 510.304 2018.9 514.78 2013.89 518.54C2009.06 522.121 2001.99 523.911 1992.68 523.911C1983.37 523.911 1973.25 521.673 1962.33 517.197C1951.41 512.542 1943.44 510.215 1938.43 510.215C1937.89 510.215 1928.94 513.438 1911.57 519.883C1894.21 526.149 1879.52 529.282 1867.53 529.282H1861.62C1841.57 529.282 1824.47 522.926 1810.33 510.215C1796.36 497.503 1789.38 479.421 1789.38 455.967C1789.38 432.513 1797.08 414.251 1812.48 401.182C1827.87 387.933 1846.58 378.892 1868.6 374.058C1875.23 372.625 1886.24 370.745 1901.64 368.418C1917.03 366.09 1927.51 363.674 1933.06 361.167C1942.72 356.691 1947.56 348.276 1947.56 335.923C1947.56 323.39 1943.44 313.633 1935.21 306.65C1926.97 299.489 1917.12 295.908 1905.66 295.908C1894.38 295.908 1879.52 300.116 1861.08 308.53C1842.64 316.945 1830.92 321.152 1825.9 321.152Z" fill="white"/>
<mask id="path-10-outside-1_2045_4" maskUnits="userSpaceOnUse" x="1701" y="627.597" width="305" height="178" fill="black">
<rect fill="white" x="1701" y="627.597" width="305" height="178"/>
<path d="M1788.62 667.321C1791.63 667.321 1793.13 670.503 1793.13 676.867C1793.13 681.623 1789.5 686.763 1782.22 692.288C1780.06 693.966 1771.21 699.491 1755.68 708.863C1740.23 718.234 1732.5 723.13 1732.5 723.549C1732.5 723.899 1734.88 725.403 1739.63 728.06C1744.46 730.718 1752.64 735.578 1764.18 742.642C1775.72 749.635 1781.56 753.167 1781.7 753.237C1789.6 758.622 1793.55 763.623 1793.55 768.238V770.022C1793.55 775.966 1791.74 778.939 1788.1 778.939C1786.63 778.939 1783.73 777.785 1779.39 775.477C1755.96 763.098 1733.58 749.67 1712.25 735.194C1707.22 731.767 1704.7 727.885 1704.7 723.549C1704.7 719.213 1706.9 715.542 1711.31 712.534C1733.97 697.148 1756.8 683.196 1779.81 670.678C1783.94 668.44 1786.88 667.321 1788.62 667.321ZM1885.35 631.129H1887.23C1893.11 631.129 1896.05 632.283 1896.05 634.591V636.164C1896.05 637.493 1891.71 648.997 1883.04 670.678C1874.37 692.358 1865.87 713.898 1857.55 735.299C1849.22 756.699 1841.81 774.987 1835.31 790.163C1831.95 798.066 1827.89 802.018 1823.14 802.018H1821.35C1815.48 802.018 1812.54 800.864 1812.54 798.556V796.982C1812.54 795.793 1813.73 792.157 1816.11 786.072C1843.24 716.346 1862.3 668.649 1873.28 642.983C1876.64 635.08 1880.66 631.129 1885.35 631.129ZM1919.54 778.939C1915.98 778.939 1914.19 776.141 1914.19 770.546C1914.19 764.951 1917.66 759.636 1924.58 754.601C1926.54 753.202 1935.42 747.712 1951.23 738.131C1967.1 728.48 1975.04 723.619 1975.04 723.549C1975.04 722.99 1971.65 720.717 1964.86 716.73C1958.08 712.674 1952.97 709.562 1949.55 707.394C1946.19 705.226 1941.68 702.533 1936.01 699.316C1930.42 696.099 1926.36 693.407 1923.85 691.239C1917.69 685.994 1914.61 680.678 1914.61 675.293C1914.61 669.908 1916.01 667.216 1918.81 667.216C1924.47 667.216 1949.51 681.797 1993.92 710.961C1999.45 714.597 2002.21 718.654 2002.21 723.13C2002.21 727.536 1999.69 731.452 1994.66 734.879C1973.39 749.286 1951.23 762.783 1928.15 775.372C1923.81 777.75 1920.94 778.939 1919.54 778.939Z"/>
</mask>
<path d="M1788.62 667.321C1791.63 667.321 1793.13 670.503 1793.13 676.867C1793.13 681.623 1789.5 686.763 1782.22 692.288C1780.06 693.966 1771.21 699.491 1755.68 708.863C1740.23 718.234 1732.5 723.13 1732.5 723.549C1732.5 723.899 1734.88 725.403 1739.63 728.06C1744.46 730.718 1752.64 735.578 1764.18 742.642C1775.72 749.635 1781.56 753.167 1781.7 753.237C1789.6 758.622 1793.55 763.623 1793.55 768.238V770.022C1793.55 775.966 1791.74 778.939 1788.1 778.939C1786.63 778.939 1783.73 777.785 1779.39 775.477C1755.96 763.098 1733.58 749.67 1712.25 735.194C1707.22 731.767 1704.7 727.885 1704.7 723.549C1704.7 719.213 1706.9 715.542 1711.31 712.534C1733.97 697.148 1756.8 683.196 1779.81 670.678C1783.94 668.44 1786.88 667.321 1788.62 667.321ZM1885.35 631.129H1887.23C1893.11 631.129 1896.05 632.283 1896.05 634.591V636.164C1896.05 637.493 1891.71 648.997 1883.04 670.678C1874.37 692.358 1865.87 713.898 1857.55 735.299C1849.22 756.699 1841.81 774.987 1835.31 790.163C1831.95 798.066 1827.89 802.018 1823.14 802.018H1821.35C1815.48 802.018 1812.54 800.864 1812.54 798.556V796.982C1812.54 795.793 1813.73 792.157 1816.11 786.072C1843.24 716.346 1862.3 668.649 1873.28 642.983C1876.64 635.08 1880.66 631.129 1885.35 631.129ZM1919.54 778.939C1915.98 778.939 1914.19 776.141 1914.19 770.546C1914.19 764.951 1917.66 759.636 1924.58 754.601C1926.54 753.202 1935.42 747.712 1951.23 738.131C1967.1 728.48 1975.04 723.619 1975.04 723.549C1975.04 722.99 1971.65 720.717 1964.86 716.73C1958.08 712.674 1952.97 709.562 1949.55 707.394C1946.19 705.226 1941.68 702.533 1936.01 699.316C1930.42 696.099 1926.36 693.407 1923.85 691.239C1917.69 685.994 1914.61 680.678 1914.61 675.293C1914.61 669.908 1916.01 667.216 1918.81 667.216C1924.47 667.216 1949.51 681.797 1993.92 710.961C1999.45 714.597 2002.21 718.654 2002.21 723.13C2002.21 727.536 1999.69 731.452 1994.66 734.879C1973.39 749.286 1951.23 762.783 1928.15 775.372C1923.81 777.75 1920.94 778.939 1919.54 778.939Z" fill="white"/>
<path d="M1782.22 692.288L1780.41 689.899L1780.4 689.907L1780.39 689.916L1782.22 692.288ZM1755.68 708.863L1754.13 706.294L1754.13 706.297L1755.68 708.863ZM1739.63 728.06L1738.17 730.679L1738.18 730.684L1738.19 730.688L1739.63 728.06ZM1764.18 742.642L1762.61 745.201L1762.63 745.207L1764.18 742.642ZM1781.7 753.237L1783.39 750.758L1783.22 750.644L1783.04 750.554L1781.7 753.237ZM1779.39 775.477L1780.8 772.829L1780.79 772.824L1779.39 775.477ZM1712.25 735.194L1710.57 737.674L1710.57 737.676L1712.25 735.194ZM1711.31 712.534L1709.62 710.052L1709.62 710.056L1711.31 712.534ZM1779.81 670.678L1778.38 668.04L1778.38 668.042L1779.81 670.678ZM1788.62 667.321V670.321C1788.81 670.321 1788.86 670.36 1788.87 670.369C1788.91 670.397 1789.08 670.535 1789.29 670.989C1789.76 671.975 1790.13 673.826 1790.13 676.867H1793.13H1796.13C1796.13 673.544 1795.76 670.622 1794.72 668.426C1794.18 667.288 1793.41 666.233 1792.33 665.466C1791.21 664.679 1789.94 664.321 1788.62 664.321V667.321ZM1793.13 676.867H1790.13C1790.13 680.103 1787.57 684.458 1780.41 689.899L1782.22 692.288L1784.04 694.677C1791.42 689.067 1796.13 683.142 1796.13 676.867H1793.13ZM1782.22 692.288L1780.39 689.916C1778.4 691.457 1769.76 696.862 1754.13 706.294L1755.68 708.863L1757.23 711.431C1772.66 702.121 1781.72 696.475 1784.06 694.66L1782.22 692.288ZM1755.68 708.863L1754.13 706.297C1746.4 710.986 1740.58 714.565 1736.69 717.029C1734.75 718.258 1733.26 719.226 1732.25 719.924C1731.75 720.267 1731.32 720.577 1730.99 720.835C1730.84 720.957 1730.64 721.123 1730.45 721.311C1730.37 721.4 1730.21 721.567 1730.05 721.792C1729.99 721.891 1729.5 722.561 1729.5 723.549H1732.5H1735.5C1735.5 724.511 1735.03 725.146 1734.99 725.202C1734.87 725.383 1734.75 725.497 1734.73 725.525C1734.66 725.591 1734.64 725.599 1734.73 725.529C1734.89 725.403 1735.18 725.188 1735.65 724.867C1736.57 724.236 1737.98 723.316 1739.9 722.097C1743.74 719.666 1749.52 716.111 1757.24 711.428L1755.68 708.863ZM1732.5 723.549H1729.5C1729.5 724.363 1729.82 724.948 1729.96 725.175C1730.12 725.451 1730.3 725.656 1730.42 725.779C1730.65 726.029 1730.9 726.24 1731.1 726.394C1731.52 726.717 1732.06 727.083 1732.68 727.475C1733.94 728.271 1735.78 729.343 1738.17 730.679L1739.63 728.06L1741.1 725.441C1738.73 724.119 1737.01 723.111 1735.89 722.404C1735.32 722.044 1734.97 721.802 1734.79 721.662C1734.69 721.584 1734.72 721.599 1734.81 721.69C1734.85 721.733 1734.97 721.868 1735.1 722.082C1735.2 722.247 1735.5 722.779 1735.5 723.549H1732.5ZM1739.63 728.06L1738.19 730.688C1742.94 733.309 1751.07 738.136 1762.61 745.201L1764.18 742.642L1765.75 740.083C1754.21 733.02 1745.97 728.127 1741.08 725.432L1739.63 728.06ZM1764.18 742.642L1762.63 745.207C1768.4 748.704 1772.74 751.336 1775.66 753.103C1777.12 753.986 1778.23 754.654 1778.98 755.105C1779.35 755.331 1779.64 755.504 1779.84 755.624C1779.95 755.687 1780.21 755.845 1780.36 755.92L1781.7 753.237L1783.04 750.554C1783.16 750.612 1783.21 750.644 1782.92 750.474C1782.73 750.359 1782.45 750.19 1782.07 749.966C1781.33 749.517 1780.23 748.852 1778.77 747.969C1775.85 746.204 1771.51 743.573 1765.74 740.076L1764.18 742.642ZM1781.7 753.237L1780.01 755.716C1783.82 758.314 1786.52 760.713 1788.24 762.886C1789.95 765.056 1790.55 766.822 1790.55 768.238H1793.55H1796.55C1796.55 765.039 1795.18 761.997 1792.94 759.166C1790.71 756.34 1787.48 753.545 1783.39 750.758L1781.7 753.237ZM1793.55 768.238H1790.55V770.022H1793.55H1796.55V768.238H1793.55ZM1793.55 770.022H1790.55C1790.55 772.786 1790.11 774.355 1789.63 775.144C1789.3 775.693 1788.93 775.939 1788.1 775.939V778.939V781.939C1790.91 781.939 1793.27 780.699 1794.75 778.275C1796.09 776.092 1796.55 773.202 1796.55 770.022H1793.55ZM1788.1 778.939V775.939C1788.11 775.939 1788.06 775.939 1787.95 775.921C1787.84 775.904 1787.69 775.873 1787.49 775.822C1787.1 775.717 1786.58 775.545 1785.93 775.285C1784.62 774.766 1782.92 773.956 1780.8 772.829L1779.39 775.477L1777.98 778.125C1780.2 779.305 1782.12 780.227 1783.71 780.861C1785.21 781.456 1786.76 781.939 1788.1 781.939V778.939ZM1779.39 775.477L1780.79 772.824C1757.46 760.496 1735.17 747.125 1713.94 732.711L1712.25 735.194L1710.57 737.676C1731.99 752.216 1754.47 765.701 1777.99 778.129L1779.39 775.477ZM1712.25 735.194L1713.94 732.713C1709.37 729.6 1707.7 726.525 1707.7 723.549H1704.7H1701.7C1701.7 729.246 1705.07 733.933 1710.57 737.674L1712.25 735.194ZM1704.7 723.549H1707.7C1707.7 720.438 1709.2 717.607 1713 715.012L1711.31 712.534L1709.62 710.056C1704.61 713.477 1701.7 717.988 1701.7 723.549H1704.7ZM1711.31 712.534L1712.99 715.016C1735.58 699.683 1758.33 685.782 1781.25 673.313L1779.81 670.678L1778.38 668.042C1755.28 680.61 1732.36 694.614 1709.62 710.052L1711.31 712.534ZM1779.81 670.678L1781.24 673.315C1783.24 672.231 1784.88 671.459 1786.18 670.963C1787.53 670.447 1788.3 670.321 1788.62 670.321V667.321V664.321C1787.2 664.321 1785.62 664.754 1784.04 665.356C1782.4 665.98 1780.51 666.886 1778.38 668.04L1779.81 670.678ZM1857.55 735.299L1854.75 734.211L1857.55 735.299ZM1835.31 790.163L1832.55 788.982L1832.54 788.991L1835.31 790.163ZM1816.11 786.072L1818.9 787.164L1818.9 787.16L1816.11 786.072ZM1873.28 642.983L1876.04 644.163L1876.04 644.156L1873.28 642.983ZM1885.35 631.129V634.129H1887.23V631.129V628.129H1885.35V631.129ZM1887.23 631.129V634.129C1890.06 634.129 1891.81 634.419 1892.75 634.786C1893.19 634.961 1893.26 635.08 1893.21 635.017C1893.11 634.898 1893.05 634.712 1893.05 634.591H1896.05H1899.05C1899.05 633.316 1898.62 632.12 1897.78 631.135C1896.99 630.206 1895.96 629.605 1894.94 629.202C1892.94 628.416 1890.28 628.129 1887.23 628.129V631.129ZM1896.05 634.591H1893.05V636.164H1896.05H1899.05V634.591H1896.05ZM1896.05 636.164H1893.05C1893.05 635.848 1893.11 635.774 1892.95 636.331C1892.84 636.741 1892.65 637.328 1892.39 638.108C1891.86 639.663 1891.07 641.866 1889.99 644.731C1887.83 650.455 1884.59 658.729 1880.25 669.563L1883.04 670.678L1885.82 671.792C1890.16 660.946 1893.42 652.628 1895.6 646.847C1896.69 643.96 1897.52 641.682 1898.07 640.029C1898.35 639.206 1898.58 638.506 1898.73 637.948C1898.85 637.536 1899.05 636.812 1899.05 636.164H1896.05ZM1883.04 670.678L1880.25 669.563C1871.58 691.252 1863.08 712.802 1854.75 734.211L1857.55 735.299L1860.34 736.386C1868.66 714.995 1877.15 693.463 1885.82 671.792L1883.04 670.678ZM1857.55 735.299L1854.75 734.211C1846.44 755.591 1839.04 773.846 1832.55 788.982L1835.31 790.163L1838.06 791.345C1844.58 776.128 1852.01 757.807 1860.34 736.386L1857.55 735.299ZM1835.31 790.163L1832.54 788.991C1829.26 796.727 1825.92 799.018 1823.14 799.018V802.018V805.018C1829.86 805.018 1834.64 799.406 1838.07 791.336L1835.31 790.163ZM1823.14 802.018V799.018H1821.35V802.018V805.018H1823.14V802.018ZM1821.35 802.018V799.018C1818.53 799.018 1816.78 798.728 1815.84 798.36C1815.4 798.186 1815.33 798.066 1815.38 798.129C1815.48 798.249 1815.54 798.435 1815.54 798.556H1812.54H1809.54C1809.54 799.831 1809.97 801.027 1810.8 802.011C1811.59 802.94 1812.62 803.542 1813.65 803.944C1815.65 804.731 1818.31 805.018 1821.35 805.018V802.018ZM1812.54 798.556H1815.54V796.982H1812.54H1809.54V798.556H1812.54ZM1812.54 796.982H1815.54C1815.54 797.069 1815.54 796.914 1815.68 796.349C1815.8 795.846 1816 795.167 1816.28 794.295C1816.85 792.555 1817.72 790.185 1818.9 787.164L1816.11 786.072L1813.31 784.98C1812.12 788.044 1811.2 790.534 1810.58 792.431C1810.27 793.377 1810.02 794.211 1809.85 794.914C1809.69 795.555 1809.54 796.301 1809.54 796.982H1812.54ZM1816.11 786.072L1818.9 787.16C1846.04 717.43 1865.08 669.777 1876.04 644.163L1873.28 642.983L1870.52 641.803C1859.52 667.521 1840.45 715.262 1813.31 784.984L1816.11 786.072ZM1873.28 642.983L1876.04 644.156C1879.34 636.395 1882.65 634.129 1885.35 634.129V631.129V628.129C1878.67 628.129 1873.94 633.765 1870.52 641.81L1873.28 642.983ZM1924.58 754.601L1922.84 752.16L1922.83 752.167L1922.81 752.175L1924.58 754.601ZM1951.23 738.131L1952.78 740.696L1952.78 740.694L1951.23 738.131ZM1964.86 716.73L1963.32 719.305L1963.33 719.311L1963.34 719.317L1964.86 716.73ZM1949.55 707.394L1947.92 709.914L1947.93 709.922L1947.94 709.929L1949.55 707.394ZM1936.01 699.316L1934.52 701.917L1934.53 701.921L1934.53 701.925L1936.01 699.316ZM1923.85 691.239L1925.8 688.965L1925.8 688.96L1925.79 688.956L1923.85 691.239ZM1993.92 710.961L1995.57 708.455L1995.57 708.453L1993.92 710.961ZM1994.66 734.879L1996.34 737.362L1996.34 737.359L1994.66 734.879ZM1928.15 775.372L1926.71 772.738L1926.7 772.741L1928.15 775.372ZM1919.54 778.939V775.939C1918.69 775.939 1918.35 775.687 1918.06 775.228C1917.62 774.539 1917.19 773.122 1917.19 770.546H1914.19H1911.19C1911.19 773.566 1911.66 776.345 1913 778.453C1914.49 780.791 1916.83 781.939 1919.54 781.939V778.939ZM1914.19 770.546H1917.19C1917.19 766.338 1919.77 761.807 1926.34 757.027L1924.58 754.601L1922.81 752.175C1915.54 757.465 1911.19 763.565 1911.19 770.546H1914.19ZM1924.58 754.601L1926.32 757.042C1928.16 755.729 1936.9 750.322 1952.78 740.696L1951.23 738.131L1949.67 735.566C1933.94 745.103 1924.91 750.676 1922.84 752.16L1924.58 754.601ZM1951.23 738.131L1952.78 740.694C1960.72 735.868 1966.68 732.238 1970.65 729.806C1972.64 728.59 1974.13 727.67 1975.13 727.048C1975.63 726.739 1976.02 726.497 1976.28 726.328C1976.41 726.246 1976.53 726.169 1976.62 726.106C1976.66 726.078 1976.73 726.031 1976.81 725.976C1976.83 725.955 1976.92 725.891 1977.02 725.802C1977.06 725.765 1977.18 725.658 1977.32 725.503C1977.38 725.429 1977.51 725.272 1977.64 725.051C1977.72 724.899 1978.04 724.342 1978.04 723.549H1975.04H1972.04C1972.04 722.757 1972.35 722.201 1972.44 722.05C1972.57 721.829 1972.7 721.674 1972.76 721.6C1972.89 721.448 1973.01 721.344 1973.04 721.31C1973.14 721.228 1973.21 721.173 1973.22 721.164C1973.27 721.132 1973.29 721.117 1973.27 721.131C1973.24 721.151 1973.17 721.196 1973.05 721.272C1972.82 721.42 1972.46 721.645 1971.97 721.952C1970.98 722.563 1969.5 723.474 1967.52 724.689C1963.55 727.116 1957.6 730.742 1949.67 735.567L1951.23 738.131ZM1975.04 723.549H1978.04C1978.04 722.8 1977.77 722.242 1977.63 721.983C1977.47 721.688 1977.29 721.458 1977.16 721.305C1976.89 720.999 1976.59 720.727 1976.33 720.506C1975.78 720.05 1975.04 719.519 1974.16 718.933C1972.39 717.746 1969.79 716.145 1966.38 714.144L1964.86 716.73L1963.34 719.317C1966.72 721.302 1969.2 722.831 1970.82 723.917C1971.64 724.467 1972.18 724.859 1972.48 725.111C1972.64 725.244 1972.65 725.272 1972.6 725.213C1972.58 725.184 1972.48 725.064 1972.37 724.866C1972.28 724.703 1972.04 724.228 1972.04 723.549H1975.04ZM1964.86 716.73L1966.4 714.156C1959.62 710.103 1954.54 707.006 1951.15 704.859L1949.55 707.394L1947.94 709.929C1951.4 712.118 1956.53 715.246 1963.32 719.305L1964.86 716.73ZM1949.55 707.394L1951.17 704.874C1947.75 702.662 1943.18 699.938 1937.5 696.708L1936.01 699.316L1934.53 701.925C1940.17 705.129 1944.63 707.79 1947.92 709.914L1949.55 707.394ZM1936.01 699.316L1937.51 696.716C1931.96 693.522 1928.1 690.943 1925.8 688.965L1923.85 691.239L1921.89 693.512C1924.63 695.87 1928.88 698.676 1934.52 701.917L1936.01 699.316ZM1923.85 691.239L1925.79 688.956C1919.97 683.991 1917.61 679.434 1917.61 675.293H1914.61H1911.61C1911.61 681.923 1915.42 687.997 1921.9 693.522L1923.85 691.239ZM1914.61 675.293H1917.61C1917.61 672.763 1917.96 671.323 1918.32 670.618C1918.41 670.462 1918.47 670.368 1918.52 670.315C1918.56 670.265 1918.59 670.248 1918.59 670.245C1918.6 670.244 1918.6 670.24 1918.62 670.235C1918.64 670.229 1918.7 670.216 1918.81 670.216V667.216V664.216C1917.61 664.216 1916.42 664.512 1915.35 665.196C1914.3 665.871 1913.54 666.814 1913 667.852C1911.97 669.84 1911.61 672.439 1911.61 675.293H1914.61ZM1918.81 667.216V670.216C1919 670.216 1919.62 670.303 1920.86 670.734C1922.03 671.14 1923.54 671.774 1925.4 672.66C1929.13 674.43 1934.1 677.116 1940.33 680.744C1952.78 687.995 1970.08 698.896 1992.27 713.468L1993.92 710.961L1995.57 708.453C1973.35 693.862 1955.93 682.891 1943.35 675.56C1937.06 671.897 1931.93 669.115 1927.98 667.24C1926.01 666.303 1924.28 665.57 1922.83 665.065C1921.44 664.584 1920.04 664.216 1918.81 664.216V667.216ZM1993.92 710.961L1992.27 713.467C1997.38 716.831 1999.21 720.088 1999.21 723.13H2002.21H2005.21C2005.21 717.22 2001.51 712.363 1995.57 708.455L1993.92 710.961ZM2002.21 723.13H1999.21C1999.21 726.19 1997.52 729.298 1992.97 732.399L1994.66 734.879L1996.34 737.359C2001.86 733.606 2005.21 728.881 2005.21 723.13H2002.21ZM1994.66 734.879L1992.97 732.395C1971.79 746.747 1949.71 760.195 1926.71 772.738L1928.15 775.372L1929.58 778.006C1952.74 765.372 1975 751.825 1996.34 737.362L1994.66 734.879ZM1928.15 775.372L1926.7 772.741C1924.58 773.905 1922.89 774.74 1921.59 775.276C1920.95 775.543 1920.44 775.72 1920.06 775.826C1919.66 775.939 1919.51 775.939 1919.54 775.939V778.939V781.939C1920.89 781.939 1922.43 781.424 1923.89 780.818C1925.47 780.165 1927.37 779.217 1929.59 778.002L1928.15 775.372Z" fill="white" mask="url(#path-10-outside-1_2045_4)"/>
</svg>
