<svg width="3063" height="900" viewBox="0 0 3063 900" fill="none" xmlns="http://www.w3.org/2000/svg">
<circle cx="449.666" cy="449.666" r="436.682" fill="#D9D9D9" stroke="#1E1E1E" stroke-width="25.9674"/>
<mask id="mask0_2045_5" style="mask-type:alpha" maskUnits="userSpaceOnUse" x="12" y="2" width="875" height="874">
<circle cx="449.666" cy="439.279" r="436.682" fill="#FBB12A"/>
</mask>
<g mask="url(#mask0_2045_5)">
<path d="M69.3301 483.715C71.0639 504.519 57.772 530.67 50.9093 541.144L17.3184 628.914L50.9093 700.43L223.198 887.89L567.776 904.143L759.57 763.278L767.155 749.191V740.523L759.57 647.335C755.958 629.998 755.885 590.122 784.492 569.317C820.25 543.311 805.08 535.726 796.411 541.144C787.743 546.562 735.731 561.732 779.074 518.389C822.417 475.046 783.408 483.715 767.155 483.715C750.901 483.715 758.486 464.21 790.993 443.622C823.501 423.034 781.241 421.951 767.155 420.867C753.068 419.784 737.898 321.178 742.232 270.25C746.567 219.321 678.301 283.253 649.045 303.841C625.639 320.311 612.564 310.703 608.952 303.841C567.776 265.915 427.995 243.16 390.069 248.578C352.144 253.996 336.974 209.569 314.219 153.223C296.015 108.146 249.565 201.623 228.616 253.996C215.613 276.029 185.273 324.429 167.936 341.766C146.264 363.437 138.679 355.852 120.258 341.766C101.837 327.679 109.423 352.602 120.258 375.357C131.094 398.112 118.091 399.196 95.336 382.942C72.5809 366.688 98.5868 414.366 95.336 432.786C92.0853 451.207 84.5002 449.04 69.3301 432.786C54.16 416.533 67.163 457.709 69.3301 483.715Z" fill="white" stroke="#1E1E1E" stroke-width="20.7739"/>
<path d="M433.412 610.484C424.744 604.705 410.007 586.862 420.41 561.723C419.326 571.836 409.14 592.713 377.066 595.314" stroke="#1E1E1E" stroke-width="31.1101" stroke-linecap="round"/>
<circle cx="313.135" cy="482.622" r="55.2625" fill="#1E1E1E"/>
<circle cx="551.523" cy="543.302" r="55.2625" fill="#1E1E1E"/>
<ellipse cx="419.93" cy="551.365" rx="24.9223" ry="14.0865" transform="rotate(14.7921 419.93 551.365)" fill="#1E1E1E"/>
<path d="M360.812 491.29C364.063 490.207 439.914 479.371 503.845 528.132" stroke="#1E1E1E" stroke-width="12.444" stroke-linecap="round"/>
</g>
<mask id="path-9-outside-1_2045_5" maskUnits="userSpaceOnUse" x="492.969" y="671.649" width="167" height="98" fill="black">
<rect fill="white" x="492.969" y="671.649" width="167" height="98"/>
<path d="M540.121 693.349C541.996 693.349 542.933 695.223 542.933 698.972C542.933 701.421 541.211 704.041 537.768 706.834C537.654 706.91 534.555 708.88 528.473 712.744C522.428 716.608 517.952 719.4 515.045 721.122C512.176 722.843 510.741 723.742 510.741 723.819C510.741 723.895 513.381 725.597 518.66 728.926C523.939 732.215 528.052 734.721 530.997 736.443C533.981 738.126 536.2 739.522 537.654 740.631C541.479 743.539 543.392 746.389 543.392 749.181C543.392 752.816 542.512 754.633 540.752 754.633C537.348 754.633 524.838 747.536 503.224 733.344C499.743 731.087 497.62 729.538 496.855 728.696C496.09 727.854 495.707 726.42 495.707 724.392V723.36C495.707 721.217 496.951 719.285 499.437 717.564C510.149 710.066 522.103 702.606 535.301 695.185C537.481 693.961 539.088 693.349 540.121 693.349ZM560.606 767.142H558.655C555.519 767.142 553.95 766.472 553.95 765.134V764.273C553.95 760.753 565.35 732.388 588.15 679.175C589.642 675.733 591.707 674.011 594.347 674.011C598.172 674.011 600.085 674.7 600.085 676.077V676.995C600.085 677.837 599.588 679.405 598.593 681.7C597.599 683.996 596.967 685.545 596.7 686.348C596.432 687.113 596.221 687.668 596.068 688.012L594.003 693.177C592.549 696.543 591.574 698.896 591.076 700.235C590.617 701.535 590.349 702.243 590.273 702.358C590.235 702.473 586.581 711.462 579.313 729.327C572.083 747.192 568.047 757.1 567.205 759.051C564.834 764.445 562.634 767.142 560.606 767.142ZM612.881 754.575C611.007 754.575 610.07 752.988 610.07 749.813V748.837C610.07 746.465 611.868 743.864 615.464 741.033C616.19 740.459 620.915 737.533 629.637 732.254C638.359 726.975 642.72 724.259 642.72 724.105C642.72 723.952 638.302 721.122 629.465 715.613C620.628 710.104 615.827 707.044 615.062 706.432C611.848 703.831 610.242 700.961 610.242 697.825C610.242 694.688 611.313 693.119 613.455 693.119C613.991 693.119 615.865 694.018 619.079 695.816C633.386 703.85 645.015 711.156 653.967 717.736C656.109 719.305 657.18 721.428 657.18 724.105C657.18 726.783 655.956 728.926 653.508 730.532C640.807 739.14 628.527 746.676 616.669 753.141C614.909 754.097 613.646 754.575 612.881 754.575Z"/>
</mask>
<path d="M540.121 693.349C541.996 693.349 542.933 695.223 542.933 698.972C542.933 701.421 541.211 704.041 537.768 706.834C537.654 706.91 534.555 708.88 528.473 712.744C522.428 716.608 517.952 719.4 515.045 721.122C512.176 722.843 510.741 723.742 510.741 723.819C510.741 723.895 513.381 725.597 518.66 728.926C523.939 732.215 528.052 734.721 530.997 736.443C533.981 738.126 536.2 739.522 537.654 740.631C541.479 743.539 543.392 746.389 543.392 749.181C543.392 752.816 542.512 754.633 540.752 754.633C537.348 754.633 524.838 747.536 503.224 733.344C499.743 731.087 497.62 729.538 496.855 728.696C496.09 727.854 495.707 726.42 495.707 724.392V723.36C495.707 721.217 496.951 719.285 499.437 717.564C510.149 710.066 522.103 702.606 535.301 695.185C537.481 693.961 539.088 693.349 540.121 693.349ZM560.606 767.142H558.655C555.519 767.142 553.95 766.472 553.95 765.134V764.273C553.95 760.753 565.35 732.388 588.15 679.175C589.642 675.733 591.707 674.011 594.347 674.011C598.172 674.011 600.085 674.7 600.085 676.077V676.995C600.085 677.837 599.588 679.405 598.593 681.7C597.599 683.996 596.967 685.545 596.7 686.348C596.432 687.113 596.221 687.668 596.068 688.012L594.003 693.177C592.549 696.543 591.574 698.896 591.076 700.235C590.617 701.535 590.349 702.243 590.273 702.358C590.235 702.473 586.581 711.462 579.313 729.327C572.083 747.192 568.047 757.1 567.205 759.051C564.834 764.445 562.634 767.142 560.606 767.142ZM612.881 754.575C611.007 754.575 610.07 752.988 610.07 749.813V748.837C610.07 746.465 611.868 743.864 615.464 741.033C616.19 740.459 620.915 737.533 629.637 732.254C638.359 726.975 642.72 724.259 642.72 724.105C642.72 723.952 638.302 721.122 629.465 715.613C620.628 710.104 615.827 707.044 615.062 706.432C611.848 703.831 610.242 700.961 610.242 697.825C610.242 694.688 611.313 693.119 613.455 693.119C613.991 693.119 615.865 694.018 619.079 695.816C633.386 703.85 645.015 711.156 653.967 717.736C656.109 719.305 657.18 721.428 657.18 724.105C657.18 726.783 655.956 728.926 653.508 730.532C640.807 739.14 628.527 746.676 616.669 753.141C614.909 754.097 613.646 754.575 612.881 754.575Z" fill="#727272"/>
<path d="M537.768 706.834L539.047 708.751L539.136 708.691L539.22 708.623L537.768 706.834ZM528.473 712.744L527.237 710.799L527.231 710.802L528.473 712.744ZM515.045 721.122L513.871 719.139L513.86 719.146L515.045 721.122ZM518.66 728.926L517.431 730.875L517.441 730.881L518.66 728.926ZM530.997 736.443L529.835 738.432L529.85 738.441L529.865 738.45L530.997 736.443ZM537.654 740.631L536.256 742.463L536.259 742.466L537.654 740.631ZM503.224 733.344L504.489 731.418L504.478 731.411L503.224 733.344ZM496.855 728.696L498.56 727.146L496.855 728.696ZM499.437 717.564L500.749 719.459L500.759 719.452L499.437 717.564ZM535.301 695.185L534.173 693.176L534.172 693.176L535.301 695.185ZM540.121 693.349V695.653C540.186 695.653 540.141 695.663 540.073 695.618C540.02 695.582 540.071 695.59 540.169 695.785C540.397 696.241 540.628 697.215 540.628 698.972H542.933H545.237C545.237 696.98 545 695.143 544.291 693.724C543.92 692.982 543.386 692.287 542.629 691.783C541.859 691.269 540.993 691.044 540.121 691.044V693.349ZM542.933 698.972H540.628C540.628 700.329 539.632 702.355 536.317 705.044L537.768 706.834L539.22 708.623C542.791 705.727 545.237 702.512 545.237 698.972H542.933ZM537.768 706.834L536.49 704.916C536.5 704.91 536.466 704.932 536.345 705.009C536.239 705.077 536.086 705.175 535.885 705.302C535.484 705.558 534.897 705.932 534.122 706.424C532.573 707.409 530.278 708.867 527.237 710.799L528.473 712.744L529.708 714.689C535.764 710.842 538.904 708.846 539.047 708.751L537.768 706.834ZM528.473 712.744L527.231 710.802C521.191 714.664 516.743 717.439 513.871 719.139L515.045 721.122L516.219 723.104C519.162 721.362 523.666 718.551 529.714 714.685L528.473 712.744ZM515.045 721.122L513.86 719.146C512.422 720.008 511.331 720.673 510.594 721.134C510.229 721.363 509.931 721.555 509.715 721.702C509.613 721.771 509.493 721.855 509.384 721.94C509.337 721.977 509.236 722.058 509.129 722.165C509.079 722.215 508.971 722.327 508.859 722.486C508.817 722.546 508.437 723.056 508.437 723.819H510.741H513.046C513.046 724.247 512.926 724.573 512.853 724.74C512.774 724.921 512.687 725.054 512.633 725.132C512.526 725.283 512.426 725.386 512.388 725.424C512.303 725.509 512.236 725.561 512.233 725.562C512.214 725.577 512.229 725.565 512.306 725.512C512.449 725.415 512.688 725.26 513.041 725.04C513.739 724.602 514.799 723.956 516.231 723.098L515.045 721.122ZM510.741 723.819H508.437C508.437 724.524 508.763 725.005 508.81 725.076C508.912 725.235 509.013 725.347 509.059 725.396C509.157 725.503 509.247 725.579 509.282 725.61C509.367 725.681 509.45 725.743 509.504 725.783C509.624 725.87 509.777 725.976 509.949 726.092C510.299 726.327 510.809 726.662 511.472 727.089C512.802 727.947 514.79 729.21 517.431 730.875L518.66 728.926L519.889 726.976C517.251 725.313 515.28 724.061 513.97 723.216C513.313 722.793 512.834 722.479 512.524 722.27C512.365 722.163 512.272 722.097 512.226 722.064C512.198 722.043 512.22 722.058 512.263 722.094C512.277 722.107 512.352 722.17 512.44 722.265C512.481 722.309 512.577 722.416 512.677 722.57C512.721 722.638 513.046 723.116 513.046 723.819H510.741ZM518.66 728.926L517.441 730.881C522.727 734.175 526.861 736.694 529.835 738.432L530.997 736.443L532.16 734.453C529.243 732.748 525.152 730.256 519.879 726.97L518.66 728.926ZM530.997 736.443L529.865 738.45C532.822 740.117 534.93 741.452 536.256 742.463L537.654 740.631L539.052 738.8C537.47 737.593 535.141 736.134 532.129 734.436L530.997 736.443ZM537.654 740.631L536.259 742.466C539.914 745.244 541.088 747.497 541.088 749.181H543.392H545.696C545.696 745.281 543.044 741.834 539.048 738.797L537.654 740.631ZM543.392 749.181H541.088C541.088 750.886 540.869 751.829 540.658 752.266C540.568 752.452 540.526 752.445 540.6 752.394C540.693 752.331 540.773 752.328 540.752 752.328V754.633V756.937C541.611 756.937 542.462 756.708 543.214 756.19C543.948 755.685 544.456 754.996 544.806 754.274C545.474 752.893 545.696 751.111 545.696 749.181H543.392ZM540.752 754.633V752.328C540.671 752.328 540.363 752.297 539.736 752.101C539.14 751.915 538.377 751.62 537.43 751.198C535.538 750.354 533.052 749.064 529.954 747.306C523.764 743.795 515.282 738.505 504.489 731.418L503.224 733.344L501.96 735.27C512.781 742.376 521.361 747.73 527.68 751.315C530.836 753.105 533.467 754.476 535.553 755.407C536.596 755.872 537.537 756.242 538.362 756.5C539.154 756.747 539.982 756.937 540.752 756.937V754.633ZM503.224 733.344L504.478 731.411C502.755 730.294 501.393 729.368 500.38 728.628C499.324 727.857 498.771 727.378 498.56 727.146L496.855 728.696L495.15 730.246C495.704 730.856 496.596 731.572 497.663 732.351C498.772 733.16 500.213 734.137 501.971 735.277L503.224 733.344ZM496.855 728.696L498.56 727.146C498.387 726.955 498.012 726.253 498.012 724.392H495.707H493.403C493.403 726.587 493.793 728.754 495.15 730.246L496.855 728.696ZM495.707 724.392H498.012V723.36H495.707H493.403V724.392H495.707ZM495.707 723.36H498.012C498.012 722.256 498.608 720.94 500.749 719.459L499.437 717.564L498.126 715.669C495.293 717.63 493.403 720.178 493.403 723.36H495.707ZM499.437 717.564L500.759 719.452C511.399 712.003 523.288 704.583 536.43 697.194L535.301 695.185L534.172 693.176C520.918 700.629 508.898 708.129 498.116 715.676L499.437 717.564ZM535.301 695.185L536.429 697.194C537.461 696.615 538.3 696.213 538.962 695.961C539.654 695.698 540.01 695.653 540.121 695.653V693.349V691.044C539.199 691.044 538.236 691.306 537.321 691.655C536.376 692.015 535.322 692.531 534.173 693.176L535.301 695.185ZM588.15 679.175L586.035 678.259L586.032 678.268L588.15 679.175ZM596.7 686.348L598.875 687.109L598.88 687.093L598.886 687.077L596.7 686.348ZM596.068 688.012L593.963 687.076L593.945 687.116L593.929 687.156L596.068 688.012ZM594.003 693.177L596.118 694.09L596.131 694.061L596.142 694.032L594.003 693.177ZM591.076 700.235L588.916 699.432L588.91 699.45L588.903 699.468L591.076 700.235ZM590.273 702.358L588.356 701.08L588.184 701.336L588.087 701.629L590.273 702.358ZM579.313 729.327L577.179 728.459L577.177 728.463L579.313 729.327ZM567.205 759.051L569.315 759.979L569.318 759.971L569.321 759.964L567.205 759.051ZM560.606 767.142V764.838H558.655V767.142V769.446H560.606V767.142ZM558.655 767.142V764.838C557.181 764.838 556.381 764.67 556.031 764.521C555.88 764.456 555.949 764.452 556.06 764.594C556.197 764.77 556.254 764.982 556.254 765.134H553.95H551.646C551.646 765.954 551.899 766.753 552.428 767.431C552.931 768.075 553.588 768.489 554.222 768.759C555.44 769.279 556.993 769.446 558.655 769.446V767.142ZM553.95 765.134H556.254V764.273H553.95H551.646V765.134H553.95ZM553.95 764.273H556.254C556.254 764.303 556.256 764.179 556.336 763.806C556.409 763.467 556.527 763.014 556.696 762.436C557.034 761.282 557.551 759.725 558.257 757.75C559.667 753.807 561.792 748.3 564.638 741.218C570.328 727.06 578.87 706.684 590.268 680.083L588.15 679.175L586.032 678.268C574.63 704.879 566.072 725.292 560.362 739.5C557.508 746.601 555.358 752.171 553.918 756.199C553.199 758.21 552.647 759.862 552.273 761.141C551.93 762.311 551.646 763.451 551.646 764.273H553.95ZM588.15 679.175L590.264 680.092C591.571 677.075 593.007 676.315 594.347 676.315V674.011V671.707C590.408 671.707 587.712 674.39 586.035 678.259L588.15 679.175ZM594.347 674.011V676.315C596.185 676.315 597.297 676.489 597.87 676.696C598.145 676.794 598.134 676.845 598.036 676.739C597.89 676.581 597.781 676.327 597.781 676.077H600.085H602.389C602.389 675.138 602.041 674.281 601.417 673.608C600.841 672.985 600.113 672.605 599.431 672.359C598.092 671.877 596.334 671.707 594.347 671.707V674.011ZM600.085 676.077H597.781V676.995H600.085H602.389V676.077H600.085ZM600.085 676.995H597.781C597.781 676.989 597.781 677.011 597.774 677.067C597.768 677.121 597.756 677.197 597.735 677.297C597.693 677.499 597.623 677.766 597.516 678.106C597.299 678.788 596.959 679.675 596.479 680.784L598.593 681.7L600.708 682.616C601.222 681.43 601.628 680.385 601.909 679.499C602.174 678.661 602.389 677.782 602.389 676.995H600.085ZM598.593 681.7L596.479 680.784C595.491 683.065 594.818 684.705 594.514 685.62L596.7 686.348L598.886 687.077C599.116 686.384 599.707 684.926 600.708 682.616L598.593 681.7ZM596.7 686.348L594.525 685.587C594.26 686.344 594.075 686.824 593.963 687.076L596.068 688.012L598.174 688.948C598.368 688.512 598.604 687.882 598.875 687.109L596.7 686.348ZM596.068 688.012L593.929 687.156L591.863 692.321L594.003 693.177L596.142 694.032L598.208 688.868L596.068 688.012ZM594.003 693.177L591.887 692.263C590.435 695.627 589.437 698.03 588.916 699.432L591.076 700.235L593.236 701.037C593.71 699.761 594.663 697.459 596.118 694.09L594.003 693.177ZM591.076 700.235L588.903 699.468C588.676 700.113 588.501 700.596 588.376 700.925C588.313 701.092 588.269 701.204 588.241 701.271C588.226 701.305 588.222 701.312 588.227 701.302C588.23 701.297 588.239 701.277 588.255 701.248C588.267 701.224 588.302 701.16 588.356 701.08L590.273 702.358L592.19 703.636C592.355 703.389 592.468 703.107 592.492 703.05C592.55 702.912 592.615 702.744 592.686 702.556C592.829 702.178 593.018 701.657 593.249 701.002L591.076 700.235ZM590.273 702.358L588.087 701.629C588.099 701.593 587.231 703.737 585.369 708.319C583.543 712.813 580.813 719.526 577.179 728.459L579.313 729.327L581.447 730.196C585.082 721.263 587.812 714.549 589.639 710.054C591.43 705.646 592.409 703.237 592.459 703.086L590.273 702.358ZM579.313 729.327L577.177 728.463C569.939 746.348 565.918 756.219 565.09 758.138L567.205 759.051L569.321 759.964C570.176 757.981 574.227 748.036 581.449 730.192L579.313 729.327ZM567.205 759.051L565.096 758.124C563.944 760.742 562.9 762.548 561.991 763.663C561.027 764.845 560.561 764.838 560.606 764.838V767.142V769.446C562.68 769.446 564.327 768.09 565.562 766.576C566.853 764.993 568.094 762.754 569.315 759.979L567.205 759.051ZM615.464 741.033L616.889 742.844L616.891 742.842L615.464 741.033ZM615.062 706.432L613.612 708.223L613.622 708.231L615.062 706.432ZM619.079 695.816L620.207 693.807L620.204 693.805L619.079 695.816ZM653.967 717.736L652.602 719.593L652.606 719.595L653.967 717.736ZM653.508 730.532L652.243 728.606L652.229 728.615L652.215 728.625L653.508 730.532ZM616.669 753.141L617.769 755.165L617.771 755.164L616.669 753.141ZM612.881 754.575V752.271C612.745 752.271 612.738 752.245 612.784 752.271C612.832 752.298 612.815 752.312 612.757 752.213C612.599 751.946 612.374 751.249 612.374 749.813H610.07H607.765C607.765 751.552 608.009 753.235 608.788 754.556C609.68 756.066 611.146 756.88 612.881 756.88V754.575ZM610.07 749.813H612.374V748.837H610.07H607.765V749.813H610.07ZM610.07 748.837H612.374C612.374 747.61 613.375 745.61 616.889 742.844L615.464 741.033L614.038 739.223C610.36 742.118 607.765 745.321 607.765 748.837H610.07ZM615.464 741.033L616.891 742.842C616.89 742.843 616.896 742.838 616.912 742.826C616.927 742.815 616.949 742.799 616.978 742.779C617.035 742.738 617.112 742.685 617.21 742.619C617.407 742.487 617.67 742.315 618.003 742.101C618.669 741.673 619.589 741.096 620.765 740.367C623.118 738.91 626.471 736.863 630.83 734.225L629.637 732.254L628.444 730.282C624.08 732.923 620.711 734.98 618.339 736.449C616.046 737.869 614.531 738.834 614.036 739.225L615.464 741.033ZM629.637 732.254L630.83 734.225C635.193 731.584 638.474 729.579 640.667 728.213C641.762 727.532 642.599 727.001 643.169 726.626C643.449 726.441 643.69 726.278 643.872 726.146C643.956 726.085 644.07 725.999 644.18 725.904C644.228 725.862 644.334 725.769 644.445 725.64C644.5 725.578 644.604 725.453 644.706 725.278C644.778 725.155 645.024 724.722 645.024 724.105H642.72H640.416C640.416 723.494 640.66 723.067 640.727 722.952C640.826 722.784 640.923 722.667 640.969 722.615C641.064 722.506 641.144 722.437 641.158 722.424C641.199 722.389 641.211 722.382 641.159 722.42C641.068 722.486 640.9 722.602 640.636 722.776C640.115 723.118 639.317 723.625 638.231 724.301C636.063 725.651 632.803 727.644 628.444 730.282L629.637 732.254ZM642.72 724.105H645.024C645.024 723.486 644.775 723.052 644.707 722.935C644.607 722.763 644.505 722.64 644.452 722.579C644.344 722.453 644.241 722.36 644.193 722.318C644.086 722.224 643.974 722.137 643.889 722.074C643.707 721.939 643.465 721.771 643.181 721.579C642.605 721.19 641.758 720.638 640.649 719.927C638.428 718.504 635.104 716.413 630.684 713.658L629.465 715.613L628.246 717.568C632.662 720.322 635.966 722.4 638.163 723.808C639.264 724.513 640.073 725.041 640.602 725.398C640.87 725.58 641.042 725.7 641.137 725.771C641.19 725.811 641.181 725.806 641.143 725.773C641.13 725.761 641.053 725.694 640.962 725.588C640.918 725.537 640.822 725.422 640.726 725.257C640.663 725.148 640.416 724.72 640.416 724.105H642.72ZM629.465 715.613L630.684 713.658C626.267 710.905 622.866 708.767 620.475 707.243C618.011 705.672 616.761 704.84 616.501 704.633L615.062 706.432L613.622 708.231C614.128 708.636 615.661 709.64 617.998 711.129C620.408 712.666 623.825 714.813 628.246 717.568L629.465 715.613ZM615.062 706.432L616.512 704.641C613.654 702.328 612.546 700.059 612.546 697.825H610.242H607.937C607.937 701.864 610.043 705.333 613.612 708.223L615.062 706.432ZM610.242 697.825H612.546C612.546 696.447 612.794 695.82 612.948 695.595C613.005 695.512 613.04 695.494 613.06 695.484C613.091 695.469 613.201 695.424 613.455 695.424V693.119V690.815C611.736 690.815 610.167 691.495 609.142 692.996C608.225 694.34 607.937 696.066 607.937 697.825H610.242ZM613.455 693.119V695.424C613.13 695.424 612.997 695.333 613.303 695.447C613.512 695.525 613.827 695.661 614.266 695.871C615.139 696.29 616.362 696.937 617.953 697.827L619.079 695.816L620.204 693.805C618.582 692.898 617.261 692.196 616.259 691.716C615.761 691.477 615.306 691.275 614.913 691.129C614.616 691.018 614.048 690.815 613.455 690.815V693.119ZM619.079 695.816L617.95 697.825C632.21 705.832 643.753 713.088 652.602 719.593L653.967 717.736L655.332 715.879C646.278 709.225 634.561 701.867 620.207 693.807L619.079 695.816ZM653.967 717.736L652.606 719.595C654.149 720.725 654.876 722.155 654.876 724.105H657.18H659.484C659.484 720.701 658.069 717.884 655.328 715.877L653.967 717.736ZM657.18 724.105H654.876C654.876 725.925 654.115 727.378 652.243 728.606L653.508 730.532L654.772 732.459C657.797 730.473 659.484 727.642 659.484 724.105H657.18ZM653.508 730.532L652.215 728.625C639.568 737.196 627.351 744.692 615.566 751.118L616.669 753.141L617.771 755.164C629.704 748.659 642.047 741.083 654.8 732.44L653.508 730.532ZM616.669 753.141L615.568 751.116C614.741 751.566 614.085 751.873 613.586 752.062C613.047 752.266 612.849 752.271 612.881 752.271V754.575V756.88C613.679 756.88 614.494 756.646 615.218 756.372C615.981 756.082 616.837 755.672 617.769 755.165L616.669 753.141Z" fill="#DADADA" mask="url(#path-9-outside-1_2045_5)"/>
<path d="M1312.57 187.412C1312.57 168.971 1325.82 159.751 1352.32 159.751C1358.4 159.751 1364.31 162.078 1370.04 166.733C1375.77 171.388 1378.64 177.834 1378.64 186.069C1378.64 194.305 1376.04 205.226 1370.85 218.833C1365.66 232.44 1362.43 245.33 1361.18 257.505C1359.93 269.679 1357.15 311.932 1352.85 384.263C1348.56 456.593 1345.78 495.444 1344.53 500.815C1342.02 511.558 1336.74 516.929 1328.68 516.929C1312.75 516.929 1296.64 506.455 1280.34 485.508C1276.58 480.674 1251.97 441.017 1206.49 366.538C1161.2 291.88 1134.61 254.551 1126.73 254.551L1123.24 256.699C1121.81 258.848 1120.55 264.219 1119.48 272.812C1113.75 321.868 1110.89 374.953 1110.89 432.065C1110.89 438.153 1111.24 444.777 1111.96 451.938L1113.03 461.069C1114.11 470.021 1114.65 475.571 1114.65 477.72C1114.65 490.073 1110.44 500.01 1102.02 507.529C1093.79 515.049 1084.12 518.809 1073.02 518.809H1063.89C1052.61 518.809 1046.97 514.601 1046.97 506.187C1046.97 497.593 1049.39 488.014 1054.22 477.451C1059.06 466.888 1062.28 454.893 1063.89 441.465C1071.59 376.833 1075.44 307.456 1075.44 233.335C1075.44 220.623 1074.54 210.06 1072.75 201.646L1070.33 192.515L1067.65 184.189C1066.22 179.176 1065.5 174.253 1065.5 169.419C1065.5 162.795 1071.86 159.482 1084.57 159.482C1108.92 159.482 1130.67 170.225 1149.83 191.709C1169.16 213.014 1198.26 255.177 1237.11 318.198C1275.96 381.219 1296.91 412.729 1299.95 412.729L1303.71 411.655C1304.78 410.044 1305.86 404.315 1306.93 394.468C1313.56 332.342 1316.87 277.826 1316.87 230.918C1316.87 226.8 1316.42 220.534 1315.52 212.119L1314.45 203.525C1313.2 194.753 1312.57 189.382 1312.57 187.412ZM1516.94 492.759H1523.92C1538.6 492.759 1551.49 487.835 1562.6 477.988C1573.87 467.962 1579.51 456.414 1579.51 443.345L1580.05 439.854V436.362L1580.59 428.037V412.729C1580.59 402.345 1575.31 397.153 1564.74 397.153H1552.66L1550.78 397.422L1540.31 398.228C1535.29 398.944 1531.71 399.302 1529.56 399.302C1515.06 399.302 1501.63 404.762 1489.28 415.684C1480.69 423.382 1476.39 434.303 1476.39 448.447V453.818C1476.39 465.814 1480.24 475.303 1487.94 482.285C1495.81 489.268 1505.48 492.759 1516.94 492.759ZM1457.05 321.152C1445.06 321.152 1439.06 313.454 1439.06 298.057C1439.06 286.598 1448.73 276.662 1468.06 268.247C1487.58 259.653 1507.81 255.356 1528.76 255.356H1542.19C1560.27 255.356 1576.2 258.758 1589.99 265.562C1603.77 272.186 1614.25 281.227 1621.41 292.686C1628.75 304.144 1633.23 319.093 1634.84 337.534C1635.19 341.831 1635.37 362.689 1635.37 400.107C1635.37 437.526 1635.82 459.1 1636.72 464.829C1637.79 470.379 1640.66 477.183 1645.31 485.239C1650.14 493.296 1652.56 499.92 1652.56 505.112C1652.56 510.304 1650.05 514.78 1645.04 518.54C1640.21 522.121 1633.14 523.911 1623.83 523.911C1614.52 523.911 1604.4 521.673 1593.48 517.197C1582.56 512.542 1574.59 510.215 1569.58 510.215C1569.04 510.215 1560.09 513.438 1542.72 519.883C1525.36 526.149 1510.67 529.282 1498.68 529.282H1492.77C1472.72 529.282 1455.62 522.926 1441.48 510.215C1427.51 497.503 1420.53 479.421 1420.53 455.967C1420.53 432.513 1428.23 414.251 1443.63 401.182C1459.02 387.933 1477.73 378.892 1499.75 374.058C1506.38 372.625 1517.39 370.745 1532.79 368.418C1548.18 366.09 1558.66 363.674 1564.21 361.167C1573.87 356.691 1578.71 348.276 1578.71 335.923C1578.71 323.39 1574.59 313.633 1566.35 306.65C1558.12 299.489 1548.27 295.908 1536.81 295.908C1525.53 295.908 1510.67 300.116 1492.23 308.53C1473.79 316.945 1462.07 321.152 1457.05 321.152ZM1761.59 396.348V416.758C1761.59 438.063 1766.43 455.877 1776.1 470.2C1785.94 484.344 1797.49 491.416 1810.74 491.416H1818.26C1838.67 491.416 1854.42 483.27 1865.52 466.978C1876.8 450.685 1882.44 426.426 1882.44 394.199C1882.8 390.26 1882.98 387.396 1882.98 385.605L1883.52 380.234L1883.79 368.955V349.888C1883.79 313.364 1869.2 295.103 1840.01 295.103H1829.54C1810.56 295.103 1794.45 304.681 1781.2 323.838C1768.13 342.995 1761.59 367.165 1761.59 396.348ZM1710.03 408.701C1710.03 390.081 1713.34 371.104 1719.97 351.768C1726.59 332.432 1735.9 315.96 1747.9 302.354C1759.89 288.568 1773.41 278.631 1788.45 272.544C1803.49 266.278 1821.3 263.145 1841.89 263.145C1862.66 263.145 1875.55 259.385 1880.56 251.865C1885.58 244.167 1888.08 227.248 1888.08 201.108C1888.08 196.274 1887.28 189.829 1885.67 181.772C1884.06 173.716 1883.25 169.061 1883.25 167.808C1883.25 160.109 1886.56 153.127 1893.19 146.86C1899.81 140.415 1908.49 137.192 1919.24 137.192H1924.61C1933.02 137.192 1939.29 139.162 1943.41 143.101C1947.52 147.039 1949.58 155.275 1949.58 167.808V192.783L1949.05 205.405C1948.87 209.702 1948.78 215.968 1948.78 224.204C1948.78 232.261 1947.43 258.221 1944.75 302.085C1942.06 345.949 1940.72 376.117 1940.72 392.588L1940.45 399.033C1940.27 403.33 1940.18 407.448 1940.18 411.387L1939.91 417.563C1939.91 417.563 1939.91 424.546 1939.91 438.511C1939.91 456.593 1941.35 470.2 1944.21 479.331C1947.08 488.462 1948.51 494.997 1948.51 498.936C1948.51 502.874 1946.27 506.992 1941.79 511.289C1937.32 515.586 1930.34 517.734 1920.85 517.734C1911.54 517.734 1902.5 516.213 1893.72 513.169C1884.95 509.946 1878.51 508.335 1874.39 508.335C1870.27 508.335 1864.9 509.588 1858.27 512.095C1838.22 519.435 1819.87 523.105 1803.22 523.105C1802.86 523.105 1802.5 523.105 1802.15 523.105H1795.97C1768.93 523.105 1747.81 513.258 1732.59 493.564C1717.55 473.691 1710.03 447.642 1710.03 415.415V408.701ZM2104 492.759H2110.98C2125.66 492.759 2138.56 487.835 2149.66 477.988C2160.94 467.962 2166.57 456.414 2166.57 443.345L2167.11 439.854V436.362L2167.65 428.037V412.729C2167.65 402.345 2162.37 397.153 2151.8 397.153H2139.72L2137.84 397.422L2127.37 398.228C2122.35 398.944 2118.77 399.302 2116.62 399.302C2102.12 399.302 2088.69 404.762 2076.34 415.684C2067.75 423.382 2063.45 434.303 2063.45 448.447V453.818C2063.45 465.814 2067.3 475.303 2075 482.285C2082.88 489.268 2092.54 492.759 2104 492.759ZM2044.11 321.152C2032.12 321.152 2026.12 313.454 2026.12 298.057C2026.12 286.598 2035.79 276.662 2055.12 268.247C2074.64 259.653 2094.87 255.356 2115.82 255.356H2129.25C2147.33 255.356 2163.26 258.758 2177.05 265.562C2190.83 272.186 2201.31 281.227 2208.47 292.686C2215.81 304.144 2220.29 319.093 2221.9 337.534C2222.26 341.831 2222.43 362.689 2222.43 400.107C2222.43 437.526 2222.88 459.1 2223.78 464.829C2224.85 470.379 2227.72 477.183 2232.37 485.239C2237.2 493.296 2239.62 499.92 2239.62 505.112C2239.62 510.304 2237.12 514.78 2232.1 518.54C2227.27 522.121 2220.2 523.911 2210.89 523.911C2201.58 523.911 2191.46 521.673 2180.54 517.197C2169.62 512.542 2161.65 510.215 2156.64 510.215C2156.1 510.215 2147.15 513.438 2129.78 519.883C2112.42 526.149 2097.74 529.282 2085.74 529.282H2079.83C2059.78 529.282 2042.68 522.926 2028.54 510.215C2014.57 497.503 2007.59 479.421 2007.59 455.967C2007.59 432.513 2015.29 414.251 2030.69 401.182C2046.08 387.933 2064.79 378.892 2086.81 374.058C2093.44 372.625 2104.45 370.745 2119.85 368.418C2135.24 366.09 2145.72 363.674 2151.27 361.167C2160.94 356.691 2165.77 348.276 2165.77 335.923C2165.77 323.39 2161.65 313.633 2153.42 306.65C2145.18 299.489 2135.33 295.908 2123.87 295.908C2112.6 295.908 2097.74 300.116 2079.29 308.53C2060.85 316.945 2049.13 321.152 2044.11 321.152ZM2548.73 494.37C2548.73 507.619 2537.18 514.243 2514.08 514.243C2501.01 514.243 2492.24 511.11 2487.77 504.844C2485.62 501.8 2484.54 494.639 2484.54 483.359L2483.74 466.172C2482.48 447.373 2481.86 428.485 2481.86 409.507C2481.86 368.507 2478.28 341.025 2471.12 327.061C2464.13 312.917 2452.32 305.845 2435.67 305.845C2424.57 305.845 2414.27 309.157 2404.78 315.781C2395.47 322.406 2388.31 331.626 2383.3 343.442C2372.91 367.612 2367.72 412.282 2367.72 477.451C2367.72 492.311 2364.86 502.785 2359.13 508.872C2353.58 514.959 2346.42 518.003 2337.64 518.003H2332.27C2312.22 518.003 2302.19 510.036 2302.19 494.102V487.656C2302.19 485.687 2303.27 481.39 2305.42 474.766L2309.71 462.412C2314.01 447.91 2316.16 416.847 2316.16 369.224L2317.5 289.463C2317.5 279.258 2323.05 274.155 2334.15 274.155C2345.25 274.155 2356.17 277.826 2366.92 285.166C2377.84 292.507 2384.73 296.177 2387.6 296.177C2390.64 296.177 2395.92 294.118 2403.44 290C2428.68 276.214 2448.92 269.321 2464.13 269.321H2471.12C2498.51 269.321 2517.75 281.675 2528.85 306.382C2534.23 318.019 2536.91 343.084 2536.91 381.577V383.457C2536.91 386.68 2536.82 389.902 2536.64 393.125C2536.64 401.898 2536.64 406.463 2536.64 406.821C2536.64 410.223 2536.64 413.535 2536.64 416.758C2536.64 419.264 2536.64 421.681 2536.64 424.009C2536.64 437.795 2537.09 447.194 2537.99 452.207C2539.24 459.01 2541.3 466.082 2544.16 473.423C2547.21 481.479 2548.73 488.462 2548.73 494.37ZM2750.41 497.861C2750.41 505.023 2746.03 511.468 2737.25 517.197C2728.66 522.747 2716.93 525.522 2702.07 525.522C2674.32 525.522 2654.81 515.228 2643.53 494.639C2636.55 481.748 2633.05 451.58 2633.05 404.136C2633.05 356.691 2632.25 329.119 2630.64 321.421C2629.03 313.722 2624.55 306.203 2617.21 298.862C2609.87 291.522 2606.2 285.882 2606.2 281.943C2606.2 280.511 2614.88 271.112 2632.25 253.745C2636.01 249.985 2639.77 241.66 2643.53 228.77C2647.47 215.879 2650.24 207.375 2651.85 203.257C2657.22 190.366 2664.3 183.921 2673.07 183.921H2677.37C2685.06 183.921 2690.52 186.875 2693.75 192.783C2695 195.111 2696.88 203.525 2699.39 218.027C2702.07 232.35 2705.12 241.571 2708.52 245.688C2711.92 249.806 2720.42 254.372 2734.03 259.385C2747.82 264.219 2754.71 269.411 2754.71 274.961V277.915C2754.71 285.076 2746.83 291.164 2731.08 296.177C2715.5 301.011 2705.47 308.799 2701 319.541C2692.23 341.204 2687.84 376.475 2687.84 425.352C2687.84 448.268 2691.78 463.844 2699.66 472.08C2704.49 477.093 2714.16 480.584 2728.66 482.554C2743.16 484.523 2750.41 489.626 2750.41 497.861ZM2896.77 492.759H2903.76C2918.44 492.759 2931.33 487.835 2942.43 477.988C2953.71 467.962 2959.35 456.414 2959.35 443.345L2959.89 439.854V436.362L2960.42 428.037V412.729C2960.42 402.345 2955.14 397.153 2944.58 397.153H2932.49L2930.61 397.422L2920.14 398.228C2915.13 398.944 2911.55 399.302 2909.4 399.302C2894.9 399.302 2881.47 404.762 2869.11 415.684C2860.52 423.382 2856.22 434.303 2856.22 448.447V453.818C2856.22 465.814 2860.07 475.303 2867.77 482.285C2875.65 489.268 2885.32 492.759 2896.77 492.759ZM2836.89 321.152C2824.89 321.152 2818.89 313.454 2818.89 298.057C2818.89 286.598 2828.56 276.662 2847.9 268.247C2867.41 259.653 2887.64 255.356 2908.59 255.356H2922.02C2940.1 255.356 2956.04 258.758 2969.82 265.562C2983.61 272.186 2994.08 281.227 3001.24 292.686C3008.58 304.144 3013.06 319.093 3014.67 337.534C3015.03 341.831 3015.21 362.689 3015.21 400.107C3015.21 437.526 3015.66 459.1 3016.55 464.829C3017.62 470.379 3020.49 477.183 3025.14 485.239C3029.98 493.296 3032.4 499.92 3032.4 505.112C3032.4 510.304 3029.89 514.78 3024.88 518.54C3020.04 522.121 3012.97 523.911 3003.66 523.911C2994.35 523.911 2984.23 521.673 2973.31 517.197C2962.39 512.542 2954.42 510.215 2949.41 510.215C2948.87 510.215 2939.92 513.438 2922.56 519.883C2905.19 526.149 2890.51 529.282 2878.51 529.282H2872.6C2852.55 529.282 2835.45 522.926 2821.31 510.215C2807.35 497.503 2800.36 479.421 2800.36 455.967C2800.36 432.513 2808.06 414.251 2823.46 401.182C2838.86 387.933 2857.57 378.892 2879.59 374.058C2886.21 372.625 2897.22 370.745 2912.62 368.418C2928.02 366.09 2938.49 363.674 2944.04 361.167C2953.71 356.691 2958.54 348.276 2958.54 335.923C2958.54 323.39 2954.42 313.633 2946.19 306.65C2937.95 299.489 2928.11 295.908 2916.65 295.908C2905.37 295.908 2890.51 300.116 2872.07 308.53C2853.63 316.945 2841.9 321.152 2836.89 321.152Z" fill="white"/>
<mask id="path-12-outside-2_2045_5" maskUnits="userSpaceOnUse" x="1017.98" y="627.597" width="305" height="178" fill="black">
<rect fill="white" x="1017.98" y="627.597" width="305" height="178"/>
<path d="M1105.61 667.321C1108.61 667.321 1110.12 670.503 1110.12 676.867C1110.12 681.623 1106.48 686.763 1099.21 692.288C1097.04 693.966 1088.19 699.491 1072.67 708.863C1057.21 718.234 1049.48 723.13 1049.48 723.549C1049.48 723.899 1051.86 725.403 1056.62 728.06C1061.44 730.718 1069.63 735.578 1081.16 742.642C1092.7 749.635 1098.54 753.167 1098.68 753.237C1106.59 758.622 1110.54 763.623 1110.54 768.238V770.022C1110.54 775.966 1108.72 778.939 1105.08 778.939C1103.61 778.939 1100.71 777.785 1096.38 775.477C1072.95 763.098 1050.57 749.67 1029.24 735.194C1024.2 731.767 1021.68 727.885 1021.68 723.549C1021.68 719.213 1023.89 715.542 1028.29 712.534C1050.95 697.148 1073.79 683.196 1096.8 670.678C1100.92 668.44 1103.86 667.321 1105.61 667.321ZM1202.33 631.129H1204.22C1210.09 631.129 1213.03 632.283 1213.03 634.591V636.164C1213.03 637.493 1208.69 648.997 1200.02 670.678C1191.35 692.358 1182.85 713.898 1174.53 735.299C1166.21 756.699 1158.79 774.987 1152.29 790.163C1148.93 798.066 1144.88 802.018 1140.12 802.018H1138.34C1132.46 802.018 1129.53 800.864 1129.53 798.556V796.982C1129.53 795.793 1130.71 792.157 1133.09 786.072C1160.23 716.346 1179.29 668.649 1190.27 642.983C1193.62 635.08 1197.64 631.129 1202.33 631.129ZM1236.53 778.939C1232.96 778.939 1231.18 776.141 1231.18 770.546C1231.18 764.951 1234.64 759.636 1241.56 754.601C1243.52 753.202 1252.4 747.712 1268.21 738.131C1284.08 728.48 1292.02 723.619 1292.02 723.549C1292.02 722.99 1288.63 720.717 1281.85 716.73C1275.06 712.674 1269.96 709.562 1266.53 707.394C1263.17 705.226 1258.66 702.533 1253 699.316C1247.4 696.099 1243.35 693.407 1240.83 691.239C1234.67 685.994 1231.6 680.678 1231.6 675.293C1231.6 669.908 1233 667.216 1235.79 667.216C1241.46 667.216 1266.5 681.797 1310.9 710.961C1316.43 714.597 1319.19 718.654 1319.19 723.13C1319.19 727.536 1316.67 731.452 1311.64 734.879C1290.38 749.286 1268.21 762.783 1245.13 775.372C1240.79 777.75 1237.93 778.939 1236.53 778.939Z"/>
</mask>
<path d="M1105.61 667.321C1108.61 667.321 1110.12 670.503 1110.12 676.867C1110.12 681.623 1106.48 686.763 1099.21 692.288C1097.04 693.966 1088.19 699.491 1072.67 708.863C1057.21 718.234 1049.48 723.13 1049.48 723.549C1049.48 723.899 1051.86 725.403 1056.62 728.06C1061.44 730.718 1069.63 735.578 1081.16 742.642C1092.7 749.635 1098.54 753.167 1098.68 753.237C1106.59 758.622 1110.54 763.623 1110.54 768.238V770.022C1110.54 775.966 1108.72 778.939 1105.08 778.939C1103.61 778.939 1100.71 777.785 1096.38 775.477C1072.95 763.098 1050.57 749.67 1029.24 735.194C1024.2 731.767 1021.68 727.885 1021.68 723.549C1021.68 719.213 1023.89 715.542 1028.29 712.534C1050.95 697.148 1073.79 683.196 1096.8 670.678C1100.92 668.44 1103.86 667.321 1105.61 667.321ZM1202.33 631.129H1204.22C1210.09 631.129 1213.03 632.283 1213.03 634.591V636.164C1213.03 637.493 1208.69 648.997 1200.02 670.678C1191.35 692.358 1182.85 713.898 1174.53 735.299C1166.21 756.699 1158.79 774.987 1152.29 790.163C1148.93 798.066 1144.88 802.018 1140.12 802.018H1138.34C1132.46 802.018 1129.53 800.864 1129.53 798.556V796.982C1129.53 795.793 1130.71 792.157 1133.09 786.072C1160.23 716.346 1179.29 668.649 1190.27 642.983C1193.62 635.08 1197.64 631.129 1202.33 631.129ZM1236.53 778.939C1232.96 778.939 1231.18 776.141 1231.18 770.546C1231.18 764.951 1234.64 759.636 1241.56 754.601C1243.52 753.202 1252.4 747.712 1268.21 738.131C1284.08 728.48 1292.02 723.619 1292.02 723.549C1292.02 722.99 1288.63 720.717 1281.85 716.73C1275.06 712.674 1269.96 709.562 1266.53 707.394C1263.17 705.226 1258.66 702.533 1253 699.316C1247.4 696.099 1243.35 693.407 1240.83 691.239C1234.67 685.994 1231.6 680.678 1231.6 675.293C1231.6 669.908 1233 667.216 1235.79 667.216C1241.46 667.216 1266.5 681.797 1310.9 710.961C1316.43 714.597 1319.19 718.654 1319.19 723.13C1319.19 727.536 1316.67 731.452 1311.64 734.879C1290.38 749.286 1268.21 762.783 1245.13 775.372C1240.79 777.75 1237.93 778.939 1236.53 778.939Z" fill="white"/>
<path d="M1099.21 692.288L1097.39 689.899L1097.38 689.907L1097.37 689.916L1099.21 692.288ZM1072.67 708.863L1071.12 706.294L1071.11 706.297L1072.67 708.863ZM1056.62 728.06L1055.15 730.679L1055.16 730.684L1055.17 730.688L1056.62 728.06ZM1081.16 742.642L1079.6 745.201L1079.61 745.207L1081.16 742.642ZM1098.68 753.237L1100.37 750.758L1100.21 750.644L1100.03 750.554L1098.68 753.237ZM1096.38 775.477L1097.79 772.829L1097.78 772.824L1096.38 775.477ZM1029.24 735.194L1027.55 737.674L1027.55 737.676L1029.24 735.194ZM1028.29 712.534L1026.61 710.052L1026.6 710.056L1028.29 712.534ZM1096.8 670.678L1095.37 668.04L1095.36 668.042L1096.8 670.678ZM1105.61 667.321V670.321C1105.8 670.321 1105.84 670.36 1105.85 670.369C1105.89 670.397 1106.06 670.535 1106.28 670.989C1106.74 671.975 1107.12 673.826 1107.12 676.867H1110.12H1113.12C1113.12 673.544 1112.74 670.622 1111.7 668.426C1111.17 667.288 1110.4 666.233 1109.31 665.466C1108.19 664.679 1106.92 664.321 1105.61 664.321V667.321ZM1110.12 676.867H1107.12C1107.12 680.103 1104.56 684.458 1097.39 689.899L1099.21 692.288L1101.02 694.677C1108.41 689.067 1113.12 683.142 1113.12 676.867H1110.12ZM1099.21 692.288L1097.37 689.916C1095.38 691.457 1086.74 696.862 1071.12 706.294L1072.67 708.863L1074.22 711.431C1089.64 702.121 1098.7 696.475 1101.04 694.66L1099.21 692.288ZM1072.67 708.863L1071.11 706.297C1063.38 710.986 1057.56 714.565 1053.67 717.029C1051.73 718.258 1050.25 719.226 1049.23 719.924C1048.73 720.267 1048.3 720.577 1047.98 720.835C1047.82 720.957 1047.62 721.123 1047.44 721.311C1047.35 721.4 1047.19 721.567 1047.04 721.792C1046.97 721.891 1046.48 722.561 1046.48 723.549H1049.48H1052.48C1052.48 724.511 1052.01 725.146 1051.97 725.202C1051.85 725.383 1051.74 725.497 1051.71 725.525C1051.65 725.591 1051.63 725.599 1051.71 725.529C1051.87 725.403 1052.17 725.188 1052.63 724.867C1053.55 724.236 1054.96 723.316 1056.89 722.097C1060.72 719.666 1066.5 716.111 1074.22 711.428L1072.67 708.863ZM1049.48 723.549H1046.48C1046.48 724.363 1046.8 724.948 1046.94 725.175C1047.11 725.451 1047.29 725.656 1047.4 725.779C1047.63 726.029 1047.89 726.24 1048.09 726.394C1048.5 726.717 1049.04 727.083 1049.66 727.475C1050.92 728.271 1052.76 729.343 1055.15 730.679L1056.62 728.06L1058.08 725.441C1055.72 724.119 1053.99 723.111 1052.87 722.404C1052.3 722.044 1051.95 721.802 1051.77 721.662C1051.67 721.584 1051.71 721.599 1051.79 721.69C1051.83 721.733 1051.95 721.868 1052.08 722.082C1052.18 722.247 1052.48 722.779 1052.48 723.549H1049.48ZM1056.62 728.06L1055.17 730.688C1059.93 733.309 1068.06 738.136 1079.6 745.201L1081.16 742.642L1082.73 740.083C1071.19 733.02 1062.96 728.127 1058.06 725.432L1056.62 728.06ZM1081.16 742.642L1079.61 745.207C1085.38 748.704 1089.73 751.336 1092.65 753.103C1094.11 753.986 1095.21 754.654 1095.96 755.105C1096.34 755.331 1096.62 755.504 1096.82 755.624C1096.93 755.687 1097.19 755.845 1097.34 755.92L1098.68 753.237L1100.03 750.554C1100.14 750.612 1100.19 750.644 1099.9 750.474C1099.71 750.359 1099.43 750.19 1099.06 749.966C1098.31 749.517 1097.21 748.852 1095.75 747.969C1092.83 746.204 1088.49 743.573 1082.72 740.076L1081.16 742.642ZM1098.68 753.237L1096.99 755.716C1100.81 758.314 1103.5 760.713 1105.22 762.886C1106.94 765.056 1107.54 766.822 1107.54 768.238H1110.54H1113.54C1113.54 765.039 1112.17 761.997 1109.93 759.166C1107.69 756.34 1104.46 753.545 1100.37 750.758L1098.68 753.237ZM1110.54 768.238H1107.54V770.022H1110.54H1113.54V768.238H1110.54ZM1110.54 770.022H1107.54C1107.54 772.786 1107.1 774.355 1106.62 775.144C1106.28 775.693 1105.91 775.939 1105.08 775.939V778.939V781.939C1107.89 781.939 1110.25 780.699 1111.73 778.275C1113.07 776.092 1113.54 773.202 1113.54 770.022H1110.54ZM1105.08 778.939V775.939C1105.09 775.939 1105.04 775.939 1104.93 775.921C1104.82 775.904 1104.67 775.873 1104.48 775.822C1104.08 775.717 1103.57 775.545 1102.91 775.285C1101.61 774.766 1099.9 773.956 1097.79 772.829L1096.38 775.477L1094.97 778.125C1097.18 779.305 1099.1 780.227 1100.7 780.861C1102.19 781.456 1103.74 781.939 1105.08 781.939V778.939ZM1096.38 775.477L1097.78 772.824C1074.44 760.496 1052.16 747.125 1030.92 732.711L1029.24 735.194L1027.55 737.676C1048.98 752.216 1071.45 765.701 1094.97 778.129L1096.38 775.477ZM1029.24 735.194L1030.93 732.713C1026.35 729.6 1024.68 726.525 1024.68 723.549H1021.68H1018.68C1018.68 729.246 1022.05 733.933 1027.55 737.674L1029.24 735.194ZM1021.68 723.549H1024.68C1024.68 720.438 1026.18 717.607 1029.98 715.012L1028.29 712.534L1026.6 710.056C1021.59 713.477 1018.68 717.988 1018.68 723.549H1021.68ZM1028.29 712.534L1029.98 715.016C1052.56 699.683 1075.31 685.782 1098.23 673.313L1096.8 670.678L1095.36 668.042C1072.26 680.61 1049.34 694.614 1026.61 710.052L1028.29 712.534ZM1096.8 670.678L1098.23 673.315C1100.22 672.231 1101.86 671.459 1103.16 670.963C1104.52 670.447 1105.28 670.321 1105.61 670.321V667.321V664.321C1104.19 664.321 1102.61 664.754 1101.03 665.356C1099.39 665.98 1097.49 666.886 1095.37 668.04L1096.8 670.678ZM1174.53 735.299L1171.73 734.211L1174.53 735.299ZM1152.29 790.163L1149.53 788.982L1149.53 788.991L1152.29 790.163ZM1133.09 786.072L1135.89 787.164L1135.89 787.16L1133.09 786.072ZM1190.27 642.983L1193.02 644.163L1193.03 644.156L1190.27 642.983ZM1202.33 631.129V634.129H1204.22V631.129V628.129H1202.33V631.129ZM1204.22 631.129V634.129C1207.05 634.129 1208.79 634.419 1209.73 634.786C1210.17 634.961 1210.24 635.08 1210.19 635.017C1210.09 634.898 1210.03 634.712 1210.03 634.591H1213.03H1216.03C1216.03 633.316 1215.6 632.12 1214.77 631.135C1213.98 630.206 1212.95 629.605 1211.92 629.202C1209.92 628.416 1207.26 628.129 1204.22 628.129V631.129ZM1213.03 634.591H1210.03V636.164H1213.03H1216.03V634.591H1213.03ZM1213.03 636.164H1210.03C1210.03 635.848 1210.09 635.774 1209.94 636.331C1209.82 636.741 1209.64 637.328 1209.37 638.108C1208.85 639.663 1208.05 641.866 1206.97 644.731C1204.81 650.455 1201.57 658.729 1197.24 669.563L1200.02 670.678L1202.81 671.792C1207.14 660.946 1210.41 652.628 1212.58 646.847C1213.67 643.96 1214.5 641.682 1215.06 640.029C1215.34 639.206 1215.56 638.506 1215.72 637.948C1215.83 637.536 1216.03 636.812 1216.03 636.164H1213.03ZM1200.02 670.678L1197.24 669.563C1188.56 691.252 1180.06 712.802 1171.73 734.211L1174.53 735.299L1177.33 736.386C1185.64 714.995 1194.14 693.463 1202.81 671.792L1200.02 670.678ZM1174.53 735.299L1171.73 734.211C1163.42 755.591 1156.02 773.846 1149.53 788.982L1152.29 790.163L1155.05 791.345C1161.57 776.128 1169 757.807 1177.33 736.386L1174.53 735.299ZM1152.29 790.163L1149.53 788.991C1146.24 796.727 1142.91 799.018 1140.12 799.018V802.018V805.018C1146.85 805.018 1151.62 799.406 1155.05 791.336L1152.29 790.163ZM1140.12 802.018V799.018H1138.34V802.018V805.018H1140.12V802.018ZM1138.34 802.018V799.018C1135.51 799.018 1133.76 798.728 1132.83 798.36C1132.38 798.186 1132.31 798.066 1132.36 798.129C1132.47 798.249 1132.53 798.435 1132.53 798.556H1129.53H1126.53C1126.53 799.831 1126.95 801.027 1127.79 802.011C1128.58 802.94 1129.61 803.542 1130.63 803.944C1132.63 804.731 1135.29 805.018 1138.34 805.018V802.018ZM1129.53 798.556H1132.53V796.982H1129.53H1126.53V798.556H1129.53ZM1129.53 796.982H1132.53C1132.53 797.069 1132.52 796.914 1132.66 796.349C1132.79 795.846 1132.98 795.167 1133.27 794.295C1133.84 792.555 1134.71 790.185 1135.89 787.164L1133.09 786.072L1130.3 784.98C1129.1 788.044 1128.19 790.534 1127.57 792.431C1127.26 793.377 1127.01 794.211 1126.84 794.914C1126.68 795.555 1126.53 796.301 1126.53 796.982H1129.53ZM1133.09 786.072L1135.89 787.16C1163.02 717.43 1182.07 669.777 1193.02 644.163L1190.27 642.983L1187.51 641.803C1176.5 667.521 1157.43 715.262 1130.3 784.984L1133.09 786.072ZM1190.27 642.983L1193.03 644.156C1196.32 636.395 1199.63 634.129 1202.33 634.129V631.129V628.129C1195.66 628.129 1190.92 633.765 1187.5 641.81L1190.27 642.983ZM1241.56 754.601L1239.82 752.16L1239.81 752.167L1239.8 752.175L1241.56 754.601ZM1268.21 738.131L1269.76 740.696L1269.77 740.694L1268.21 738.131ZM1281.85 716.73L1280.31 719.305L1280.32 719.311L1280.33 719.317L1281.85 716.73ZM1266.53 707.394L1264.9 709.914L1264.91 709.922L1264.93 709.929L1266.53 707.394ZM1253 699.316L1251.5 701.917L1251.51 701.921L1251.52 701.925L1253 699.316ZM1240.83 691.239L1242.79 688.965L1242.78 688.96L1242.77 688.956L1240.83 691.239ZM1310.9 710.961L1312.55 708.455L1312.55 708.453L1310.9 710.961ZM1311.64 734.879L1313.32 737.362L1313.33 737.359L1311.64 734.879ZM1245.13 775.372L1243.69 772.738L1243.69 772.741L1245.13 775.372ZM1236.53 778.939V775.939C1235.68 775.939 1235.34 775.687 1235.04 775.228C1234.61 774.539 1234.18 773.122 1234.18 770.546H1231.18H1228.18C1228.18 773.566 1228.64 776.345 1229.99 778.453C1231.48 780.791 1233.81 781.939 1236.53 781.939V778.939ZM1231.18 770.546H1234.18C1234.18 766.338 1236.75 761.807 1243.33 757.027L1241.56 754.601L1239.8 752.175C1232.52 757.465 1228.18 763.565 1228.18 770.546H1231.18ZM1241.56 754.601L1243.31 757.042C1245.15 755.729 1253.89 750.322 1269.76 740.696L1268.21 738.131L1266.65 735.566C1250.92 745.103 1241.9 750.676 1239.82 752.16L1241.56 754.601ZM1268.21 738.131L1269.77 740.694C1277.71 735.868 1283.66 732.238 1287.64 729.806C1289.62 728.59 1291.12 727.67 1292.12 727.048C1292.62 726.739 1293 726.497 1293.27 726.328C1293.39 726.246 1293.51 726.169 1293.61 726.106C1293.65 726.078 1293.72 726.031 1293.79 725.976C1293.82 725.955 1293.91 725.891 1294.01 725.802C1294.05 725.765 1294.17 725.658 1294.3 725.503C1294.36 725.429 1294.49 725.272 1294.62 725.051C1294.71 724.899 1295.02 724.342 1295.02 723.549H1292.02H1289.02C1289.02 722.757 1289.34 722.201 1289.42 722.05C1289.55 721.829 1289.68 721.674 1289.74 721.6C1289.87 721.448 1289.99 721.344 1290.03 721.31C1290.12 721.228 1290.19 721.173 1290.21 721.164C1290.25 721.132 1290.27 721.117 1290.25 721.131C1290.22 721.151 1290.15 721.196 1290.04 721.272C1289.8 721.42 1289.44 721.645 1288.95 721.952C1287.97 722.563 1286.49 723.474 1284.5 724.689C1280.54 727.116 1274.59 730.742 1266.65 735.567L1268.21 738.131ZM1292.02 723.549H1295.02C1295.02 722.8 1294.76 722.242 1294.61 721.983C1294.45 721.688 1294.27 721.458 1294.14 721.305C1293.88 720.999 1293.57 720.727 1293.31 720.506C1292.76 720.05 1292.02 719.519 1291.15 718.933C1289.38 717.746 1286.77 716.145 1283.37 714.144L1281.85 716.73L1280.33 719.317C1283.7 721.302 1286.19 722.831 1287.81 723.917C1288.63 724.467 1289.16 724.859 1289.46 725.111C1289.62 725.244 1289.64 725.272 1289.59 725.213C1289.56 725.184 1289.46 725.064 1289.35 724.866C1289.26 724.703 1289.02 724.228 1289.02 723.549H1292.02ZM1281.85 716.73L1283.39 714.156C1276.61 710.103 1271.53 707.006 1268.13 704.859L1266.53 707.394L1264.93 709.929C1268.39 712.118 1273.52 715.246 1280.31 719.305L1281.85 716.73ZM1266.53 707.394L1268.16 704.874C1264.73 702.662 1260.17 699.938 1254.48 696.708L1253 699.316L1251.52 701.925C1257.16 705.129 1261.61 707.79 1264.9 709.914L1266.53 707.394ZM1253 699.316L1254.49 696.716C1248.94 693.522 1245.08 690.943 1242.79 688.965L1240.83 691.239L1238.87 693.512C1241.61 695.87 1245.87 698.676 1251.5 701.917L1253 699.316ZM1240.83 691.239L1242.77 688.956C1236.95 683.991 1234.6 679.434 1234.6 675.293H1231.6H1228.6C1228.6 681.923 1232.4 687.997 1238.88 693.522L1240.83 691.239ZM1231.6 675.293H1234.6C1234.6 672.763 1234.94 671.323 1235.31 670.618C1235.39 670.462 1235.46 670.368 1235.5 670.315C1235.55 670.265 1235.57 670.248 1235.58 670.245C1235.58 670.244 1235.59 670.24 1235.61 670.235C1235.63 670.229 1235.69 670.216 1235.79 670.216V667.216V664.216C1234.59 664.216 1233.4 664.512 1232.34 665.196C1231.29 665.871 1230.52 666.814 1229.98 667.852C1228.95 669.84 1228.6 672.439 1228.6 675.293H1231.6ZM1235.79 667.216V670.216C1235.98 670.216 1236.6 670.303 1237.84 670.734C1239.01 671.14 1240.52 671.774 1242.39 672.66C1246.11 674.43 1251.08 677.116 1257.31 680.744C1269.76 687.995 1287.07 698.896 1309.26 713.468L1310.9 710.961L1312.55 708.453C1290.33 693.862 1272.92 682.891 1260.33 675.56C1254.04 671.897 1248.91 669.115 1244.96 667.24C1242.99 666.303 1241.26 665.57 1239.81 665.065C1238.42 664.584 1237.02 664.216 1235.79 664.216V667.216ZM1310.9 710.961L1309.26 713.467C1314.37 716.831 1316.19 720.088 1316.19 723.13H1319.19H1322.19C1322.19 717.22 1318.49 712.363 1312.55 708.455L1310.9 710.961ZM1319.19 723.13H1316.19C1316.19 726.19 1314.51 729.298 1309.95 732.399L1311.64 734.879L1313.33 737.359C1318.84 733.606 1322.19 728.881 1322.19 723.13H1319.19ZM1311.64 734.879L1309.96 732.395C1288.78 746.747 1266.69 760.195 1243.69 772.738L1245.13 775.372L1246.57 778.006C1269.73 765.372 1291.98 751.825 1313.32 737.362L1311.64 734.879ZM1245.13 775.372L1243.69 772.741C1241.57 773.905 1239.87 774.74 1238.58 775.276C1237.93 775.543 1237.43 775.72 1237.05 775.826C1236.64 775.939 1236.49 775.939 1236.53 775.939V778.939V781.939C1237.87 781.939 1239.42 781.424 1240.88 780.818C1242.45 780.165 1244.36 779.217 1246.57 778.002L1245.13 775.372Z" fill="white" mask="url(#path-12-outside-2_2045_5)"/>
</svg>
