<svg width="3081" height="900" viewBox="0 0 3081 900" fill="none" xmlns="http://www.w3.org/2000/svg">
<circle cx="449.666" cy="449.666" r="436.682" fill="#D9D9D9" stroke="#1E1E1E" stroke-width="25.9674"/>
<mask id="mask0_2050_10" style="mask-type:alpha" maskUnits="userSpaceOnUse" x="12" y="2" width="875" height="874">
<circle cx="449.666" cy="439.279" r="436.682" fill="#FBB12A"/>
</mask>
<g mask="url(#mask0_2050_10)">
<path d="M69.33 483.715C71.0637 504.519 57.7718 530.67 50.9092 541.144L17.3182 628.914L50.9092 700.43L223.198 887.89L567.776 904.143L759.57 763.278L767.155 749.191V740.523L759.57 647.335C755.958 629.998 755.885 590.122 784.492 569.317C820.25 543.311 805.08 535.726 796.411 541.144C787.743 546.562 735.731 561.732 779.074 518.389C822.417 475.046 783.408 483.715 767.155 483.715C750.901 483.715 758.486 464.21 790.993 443.622C823.501 423.034 781.241 421.951 767.155 420.867C753.068 419.784 737.898 321.178 742.232 270.25C746.567 219.321 678.301 283.253 649.044 303.841C625.639 320.311 612.564 310.703 608.952 303.841C567.776 265.915 427.995 243.16 390.069 248.578C352.144 253.996 336.974 209.569 314.219 153.223C296.015 108.146 249.565 201.623 228.616 253.996C215.613 276.029 185.273 324.429 167.936 341.766C146.264 363.437 138.679 355.852 120.258 341.766C101.837 327.679 109.422 352.602 120.258 375.357C131.094 398.112 118.091 399.196 95.3359 382.942C72.5807 366.688 98.5866 414.366 95.3359 432.786C92.0852 451.207 84.5001 449.04 69.33 432.786C54.1599 416.533 67.1629 457.709 69.33 483.715Z" fill="white" stroke="#1E1E1E" stroke-width="20.7739"/>
<path d="M433.412 610.484C424.744 604.705 410.007 586.862 420.409 561.723C419.326 571.836 409.14 592.713 377.066 595.314" stroke="#1E1E1E" stroke-width="31.1101" stroke-linecap="round"/>
<circle cx="313.135" cy="482.622" r="55.2625" fill="#1E1E1E"/>
<circle cx="551.523" cy="543.302" r="55.2625" fill="#1E1E1E"/>
<ellipse cx="419.929" cy="551.365" rx="24.9223" ry="14.0865" transform="rotate(14.7921 419.929 551.365)" fill="#1E1E1E"/>
<path d="M360.812 491.29C364.063 490.207 439.914 479.371 503.845 528.132" stroke="#1E1E1E" stroke-width="12.444" stroke-linecap="round"/>
</g>
<mask id="path-9-outside-1_2050_10" maskUnits="userSpaceOnUse" x="492.969" y="671.649" width="167" height="98" fill="black">
<rect fill="white" x="492.969" y="671.649" width="167" height="98"/>
<path d="M540.121 693.349C541.996 693.349 542.933 695.223 542.933 698.972C542.933 701.421 541.211 704.041 537.769 706.834C537.654 706.91 534.555 708.88 528.473 712.744C522.428 716.608 517.953 719.4 515.045 721.122C512.176 722.843 510.742 723.742 510.742 723.819C510.742 723.895 513.381 725.597 518.66 728.926C523.939 732.215 528.052 734.721 530.997 736.443C533.981 738.126 536.2 739.522 537.654 740.631C541.479 743.539 543.392 746.389 543.392 749.181C543.392 752.816 542.512 754.633 540.752 754.633C537.348 754.633 524.838 747.536 503.225 733.344C499.743 731.087 497.62 729.538 496.855 728.696C496.09 727.854 495.708 726.42 495.708 724.392V723.36C495.708 721.217 496.951 719.285 499.437 717.564C510.149 710.066 522.103 702.606 535.301 695.185C537.482 693.961 539.088 693.349 540.121 693.349ZM560.607 767.142H558.656C555.519 767.142 553.95 766.472 553.95 765.134V764.273C553.95 760.753 565.35 732.388 588.15 679.175C589.642 675.733 591.708 674.011 594.347 674.011C598.173 674.011 600.085 674.7 600.085 676.077V676.995C600.085 677.837 599.588 679.405 598.593 681.7C597.599 683.996 596.968 685.545 596.7 686.348C596.432 687.113 596.222 687.668 596.069 688.012L594.003 693.177C592.549 696.543 591.574 698.896 591.076 700.235C590.617 701.535 590.349 702.243 590.273 702.358C590.235 702.473 586.581 711.462 579.313 729.327C572.083 747.192 568.047 757.1 567.205 759.051C564.834 764.445 562.634 767.142 560.607 767.142ZM612.881 754.575C611.007 754.575 610.07 752.988 610.07 749.813V748.837C610.07 746.465 611.868 743.864 615.464 741.033C616.19 740.459 620.915 737.533 629.637 732.254C638.359 726.975 642.72 724.259 642.72 724.105C642.72 723.952 638.302 721.122 629.465 715.613C620.628 710.104 615.827 707.044 615.062 706.432C611.849 703.831 610.242 700.961 610.242 697.825C610.242 694.688 611.313 693.119 613.455 693.119C613.991 693.119 615.865 694.018 619.079 695.816C633.386 703.85 645.015 711.156 653.967 717.736C656.109 719.305 657.18 721.428 657.18 724.105C657.18 726.783 655.956 728.926 653.508 730.532C640.807 739.14 628.528 746.676 616.669 753.141C614.909 754.097 613.647 754.575 612.881 754.575Z"/>
</mask>
<path d="M540.121 693.349C541.996 693.349 542.933 695.223 542.933 698.972C542.933 701.421 541.211 704.041 537.769 706.834C537.654 706.91 534.555 708.88 528.473 712.744C522.428 716.608 517.953 719.4 515.045 721.122C512.176 722.843 510.742 723.742 510.742 723.819C510.742 723.895 513.381 725.597 518.66 728.926C523.939 732.215 528.052 734.721 530.997 736.443C533.981 738.126 536.2 739.522 537.654 740.631C541.479 743.539 543.392 746.389 543.392 749.181C543.392 752.816 542.512 754.633 540.752 754.633C537.348 754.633 524.838 747.536 503.225 733.344C499.743 731.087 497.62 729.538 496.855 728.696C496.09 727.854 495.708 726.42 495.708 724.392V723.36C495.708 721.217 496.951 719.285 499.437 717.564C510.149 710.066 522.103 702.606 535.301 695.185C537.482 693.961 539.088 693.349 540.121 693.349ZM560.607 767.142H558.656C555.519 767.142 553.95 766.472 553.95 765.134V764.273C553.95 760.753 565.35 732.388 588.15 679.175C589.642 675.733 591.708 674.011 594.347 674.011C598.173 674.011 600.085 674.7 600.085 676.077V676.995C600.085 677.837 599.588 679.405 598.593 681.7C597.599 683.996 596.968 685.545 596.7 686.348C596.432 687.113 596.222 687.668 596.069 688.012L594.003 693.177C592.549 696.543 591.574 698.896 591.076 700.235C590.617 701.535 590.349 702.243 590.273 702.358C590.235 702.473 586.581 711.462 579.313 729.327C572.083 747.192 568.047 757.1 567.205 759.051C564.834 764.445 562.634 767.142 560.607 767.142ZM612.881 754.575C611.007 754.575 610.07 752.988 610.07 749.813V748.837C610.07 746.465 611.868 743.864 615.464 741.033C616.19 740.459 620.915 737.533 629.637 732.254C638.359 726.975 642.72 724.259 642.72 724.105C642.72 723.952 638.302 721.122 629.465 715.613C620.628 710.104 615.827 707.044 615.062 706.432C611.849 703.831 610.242 700.961 610.242 697.825C610.242 694.688 611.313 693.119 613.455 693.119C613.991 693.119 615.865 694.018 619.079 695.816C633.386 703.85 645.015 711.156 653.967 717.736C656.109 719.305 657.18 721.428 657.18 724.105C657.18 726.783 655.956 728.926 653.508 730.532C640.807 739.14 628.528 746.676 616.669 753.141C614.909 754.097 613.647 754.575 612.881 754.575Z" fill="#727272"/>
<path d="M537.769 706.834L539.047 708.751L539.136 708.691L539.22 708.623L537.769 706.834ZM528.473 712.744L527.237 710.799L527.232 710.802L528.473 712.744ZM515.045 721.122L513.871 719.139L513.86 719.146L515.045 721.122ZM518.66 728.926L517.431 730.875L517.442 730.881L518.66 728.926ZM530.997 736.443L529.835 738.432L529.85 738.441L529.865 738.45L530.997 736.443ZM537.654 740.631L536.256 742.463L536.259 742.466L537.654 740.631ZM503.225 733.344L504.489 731.418L504.478 731.411L503.225 733.344ZM496.855 728.696L498.56 727.146L496.855 728.696ZM499.437 717.564L500.749 719.459L500.759 719.452L499.437 717.564ZM535.301 695.185L534.173 693.176L534.172 693.176L535.301 695.185ZM540.121 693.349V695.653C540.187 695.653 540.141 695.663 540.073 695.618C540.02 695.582 540.071 695.59 540.169 695.785C540.397 696.241 540.629 697.215 540.629 698.972H542.933H545.237C545.237 696.98 545 695.143 544.291 693.724C543.92 692.982 543.386 692.287 542.629 691.783C541.859 691.269 540.993 691.044 540.121 691.044V693.349ZM542.933 698.972H540.629C540.629 700.329 539.632 702.355 536.317 705.044L537.769 706.834L539.22 708.623C542.791 705.727 545.237 702.512 545.237 698.972H542.933ZM537.769 706.834L536.49 704.916C536.5 704.91 536.467 704.932 536.345 705.009C536.239 705.077 536.086 705.175 535.885 705.302C535.484 705.558 534.897 705.932 534.122 706.424C532.573 707.409 530.278 708.867 527.237 710.799L528.473 712.744L529.708 714.689C535.764 710.842 538.904 708.846 539.047 708.751L537.769 706.834ZM528.473 712.744L527.232 710.802C521.191 714.664 516.743 717.439 513.871 719.139L515.045 721.122L516.219 723.104C519.163 721.362 523.666 718.551 529.714 714.685L528.473 712.744ZM515.045 721.122L513.86 719.146C512.422 720.008 511.331 720.673 510.594 721.134C510.229 721.363 509.931 721.555 509.715 721.702C509.613 721.771 509.493 721.855 509.384 721.94C509.337 721.977 509.237 722.058 509.129 722.165C509.079 722.215 508.971 722.327 508.859 722.486C508.817 722.546 508.437 723.056 508.437 723.819H510.742H513.046C513.046 724.247 512.926 724.573 512.853 724.74C512.774 724.921 512.687 725.054 512.633 725.132C512.526 725.283 512.426 725.386 512.388 725.424C512.303 725.509 512.236 725.561 512.234 725.562C512.215 725.577 512.229 725.565 512.306 725.512C512.449 725.415 512.689 725.26 513.041 725.04C513.739 724.602 514.799 723.956 516.231 723.098L515.045 721.122ZM510.742 723.819H508.437C508.437 724.524 508.763 725.005 508.81 725.076C508.912 725.235 509.013 725.347 509.059 725.396C509.157 725.503 509.247 725.579 509.282 725.61C509.367 725.681 509.45 725.743 509.504 725.783C509.624 725.87 509.778 725.976 509.949 726.092C510.299 726.327 510.809 726.662 511.472 727.089C512.803 727.947 514.79 729.21 517.431 730.875L518.66 728.926L519.889 726.976C517.251 725.313 515.28 724.061 513.97 723.216C513.313 722.793 512.834 722.479 512.524 722.27C512.366 722.163 512.272 722.097 512.226 722.064C512.198 722.043 512.22 722.058 512.263 722.094C512.278 722.107 512.352 722.17 512.44 722.265C512.481 722.309 512.577 722.416 512.677 722.57C512.721 722.638 513.046 723.116 513.046 723.819H510.742ZM518.66 728.926L517.442 730.881C522.727 734.175 526.861 736.694 529.835 738.432L530.997 736.443L532.16 734.453C529.243 732.748 525.152 730.256 519.879 726.97L518.66 728.926ZM530.997 736.443L529.865 738.45C532.822 740.117 534.93 741.452 536.256 742.463L537.654 740.631L539.052 738.8C537.47 737.593 535.141 736.134 532.13 734.436L530.997 736.443ZM537.654 740.631L536.259 742.466C539.914 745.244 541.088 747.497 541.088 749.181H543.392H545.696C545.696 745.281 543.044 741.834 539.048 738.797L537.654 740.631ZM543.392 749.181H541.088C541.088 750.886 540.869 751.829 540.658 752.266C540.568 752.452 540.527 752.445 540.601 752.394C540.693 752.331 540.774 752.328 540.752 752.328V754.633V756.937C541.611 756.937 542.462 756.708 543.214 756.19C543.948 755.685 544.457 754.996 544.806 754.274C545.475 752.893 545.696 751.111 545.696 749.181H543.392ZM540.752 754.633V752.328C540.671 752.328 540.363 752.297 539.736 752.101C539.141 751.915 538.377 751.62 537.43 751.198C535.538 750.354 533.052 749.064 529.954 747.306C523.764 743.795 515.282 738.505 504.489 731.418L503.225 733.344L501.96 735.27C512.781 742.376 521.361 747.73 527.68 751.315C530.836 753.105 533.467 754.476 535.553 755.407C536.596 755.872 537.537 756.242 538.362 756.5C539.155 756.747 539.982 756.937 540.752 756.937V754.633ZM503.225 733.344L504.478 731.411C502.755 730.294 501.393 729.368 500.38 728.628C499.324 727.857 498.771 727.378 498.56 727.146L496.855 728.696L495.15 730.246C495.704 730.856 496.596 731.572 497.663 732.351C498.773 733.16 500.213 734.137 501.971 735.277L503.225 733.344ZM496.855 728.696L498.56 727.146C498.387 726.955 498.012 726.253 498.012 724.392H495.708H493.403C493.403 726.587 493.794 728.754 495.15 730.246L496.855 728.696ZM495.708 724.392H498.012V723.36H495.708H493.403V724.392H495.708ZM495.708 723.36H498.012C498.012 722.256 498.608 720.94 500.749 719.459L499.437 717.564L498.126 715.669C495.293 717.63 493.403 720.178 493.403 723.36H495.708ZM499.437 717.564L500.759 719.452C511.399 712.003 523.289 704.583 536.431 697.194L535.301 695.185L534.172 693.176C520.918 700.629 508.898 708.129 498.116 715.676L499.437 717.564ZM535.301 695.185L536.429 697.194C537.461 696.615 538.3 696.213 538.962 695.961C539.654 695.698 540.01 695.653 540.121 695.653V693.349V691.044C539.199 691.044 538.236 691.306 537.321 691.655C536.376 692.015 535.322 692.531 534.173 693.176L535.301 695.185ZM588.15 679.175L586.036 678.259L586.032 678.268L588.15 679.175ZM596.7 686.348L598.875 687.109L598.88 687.093L598.886 687.077L596.7 686.348ZM596.069 688.012L593.963 687.076L593.945 687.116L593.929 687.156L596.069 688.012ZM594.003 693.177L596.118 694.09L596.131 694.061L596.142 694.032L594.003 693.177ZM591.076 700.235L588.916 699.432L588.91 699.45L588.903 699.468L591.076 700.235ZM590.273 702.358L588.356 701.08L588.185 701.336L588.087 701.629L590.273 702.358ZM579.313 729.327L577.179 728.459L577.177 728.463L579.313 729.327ZM567.205 759.051L569.315 759.979L569.318 759.971L569.321 759.964L567.205 759.051ZM560.607 767.142V764.838H558.656V767.142V769.446H560.607V767.142ZM558.656 767.142V764.838C557.181 764.838 556.381 764.67 556.031 764.521C555.881 764.456 555.949 764.452 556.06 764.594C556.198 764.77 556.254 764.982 556.254 765.134H553.95H551.646C551.646 765.954 551.899 766.753 552.428 767.431C552.931 768.075 553.588 768.489 554.222 768.759C555.44 769.279 556.993 769.446 558.656 769.446V767.142ZM553.95 765.134H556.254V764.273H553.95H551.646V765.134H553.95ZM553.95 764.273H556.254C556.254 764.303 556.256 764.179 556.337 763.806C556.41 763.467 556.527 763.014 556.696 762.436C557.034 761.282 557.552 759.725 558.257 757.75C559.667 753.807 561.792 748.3 564.638 741.218C570.328 727.06 578.87 706.684 590.268 680.083L588.15 679.175L586.032 678.268C574.63 704.879 566.072 725.292 560.362 739.5C557.508 746.601 555.358 752.171 553.918 756.199C553.199 758.21 552.648 759.862 552.273 761.141C551.93 762.311 551.646 763.451 551.646 764.273H553.95ZM588.15 679.175L590.264 680.092C591.571 677.075 593.007 676.315 594.347 676.315V674.011V671.707C590.408 671.707 587.712 674.39 586.036 678.259L588.15 679.175ZM594.347 674.011V676.315C596.185 676.315 597.297 676.489 597.87 676.696C598.145 676.794 598.134 676.845 598.036 676.739C597.89 676.581 597.781 676.327 597.781 676.077H600.085H602.39C602.39 675.138 602.041 674.281 601.417 673.608C600.841 672.985 600.113 672.605 599.431 672.359C598.092 671.877 596.334 671.707 594.347 671.707V674.011ZM600.085 676.077H597.781V676.995H600.085H602.39V676.077H600.085ZM600.085 676.995H597.781C597.781 676.989 597.781 677.011 597.775 677.067C597.768 677.121 597.756 677.197 597.735 677.297C597.694 677.499 597.624 677.766 597.516 678.106C597.3 678.788 596.959 679.675 596.479 680.784L598.593 681.7L600.708 682.616C601.222 681.43 601.628 680.385 601.909 679.499C602.174 678.661 602.39 677.782 602.39 676.995H600.085ZM598.593 681.7L596.479 680.784C595.491 683.065 594.818 684.705 594.514 685.62L596.7 686.348L598.886 687.077C599.117 686.384 599.707 684.926 600.708 682.616L598.593 681.7ZM596.7 686.348L594.525 685.587C594.26 686.344 594.075 686.824 593.963 687.076L596.069 688.012L598.174 688.948C598.368 688.512 598.604 687.882 598.875 687.109L596.7 686.348ZM596.069 688.012L593.929 687.156L591.863 692.321L594.003 693.177L596.142 694.032L598.208 688.868L596.069 688.012ZM594.003 693.177L591.887 692.263C590.435 695.627 589.437 698.03 588.916 699.432L591.076 700.235L593.236 701.037C593.71 699.761 594.663 697.459 596.118 694.09L594.003 693.177ZM591.076 700.235L588.903 699.468C588.676 700.113 588.501 700.596 588.376 700.925C588.313 701.092 588.269 701.204 588.241 701.271C588.226 701.305 588.223 701.312 588.227 701.302C588.23 701.297 588.239 701.277 588.255 701.248C588.267 701.224 588.302 701.16 588.356 701.08L590.273 702.358L592.19 703.636C592.355 703.389 592.468 703.107 592.492 703.05C592.55 702.912 592.615 702.744 592.686 702.556C592.829 702.178 593.018 701.657 593.249 701.002L591.076 700.235ZM590.273 702.358L588.087 701.629C588.099 701.593 587.232 703.737 585.37 708.319C583.543 712.813 580.813 719.526 577.179 728.459L579.313 729.327L581.447 730.196C585.082 721.263 587.812 714.549 589.639 710.054C591.43 705.646 592.409 703.237 592.459 703.086L590.273 702.358ZM579.313 729.327L577.177 728.463C569.939 746.348 565.918 756.219 565.09 758.138L567.205 759.051L569.321 759.964C570.176 757.981 574.227 748.036 581.449 730.192L579.313 729.327ZM567.205 759.051L565.096 758.124C563.945 760.742 562.9 762.548 561.991 763.663C561.027 764.845 560.561 764.838 560.607 764.838V767.142V769.446C562.68 769.446 564.327 768.09 565.563 766.576C566.853 764.993 568.095 762.754 569.315 759.979L567.205 759.051ZM615.464 741.033L616.889 742.844L616.891 742.842L615.464 741.033ZM615.062 706.432L613.612 708.223L613.623 708.231L615.062 706.432ZM619.079 695.816L620.207 693.807L620.204 693.805L619.079 695.816ZM653.967 717.736L652.602 719.593L652.606 719.595L653.967 717.736ZM653.508 730.532L652.244 728.606L652.229 728.615L652.215 728.625L653.508 730.532ZM616.669 753.141L617.769 755.165L617.772 755.164L616.669 753.141ZM612.881 754.575V752.271C612.745 752.271 612.738 752.245 612.784 752.271C612.832 752.298 612.815 752.312 612.757 752.213C612.599 751.946 612.374 751.249 612.374 749.813H610.07H607.765C607.765 751.552 608.009 753.235 608.788 754.556C609.68 756.066 611.146 756.88 612.881 756.88V754.575ZM610.07 749.813H612.374V748.837H610.07H607.765V749.813H610.07ZM610.07 748.837H612.374C612.374 747.61 613.375 745.61 616.889 742.844L615.464 741.033L614.038 739.223C610.36 742.118 607.765 745.321 607.765 748.837H610.07ZM615.464 741.033L616.891 742.842C616.89 742.843 616.896 742.838 616.912 742.826C616.928 742.815 616.949 742.799 616.978 742.779C617.035 742.738 617.112 742.685 617.21 742.619C617.407 742.487 617.67 742.315 618.003 742.101C618.669 741.673 619.589 741.096 620.766 740.367C623.118 738.91 626.471 736.863 630.83 734.225L629.637 732.254L628.444 730.282C624.081 732.923 620.711 734.98 618.339 736.449C616.046 737.869 614.531 738.834 614.036 739.225L615.464 741.033ZM629.637 732.254L630.83 734.225C635.193 731.584 638.474 729.579 640.667 728.213C641.762 727.532 642.599 727.001 643.169 726.626C643.449 726.441 643.69 726.278 643.872 726.146C643.956 726.085 644.07 725.999 644.18 725.904C644.228 725.862 644.334 725.769 644.446 725.64C644.5 725.578 644.604 725.453 644.706 725.278C644.778 725.155 645.024 724.722 645.024 724.105H642.72H640.416C640.416 723.494 640.66 723.067 640.728 722.952C640.826 722.784 640.923 722.667 640.969 722.615C641.064 722.506 641.144 722.437 641.158 722.424C641.199 722.389 641.211 722.382 641.159 722.42C641.068 722.486 640.901 722.602 640.636 722.776C640.115 723.118 639.317 723.625 638.231 724.301C636.063 725.651 632.803 727.644 628.444 730.282L629.637 732.254ZM642.72 724.105H645.024C645.024 723.486 644.775 723.052 644.707 722.935C644.607 722.763 644.505 722.64 644.453 722.579C644.344 722.453 644.241 722.36 644.194 722.318C644.086 722.224 643.974 722.137 643.889 722.074C643.707 721.939 643.465 721.771 643.181 721.579C642.605 721.19 641.758 720.638 640.649 719.927C638.428 718.504 635.104 716.413 630.684 713.658L629.465 715.613L628.246 717.568C632.662 720.322 635.966 722.4 638.163 723.808C639.264 724.513 640.073 725.041 640.602 725.398C640.871 725.58 641.042 725.7 641.137 725.771C641.19 725.811 641.181 725.806 641.143 725.773C641.13 725.761 641.053 725.694 640.962 725.588C640.918 725.537 640.823 725.422 640.726 725.257C640.663 725.148 640.416 724.72 640.416 724.105H642.72ZM629.465 715.613L630.684 713.658C626.268 710.905 622.866 708.767 620.475 707.243C618.011 705.672 616.761 704.84 616.501 704.633L615.062 706.432L613.623 708.231C614.128 708.636 615.661 709.64 617.998 711.129C620.408 712.666 623.825 714.813 628.246 717.568L629.465 715.613ZM615.062 706.432L616.512 704.641C613.654 702.328 612.546 700.059 612.546 697.825H610.242H607.938C607.938 701.864 610.043 705.333 613.612 708.223L615.062 706.432ZM610.242 697.825H612.546C612.546 696.447 612.794 695.82 612.948 695.595C613.005 695.512 613.04 695.494 613.06 695.484C613.091 695.469 613.201 695.424 613.455 695.424V693.119V690.815C611.736 690.815 610.168 691.495 609.142 692.996C608.225 694.34 607.938 696.066 607.938 697.825H610.242ZM613.455 693.119V695.424C613.13 695.424 612.998 695.333 613.303 695.447C613.512 695.525 613.827 695.661 614.266 695.871C615.139 696.29 616.362 696.937 617.954 697.827L619.079 695.816L620.204 693.805C618.582 692.898 617.261 692.196 616.259 691.716C615.761 691.477 615.306 691.275 614.913 691.129C614.616 691.018 614.048 690.815 613.455 690.815V693.119ZM619.079 695.816L617.951 697.825C632.211 705.832 643.753 713.088 652.602 719.593L653.967 717.736L655.332 715.879C646.278 709.225 634.561 701.867 620.207 693.807L619.079 695.816ZM653.967 717.736L652.606 719.595C654.149 720.725 654.876 722.155 654.876 724.105H657.18H659.485C659.485 720.701 658.069 717.884 655.328 715.877L653.967 717.736ZM657.18 724.105H654.876C654.876 725.925 654.115 727.378 652.244 728.606L653.508 730.532L654.772 732.459C657.798 730.473 659.485 727.642 659.485 724.105H657.18ZM653.508 730.532L652.215 728.625C639.568 737.196 627.352 744.692 615.566 751.118L616.669 753.141L617.772 755.164C629.704 748.659 642.047 741.083 654.801 732.44L653.508 730.532ZM616.669 753.141L615.568 751.116C614.741 751.566 614.085 751.873 613.586 752.062C613.047 752.266 612.849 752.271 612.881 752.271V754.575V756.88C613.679 756.88 614.494 756.646 615.218 756.372C615.981 756.082 616.837 755.672 617.769 755.165L616.669 753.141Z" fill="#DADADA" mask="url(#path-9-outside-1_2050_10)"/>
<path d="M1330.57 296.412C1330.57 277.971 1343.82 268.751 1370.32 268.751C1376.4 268.751 1382.31 271.078 1388.04 275.733C1393.77 280.388 1396.64 286.834 1396.64 295.069C1396.64 303.305 1394.04 314.226 1388.85 327.833C1383.65 341.44 1380.43 354.33 1379.18 366.505C1377.93 378.679 1375.15 420.932 1370.85 493.263C1366.56 565.593 1363.78 604.444 1362.53 609.815C1360.02 620.558 1354.74 625.929 1346.68 625.929C1330.75 625.929 1314.64 615.455 1298.34 594.508C1294.58 589.674 1269.97 550.017 1224.49 475.538C1179.2 400.88 1152.61 363.551 1144.73 363.551L1141.24 365.699C1139.81 367.848 1138.55 373.219 1137.48 381.812C1131.75 430.868 1128.89 483.953 1128.89 541.065C1128.89 547.153 1129.24 553.777 1129.96 560.938L1131.03 570.069C1132.11 579.021 1132.65 584.571 1132.65 586.72C1132.65 599.073 1128.44 609.01 1120.02 616.529C1111.79 624.049 1102.12 627.809 1091.02 627.809H1081.89C1070.61 627.809 1064.97 623.601 1064.97 615.187C1064.97 606.593 1067.39 597.014 1072.22 586.451C1077.06 575.888 1080.28 563.893 1081.89 550.465C1089.59 485.833 1093.44 416.456 1093.44 342.335C1093.44 329.623 1092.54 319.06 1090.75 310.646L1088.33 301.515L1085.65 293.189C1084.22 288.176 1083.5 283.253 1083.5 278.419C1083.5 271.795 1089.86 268.482 1102.57 268.482C1126.92 268.482 1148.67 279.225 1167.83 300.709C1187.16 322.014 1216.26 364.177 1255.11 427.198C1293.96 490.219 1314.9 521.729 1317.95 521.729L1321.71 520.655C1322.78 519.044 1323.86 513.315 1324.93 503.468C1331.56 441.342 1334.87 386.826 1334.87 339.918C1334.87 335.8 1334.42 329.534 1333.52 321.119L1332.45 312.525C1331.2 303.753 1330.57 298.382 1330.57 296.412ZM1534.94 601.759H1541.92C1556.6 601.759 1569.49 596.835 1580.6 586.988C1591.87 576.962 1597.51 565.414 1597.51 552.345L1598.05 548.854V545.362L1598.59 537.037V521.729C1598.59 511.345 1593.31 506.153 1582.74 506.153H1570.66L1568.78 506.422L1558.31 507.228C1553.29 507.944 1549.71 508.302 1547.56 508.302C1533.06 508.302 1519.63 513.762 1507.28 524.684C1498.69 532.382 1494.39 543.303 1494.39 557.447V562.818C1494.39 574.814 1498.24 584.303 1505.94 591.285C1513.81 598.268 1523.48 601.759 1534.94 601.759ZM1475.05 430.152C1463.06 430.152 1457.06 422.454 1457.06 407.057C1457.06 395.598 1466.73 385.662 1486.06 377.247C1505.58 368.653 1525.81 364.356 1546.76 364.356H1560.18C1578.27 364.356 1594.2 367.758 1607.99 374.562C1621.77 381.186 1632.25 390.227 1639.41 401.686C1646.75 413.144 1651.22 428.093 1652.84 446.534C1653.19 450.831 1653.37 471.689 1653.37 509.107C1653.37 546.526 1653.82 568.1 1654.72 573.829C1655.79 579.379 1658.65 586.183 1663.31 594.239C1668.14 602.296 1670.56 608.92 1670.56 614.112C1670.56 619.304 1668.05 623.78 1663.04 627.54C1658.21 631.121 1651.14 632.911 1641.83 632.911C1632.52 632.911 1622.4 630.673 1611.48 626.197C1600.56 621.542 1592.59 619.215 1587.58 619.215C1587.04 619.215 1578.09 622.438 1560.72 628.883C1543.36 635.149 1528.67 638.282 1516.68 638.282H1510.77C1490.72 638.282 1473.62 631.926 1459.48 619.215C1445.51 606.503 1438.53 588.421 1438.53 564.967C1438.53 541.513 1446.23 523.251 1461.63 510.182C1477.02 496.933 1495.73 487.892 1517.75 483.058C1524.38 481.625 1535.39 479.745 1550.79 477.418C1566.18 475.09 1576.66 472.674 1582.21 470.167C1591.87 465.691 1596.71 457.276 1596.71 444.923C1596.71 432.39 1592.59 422.633 1584.35 415.65C1576.12 408.489 1566.27 404.908 1554.81 404.908C1543.53 404.908 1528.67 409.116 1510.23 417.53C1491.79 425.945 1480.07 430.152 1475.05 430.152ZM1779.59 505.348V525.758C1779.59 547.063 1784.43 564.877 1794.1 579.2C1803.94 593.344 1815.49 600.416 1828.74 600.416H1836.26C1856.67 600.416 1872.42 592.27 1883.52 575.978C1894.8 559.685 1900.44 535.426 1900.44 503.199C1900.8 499.26 1900.98 496.396 1900.98 494.605L1901.52 489.234L1901.79 477.955V458.888C1901.79 422.364 1887.2 404.103 1858.01 404.103H1847.54C1828.56 404.103 1812.45 413.681 1799.2 432.838C1786.13 451.995 1779.59 476.165 1779.59 505.348ZM1728.03 517.701C1728.03 499.081 1731.34 480.104 1737.97 460.768C1744.59 441.432 1753.9 424.96 1765.9 411.354C1777.89 397.568 1791.41 387.631 1806.45 381.544C1821.49 375.278 1839.3 372.145 1859.89 372.145C1880.66 372.145 1893.55 368.385 1898.56 360.865C1903.58 353.167 1906.08 336.248 1906.08 310.108C1906.08 305.274 1905.28 298.829 1903.67 290.772C1902.06 282.716 1901.25 278.061 1901.25 276.808C1901.25 269.109 1904.56 262.127 1911.19 255.86C1917.81 249.415 1926.49 246.192 1937.24 246.192H1942.61C1951.02 246.192 1957.29 248.162 1961.41 252.101C1965.52 256.039 1967.58 264.275 1967.58 276.808V301.783L1967.05 314.405C1966.87 318.702 1966.78 324.968 1966.78 333.204C1966.78 341.261 1965.43 367.221 1962.75 411.085C1960.06 454.949 1958.72 485.117 1958.72 501.588L1958.45 508.033C1958.27 512.33 1958.18 516.448 1958.18 520.387L1957.91 526.563C1957.91 526.563 1957.91 533.546 1957.91 547.511C1957.91 565.593 1959.35 579.2 1962.21 588.331C1965.08 597.462 1966.51 603.997 1966.51 607.936C1966.51 611.874 1964.27 615.992 1959.79 620.289C1955.32 624.586 1948.34 626.734 1938.85 626.734C1929.54 626.734 1920.5 625.213 1911.72 622.169C1902.95 618.946 1896.5 617.335 1892.39 617.335C1888.27 617.335 1882.9 618.588 1876.27 621.095C1856.22 628.435 1837.87 632.105 1821.22 632.105C1820.86 632.105 1820.5 632.105 1820.15 632.105H1813.97C1786.93 632.105 1765.81 622.258 1750.59 602.564C1735.55 582.691 1728.03 556.642 1728.03 524.415V517.701ZM2122 601.759H2128.98C2143.66 601.759 2156.56 596.835 2167.66 586.988C2178.93 576.962 2184.57 565.414 2184.57 552.345L2185.11 548.854V545.362L2185.65 537.037V521.729C2185.65 511.345 2180.37 506.153 2169.8 506.153H2157.72L2155.84 506.422L2145.37 507.228C2140.35 507.944 2136.77 508.302 2134.62 508.302C2120.12 508.302 2106.69 513.762 2094.34 524.684C2085.75 532.382 2081.45 543.303 2081.45 557.447V562.818C2081.45 574.814 2085.3 584.303 2093 591.285C2100.88 598.268 2110.54 601.759 2122 601.759ZM2062.11 430.152C2050.12 430.152 2044.12 422.454 2044.12 407.057C2044.12 395.598 2053.79 385.662 2073.12 377.247C2092.64 368.653 2112.87 364.356 2133.82 364.356H2147.25C2165.33 364.356 2181.26 367.758 2195.05 374.562C2208.83 381.186 2219.31 390.227 2226.47 401.686C2233.81 413.144 2238.29 428.093 2239.9 446.534C2240.25 450.831 2240.43 471.689 2240.43 509.107C2240.43 546.526 2240.88 568.1 2241.78 573.829C2242.85 579.379 2245.72 586.183 2250.37 594.239C2255.2 602.296 2257.62 608.92 2257.62 614.112C2257.62 619.304 2255.11 623.78 2250.1 627.54C2245.27 631.121 2238.2 632.911 2228.89 632.911C2219.58 632.911 2209.46 630.673 2198.54 626.197C2187.62 621.542 2179.65 619.215 2174.64 619.215C2174.1 619.215 2165.15 622.438 2147.78 628.883C2130.42 635.149 2115.74 638.282 2103.74 638.282H2097.83C2077.78 638.282 2060.68 631.926 2046.54 619.215C2032.57 606.503 2025.59 588.421 2025.59 564.967C2025.59 541.513 2033.29 523.251 2048.69 510.182C2064.08 496.933 2082.79 487.892 2104.81 483.058C2111.44 481.625 2122.45 479.745 2137.85 477.418C2153.24 475.09 2163.72 472.674 2169.27 470.167C2178.93 465.691 2183.77 457.276 2183.77 444.923C2183.77 432.39 2179.65 422.633 2171.42 415.65C2163.18 408.489 2153.33 404.908 2141.87 404.908C2130.6 404.908 2115.74 409.116 2097.29 417.53C2078.85 425.945 2067.13 430.152 2062.11 430.152ZM2566.73 603.37C2566.73 616.619 2555.18 623.243 2532.08 623.243C2519.01 623.243 2510.24 620.11 2505.77 613.844C2503.62 610.8 2502.54 603.639 2502.54 592.359L2501.74 575.172C2500.48 556.373 2499.86 537.485 2499.86 518.507C2499.86 477.507 2496.28 450.025 2489.12 436.061C2482.13 421.917 2470.32 414.845 2453.67 414.845C2442.57 414.845 2432.27 418.157 2422.78 424.781C2413.47 431.406 2406.31 440.626 2401.3 452.442C2390.91 476.612 2385.72 521.282 2385.72 586.451C2385.72 601.311 2382.86 611.785 2377.13 617.872C2371.58 623.959 2364.42 627.003 2355.64 627.003H2350.27C2330.22 627.003 2320.19 619.036 2320.19 603.102V596.656C2320.19 594.687 2321.27 590.39 2323.42 583.766L2327.71 571.412C2332.01 556.91 2334.16 525.847 2334.16 478.224L2335.5 398.463C2335.5 388.258 2341.05 383.155 2352.15 383.155C2363.25 383.155 2374.17 386.826 2384.92 394.166C2395.84 401.507 2402.73 405.177 2405.6 405.177C2408.64 405.177 2413.92 403.118 2421.44 399C2446.68 385.214 2466.92 378.321 2482.13 378.321H2489.12C2516.51 378.321 2535.75 390.675 2546.85 415.382C2552.23 427.019 2554.91 452.084 2554.91 490.577V492.457C2554.91 495.68 2554.82 498.902 2554.64 502.125C2554.64 510.898 2554.64 515.463 2554.64 515.821C2554.64 519.223 2554.64 522.535 2554.64 525.758C2554.64 528.264 2554.64 530.681 2554.64 533.009C2554.64 546.795 2555.09 556.194 2555.99 561.207C2557.24 568.01 2559.3 575.082 2562.16 582.423C2565.21 590.479 2566.73 597.462 2566.73 603.37ZM2768.41 606.861C2768.41 614.023 2764.03 620.468 2755.25 626.197C2746.66 631.747 2734.93 634.522 2720.07 634.522C2692.32 634.522 2672.81 624.228 2661.53 603.639C2654.55 590.748 2651.05 560.58 2651.05 513.136C2651.05 465.691 2650.25 438.119 2648.64 430.421C2647.03 422.722 2642.55 415.203 2635.21 407.862C2627.87 400.522 2624.2 394.882 2624.2 390.943C2624.2 389.511 2632.88 380.112 2650.25 362.745C2654.01 358.985 2657.77 350.66 2661.53 337.77C2665.47 324.879 2668.24 316.375 2669.85 312.257C2675.22 299.366 2682.3 292.921 2691.07 292.921H2695.37C2703.06 292.921 2708.52 295.875 2711.75 301.783C2713 304.111 2714.88 312.525 2717.39 327.027C2720.07 341.35 2723.12 350.571 2726.52 354.688C2729.92 358.806 2738.42 363.372 2752.03 368.385C2765.82 373.219 2772.71 378.411 2772.71 383.961V386.915C2772.71 394.076 2764.83 400.164 2749.08 405.177C2733.5 410.011 2723.47 417.799 2719 428.541C2710.23 450.204 2705.84 485.475 2705.84 534.352C2705.84 557.268 2709.78 572.844 2717.66 581.08C2722.49 586.093 2732.16 589.584 2746.66 591.554C2761.16 593.523 2768.41 598.626 2768.41 606.861ZM2914.77 601.759H2921.76C2936.44 601.759 2949.33 596.835 2960.43 586.988C2971.71 576.962 2977.35 565.414 2977.35 552.345L2977.89 548.854V545.362L2978.42 537.037V521.729C2978.42 511.345 2973.14 506.153 2962.58 506.153H2950.49L2948.61 506.422L2938.14 507.228C2933.13 507.944 2929.55 508.302 2927.4 508.302C2912.89 508.302 2899.47 513.762 2887.11 524.684C2878.52 532.382 2874.22 543.303 2874.22 557.447V562.818C2874.22 574.814 2878.07 584.303 2885.77 591.285C2893.65 598.268 2903.32 601.759 2914.77 601.759ZM2854.89 430.152C2842.89 430.152 2836.89 422.454 2836.89 407.057C2836.89 395.598 2846.56 385.662 2865.9 377.247C2885.41 368.653 2905.64 364.356 2926.59 364.356H2940.02C2958.1 364.356 2974.04 367.758 2987.82 374.562C3001.61 381.186 3012.08 390.227 3019.24 401.686C3026.58 413.144 3031.06 428.093 3032.67 446.534C3033.03 450.831 3033.21 471.689 3033.21 509.107C3033.21 546.526 3033.65 568.1 3034.55 573.829C3035.62 579.379 3038.49 586.183 3043.14 594.239C3047.98 602.296 3050.39 608.92 3050.39 614.112C3050.39 619.304 3047.89 623.78 3042.88 627.54C3038.04 631.121 3030.97 632.911 3021.66 632.911C3012.35 632.911 3002.23 630.673 2991.31 626.197C2980.39 621.542 2972.42 619.215 2967.41 619.215C2966.87 619.215 2957.92 622.438 2940.56 628.883C2923.19 635.149 2908.51 638.282 2896.51 638.282H2890.6C2870.55 638.282 2853.45 631.926 2839.31 619.215C2825.35 606.503 2818.36 588.421 2818.36 564.967C2818.36 541.513 2826.06 523.251 2841.46 510.182C2856.86 496.933 2875.57 487.892 2897.59 483.058C2904.21 481.625 2915.22 479.745 2930.62 477.418C2946.02 475.09 2956.49 472.674 2962.04 470.167C2971.71 465.691 2976.54 457.276 2976.54 444.923C2976.54 432.39 2972.42 422.633 2964.19 415.65C2955.95 408.489 2946.11 404.908 2934.65 404.908C2923.37 404.908 2908.51 409.116 2890.07 417.53C2871.63 425.945 2859.9 430.152 2854.89 430.152Z" fill="white"/>
</svg>
